<mxfile host="app.diagrams.net" modified="2022-09-20T08:49:54.597Z" agent="5.0 (Macintosh; Intel Mac OS X 10_15_7) AppleWebKit/537.36 (KHTML, like Gecko) Chrome/105.0.0.0 Safari/537.36" etag="gd0Qjk6cpix2AQcFEnUi" version="20.3.1" type="github">
  <diagram id="DbaqC_PuPmTqBR4cVtfG" name="Page-1">
    <mxGraphModel dx="2207" dy="879" grid="1" gridSize="10" guides="1" tooltips="1" connect="1" arrows="1" fold="1" page="1" pageScale="1" pageWidth="850" pageHeight="1100" math="0" shadow="0">
      <root>
        <mxCell id="0" />
        <mxCell id="1" parent="0" />
        <mxCell id="bvxB5P5gTHkeNItPRdx8-58" value="" style="endArrow=classic;html=1;rounded=0;strokeWidth=1.5;fontSize=22;entryX=0;entryY=0.5;entryDx=0;entryDy=0;" edge="1" parent="1" source="bvxB5P5gTHkeNItPRdx8-17" target="bvxB5P5gTHkeNItPRdx8-21">
          <mxGeometry width="50" height="50" relative="1" as="geometry">
            <mxPoint x="-280" y="460" as="sourcePoint" />
            <mxPoint x="180" y="420" as="targetPoint" />
          </mxGeometry>
        </mxCell>
        <mxCell id="bvxB5P5gTHkeNItPRdx8-29" value="" style="endArrow=classic;html=1;rounded=0;strokeWidth=1.5;fontSize=13;exitX=0.25;exitY=1;exitDx=0;exitDy=0;entryX=0.429;entryY=0;entryDx=0;entryDy=0;entryPerimeter=0;" edge="1" parent="1" source="bvxB5P5gTHkeNItPRdx8-19" target="bvxB5P5gTHkeNItPRdx8-21">
          <mxGeometry width="50" height="50" relative="1" as="geometry">
            <mxPoint x="150" y="480" as="sourcePoint" />
            <mxPoint x="200" y="430" as="targetPoint" />
          </mxGeometry>
        </mxCell>
        <mxCell id="bvxB5P5gTHkeNItPRdx8-27" value="" style="endArrow=classic;html=1;rounded=0;strokeWidth=1.5;entryX=0;entryY=0.5;entryDx=0;entryDy=0;" edge="1" parent="1" source="bvxB5P5gTHkeNItPRdx8-14" target="bvxB5P5gTHkeNItPRdx8-21">
          <mxGeometry width="50" height="50" relative="1" as="geometry">
            <mxPoint x="80" y="530" as="sourcePoint" />
            <mxPoint x="130" y="480" as="targetPoint" />
          </mxGeometry>
        </mxCell>
        <mxCell id="bvxB5P5gTHkeNItPRdx8-6" value="" style="shape=umlActor;verticalLabelPosition=bottom;verticalAlign=top;html=1;outlineConnect=0;fontSize=14;" vertex="1" parent="1">
          <mxGeometry x="-450" y="330" width="30" height="60" as="geometry" />
        </mxCell>
        <mxCell id="bvxB5P5gTHkeNItPRdx8-7" value="user" style="shape=umlActor;verticalLabelPosition=bottom;verticalAlign=top;html=1;outlineConnect=0;fontSize=14;" vertex="1" parent="1">
          <mxGeometry x="-430" y="330" width="30" height="60" as="geometry" />
        </mxCell>
        <mxCell id="bvxB5P5gTHkeNItPRdx8-8" value="" style="shape=umlActor;verticalLabelPosition=bottom;verticalAlign=top;html=1;outlineConnect=0;fontSize=14;" vertex="1" parent="1">
          <mxGeometry x="-410" y="330" width="30" height="60" as="geometry" />
        </mxCell>
        <mxCell id="bvxB5P5gTHkeNItPRdx8-9" value="" style="shape=umlActor;verticalLabelPosition=bottom;verticalAlign=top;html=1;outlineConnect=0;fontSize=14;" vertex="1" parent="1">
          <mxGeometry x="-450" y="420" width="30" height="60" as="geometry" />
        </mxCell>
        <mxCell id="bvxB5P5gTHkeNItPRdx8-10" value="user" style="shape=umlActor;verticalLabelPosition=bottom;verticalAlign=top;html=1;outlineConnect=0;fontSize=14;" vertex="1" parent="1">
          <mxGeometry x="-430" y="420" width="30" height="60" as="geometry" />
        </mxCell>
        <mxCell id="bvxB5P5gTHkeNItPRdx8-11" value="" style="shape=umlActor;verticalLabelPosition=bottom;verticalAlign=top;html=1;outlineConnect=0;fontSize=14;" vertex="1" parent="1">
          <mxGeometry x="-410" y="420" width="30" height="60" as="geometry" />
        </mxCell>
        <mxCell id="bvxB5P5gTHkeNItPRdx8-12" value="" style="shape=umlActor;verticalLabelPosition=bottom;verticalAlign=top;html=1;outlineConnect=0;fontSize=14;" vertex="1" parent="1">
          <mxGeometry x="-360" y="330" width="30" height="60" as="geometry" />
        </mxCell>
        <mxCell id="bvxB5P5gTHkeNItPRdx8-13" value="user" style="shape=umlActor;verticalLabelPosition=bottom;verticalAlign=top;html=1;outlineConnect=0;fontSize=14;" vertex="1" parent="1">
          <mxGeometry x="-340" y="330" width="30" height="60" as="geometry" />
        </mxCell>
        <mxCell id="bvxB5P5gTHkeNItPRdx8-14" value="" style="shape=umlActor;verticalLabelPosition=bottom;verticalAlign=top;html=1;outlineConnect=0;fontSize=14;" vertex="1" parent="1">
          <mxGeometry x="-320" y="330" width="30" height="60" as="geometry" />
        </mxCell>
        <mxCell id="bvxB5P5gTHkeNItPRdx8-15" value="" style="shape=umlActor;verticalLabelPosition=bottom;verticalAlign=top;html=1;outlineConnect=0;fontSize=14;" vertex="1" parent="1">
          <mxGeometry x="-360" y="420" width="30" height="60" as="geometry" />
        </mxCell>
        <mxCell id="bvxB5P5gTHkeNItPRdx8-16" value="user" style="shape=umlActor;verticalLabelPosition=bottom;verticalAlign=top;html=1;outlineConnect=0;fontSize=14;" vertex="1" parent="1">
          <mxGeometry x="-340" y="420" width="30" height="60" as="geometry" />
        </mxCell>
        <mxCell id="bvxB5P5gTHkeNItPRdx8-17" value="" style="shape=umlActor;verticalLabelPosition=bottom;verticalAlign=top;html=1;outlineConnect=0;fontSize=14;" vertex="1" parent="1">
          <mxGeometry x="-320" y="420" width="30" height="60" as="geometry" />
        </mxCell>
        <mxCell id="bvxB5P5gTHkeNItPRdx8-18" value="&lt;font style=&quot;font-size: 16px;&quot;&gt;Generate validator key + withdraw key + deposit data locally&lt;/font&gt;" style="text;html=1;strokeColor=none;fillColor=none;align=center;verticalAlign=middle;whiteSpace=wrap;rounded=0;" vertex="1" parent="1">
          <mxGeometry x="-490" y="510" width="260" height="50" as="geometry" />
        </mxCell>
        <mxCell id="bvxB5P5gTHkeNItPRdx8-19" value="&lt;font style=&quot;font-size: 22px;&quot;&gt;Beacon Chain (consensus)&lt;/font&gt;" style="rounded=1;whiteSpace=wrap;html=1;fillColor=#dae8fc;strokeColor=#6c8ebf;" vertex="1" parent="1">
          <mxGeometry x="60" y="110" width="640" height="130" as="geometry" />
        </mxCell>
        <mxCell id="bvxB5P5gTHkeNItPRdx8-20" value="&lt;font style=&quot;font-size: 22px;&quot;&gt;Main Chain (Execution)&lt;/font&gt;" style="rounded=1;whiteSpace=wrap;html=1;fillColor=#f8cecc;strokeColor=#b85450;" vertex="1" parent="1">
          <mxGeometry x="60" y="420" width="640" height="130" as="geometry" />
        </mxCell>
        <mxCell id="bvxB5P5gTHkeNItPRdx8-21" value="&lt;font style=&quot;font-size: 17px;&quot;&gt;Deposit Contract&lt;/font&gt;" style="rounded=1;whiteSpace=wrap;html=1;fontSize=20;fillColor=#d5e8d4;strokeColor=#82b366;" vertex="1" parent="1">
          <mxGeometry x="130" y="380" width="210" height="50" as="geometry" />
        </mxCell>
        <mxCell id="bvxB5P5gTHkeNItPRdx8-24" value="&lt;font style=&quot;font-size: 16px;&quot;&gt;Send 32ETH with deposit data&lt;/font&gt;" style="text;html=1;strokeColor=none;fillColor=none;align=center;verticalAlign=middle;whiteSpace=wrap;rounded=0;" vertex="1" parent="1">
          <mxGeometry x="-220" y="320" width="220" height="30" as="geometry" />
        </mxCell>
        <mxCell id="bvxB5P5gTHkeNItPRdx8-30" value="&lt;font style=&quot;font-size: 16px;&quot;&gt;Beacon Chain processes the new deposit -&amp;gt; After success, the new validator enters the queue and waits for activation&lt;/font&gt;" style="text;html=1;strokeColor=none;fillColor=none;align=center;verticalAlign=middle;whiteSpace=wrap;rounded=0;fontSize=14;" vertex="1" parent="1">
          <mxGeometry x="230" y="320" width="330" height="60" as="geometry" />
        </mxCell>
        <mxCell id="bvxB5P5gTHkeNItPRdx8-43" value="" style="shape=umlActor;verticalLabelPosition=bottom;verticalAlign=top;html=1;outlineConnect=0;fontSize=14;" vertex="1" parent="1">
          <mxGeometry x="530" y="20" width="30" height="60" as="geometry" />
        </mxCell>
        <mxCell id="bvxB5P5gTHkeNItPRdx8-44" value="validator" style="shape=umlActor;verticalLabelPosition=bottom;verticalAlign=top;html=1;outlineConnect=0;fontSize=14;" vertex="1" parent="1">
          <mxGeometry x="550" y="20" width="30" height="60" as="geometry" />
        </mxCell>
        <mxCell id="bvxB5P5gTHkeNItPRdx8-45" value="" style="shape=umlActor;verticalLabelPosition=bottom;verticalAlign=top;html=1;outlineConnect=0;fontSize=14;" vertex="1" parent="1">
          <mxGeometry x="570" y="20" width="30" height="60" as="geometry" />
        </mxCell>
        <mxCell id="bvxB5P5gTHkeNItPRdx8-46" value="" style="shape=umlActor;verticalLabelPosition=bottom;verticalAlign=top;html=1;outlineConnect=0;fontSize=14;" vertex="1" parent="1">
          <mxGeometry x="350" y="20" width="30" height="60" as="geometry" />
        </mxCell>
        <mxCell id="bvxB5P5gTHkeNItPRdx8-47" value="validator" style="shape=umlActor;verticalLabelPosition=bottom;verticalAlign=top;html=1;outlineConnect=0;fontSize=14;" vertex="1" parent="1">
          <mxGeometry x="370" y="20" width="30" height="60" as="geometry" />
        </mxCell>
        <mxCell id="bvxB5P5gTHkeNItPRdx8-48" value="" style="shape=umlActor;verticalLabelPosition=bottom;verticalAlign=top;html=1;outlineConnect=0;fontSize=14;" vertex="1" parent="1">
          <mxGeometry x="390" y="20" width="30" height="60" as="geometry" />
        </mxCell>
        <mxCell id="bvxB5P5gTHkeNItPRdx8-49" value="" style="shape=umlActor;verticalLabelPosition=bottom;verticalAlign=top;html=1;outlineConnect=0;fontSize=14;" vertex="1" parent="1">
          <mxGeometry x="620" y="20" width="30" height="60" as="geometry" />
        </mxCell>
        <mxCell id="bvxB5P5gTHkeNItPRdx8-50" value="validator" style="shape=umlActor;verticalLabelPosition=bottom;verticalAlign=top;html=1;outlineConnect=0;fontSize=14;" vertex="1" parent="1">
          <mxGeometry x="640" y="20" width="30" height="60" as="geometry" />
        </mxCell>
        <mxCell id="bvxB5P5gTHkeNItPRdx8-51" value="" style="shape=umlActor;verticalLabelPosition=bottom;verticalAlign=top;html=1;outlineConnect=0;fontSize=14;" vertex="1" parent="1">
          <mxGeometry x="660" y="20" width="30" height="60" as="geometry" />
        </mxCell>
        <mxCell id="bvxB5P5gTHkeNItPRdx8-52" value="" style="shape=umlActor;verticalLabelPosition=bottom;verticalAlign=top;html=1;outlineConnect=0;fontSize=14;" vertex="1" parent="1">
          <mxGeometry x="440" y="20" width="30" height="60" as="geometry" />
        </mxCell>
        <mxCell id="bvxB5P5gTHkeNItPRdx8-53" value="validator" style="shape=umlActor;verticalLabelPosition=bottom;verticalAlign=top;html=1;outlineConnect=0;fontSize=14;" vertex="1" parent="1">
          <mxGeometry x="460" y="20" width="30" height="60" as="geometry" />
        </mxCell>
        <mxCell id="bvxB5P5gTHkeNItPRdx8-54" value="" style="shape=umlActor;verticalLabelPosition=bottom;verticalAlign=top;html=1;outlineConnect=0;fontSize=14;" vertex="1" parent="1">
          <mxGeometry x="480" y="20" width="30" height="60" as="geometry" />
        </mxCell>
        <mxCell id="bvxB5P5gTHkeNItPRdx8-55" value="&lt;font style=&quot;font-size: 16px;&quot;&gt;Once a validator is activated (enter the beacon chain validator list), the validator is assigned responsibilities until exited&lt;/font&gt;" style="text;html=1;strokeColor=none;fillColor=none;align=center;verticalAlign=middle;whiteSpace=wrap;rounded=0;fontSize=14;" vertex="1" parent="1">
          <mxGeometry x="40" y="30" width="290" height="60" as="geometry" />
        </mxCell>
        <mxCell id="bvxB5P5gTHkeNItPRdx8-57" value="" style="shape=image;verticalLabelPosition=bottom;labelBackgroundColor=default;verticalAlign=top;aspect=fixed;imageAspect=0;image=data:image/png,iVBORw0KGgoAAAANSUhEUgAAAqQAAAFoCAYAAACBhOn7AAAMbWlDQ1BJQ0MgUHJvZmlsZQAASImVVwdYU8kWnluSkJAQIICAlNCbIFIDSAmhBZBeBBshCSSUGBOCir0sKrh2EQEbuiqi2FZA7NiVRbH3xYKKsi7qYkPlTUhA133leyff3PvnzJn/lMzk3gMA/QNPKs1DtQHIlxTIEsKDmaPT0pmkpwCBHzoYCrx4fLmUHRcXDaAM3P8u725AWyhXnZVc/5z/r6IrEMr5ACBjIc4UyPn5EB8HAK/iS2UFABCVeqvJBVIlng2xngwGCPEqJc5W4e1KnKnCh/ttkhI4EF8GQIPK48myAdC6B/XMQn425NH6DLGrRCCWAEAfBnEAX8QTQKyMfVh+/kQlLofYHtpLIYbxAFbmd5zZf+PPHOTn8bIHsSqvftEIEculebyp/2dp/rfk5ykGfNjCQRXJIhKU+cMa3sqdGKXEVIi7JJkxscpaQ/xBLFDVHQCUIlJEJKvsURO+nAPrBwwgdhXwQqIgNoE4TJIXE63WZ2aJw7gQw92CThEXcJMgNoR4oVAemqi22SibmKD2hdZnyThstf4cT9bvV+nrgSI3ma3mfyMSctX8mFaRKCkVYgrE1oXilBiItSB2kecmRqltRhaJODEDNjJFgjJ+a4gThJLwYBU/VpglC0tQ25fkywfyxTaKxNwYNd5XIEqKUNUHO8Xn9ccPc8EuCyXs5AEeoXx09EAuAmFIqCp37LlQkpyo5vkgLQhOUK3FKdK8OLU9binMC1fqLSH2kBcmqtfiKQVwc6r48SxpQVySKk68KIcXGaeKB18GogEHhAAmUMCRCSaCHCBu7Wrogt9UM2GAB2QgGwiBs1ozsCK1f0YCr4mgCPwBkRDIB9cF988KQSHUfxnUqq7OIKt/trB/RS54CnE+iAJ58Luif5Vk0FsKeAI14n9458HBh/HmwaGc//f6Ae03DRtqotUaxYBHJn3AkhhKDCFGEMOIDrgxHoD74dHwGgSHG87CfQby+GZPeEpoIzwiXCe0E25PEM+V/RDlKNAO+cPUtcj8vha4LeT0xINxf8gOmXED3Bg44x7QDxsPhJ49oZajjltZFeYP3H/L4LtfQ21HdiWj5CHkILL9jyu1HLU8B1mUtf6+PqpYMwfrzRmc+dE/57vqC+A96kdLbCG2HzuLncDOY4exBsDEjmGNWAt2RIkHd9eT/t014C2hP55cyCP+hz+e2qeyknLXWtdO18+quQLhlALlweNMlE6VibNFBUw2fDoImVwJ32UY083VzQ0A5bNG9ff1Nr7/GYIYtHzTzfsdAP9jfX19h77pIo8BsNcbHv+D33T2LAB0NAE4d5CvkBWqdLjyQoD/EnR40oyAGbAC9jAfN+AF/EAQCAWRIBYkgTQwHlZZBPe5DEwG08EcUAxKwTKwGlSADWAz2A52gX2gARwGJ8AZcBFcBtfBXbh7OsBL0A3egV4EQUgIDWEgRog5YoM4IW4ICwlAQpFoJAFJQzKQbESCKJDpyDykFFmBVCCbkBpkL3IQOYGcR9qQ28hDpBN5g3xCMZSK6qGmqC06HGWhbDQKTULHodnoJLQInY8uQcvRanQnWo+eQC+i19F29CXagwFMEzPALDBnjIVxsFgsHcvCZNhMrAQrw6qxOqwJ/s5XsXasC/uIE3EGzsSd4Q6OwJNxPj4Jn4kvxivw7Xg9fgq/ij/Eu/GvBBrBhOBE8CVwCaMJ2YTJhGJCGWEr4QDhNDxLHYR3RCLRgGhH9IZnMY2YQ5xGXExcR9xNPE5sIz4m9pBIJCOSE8mfFEvikQpIxaS1pJ2kY6QrpA7SBw1NDXMNN40wjXQNicZcjTKNHRpHNa5oPNPoJWuTbci+5FiygDyVvJS8hdxEvkTuIPdSdCh2FH9KEiWHModSTqmjnKbco7zV1NS01PTRjNcUa87WLNfco3lO86HmR6ou1ZHKoY6lKqhLqNuox6m3qW9pNJotLYiWTiugLaHV0E7SHtA+aDG0XLS4WgKtWVqVWvVaV7Re0cl0GzqbPp5eRC+j76dfondpk7VttTnaPO2Z2pXaB7VvavfoMHRG6MTq5Oss1tmhc17nuS5J11Y3VFegO193s+5J3ccMjGHF4DD4jHmMLYzTjA49op6dHlcvR69Ub5deq163vq6+h36K/hT9Sv0j+u0GmIGtAdcgz2CpwT6DGwafhpgOYQ8RDlk0pG7IlSHvDYcaBhkKDUsMdxteN/xkxDQKNco1Wm7UYHTfGDd2NI43nmy83vi0cddQvaF+Q/lDS4buG3rHBDVxNEkwmWay2aTFpMfUzDTcVGq61vSkaZeZgVmQWY7ZKrOjZp3mDPMAc7H5KvNj5i+Y+kw2M49ZzjzF7LYwsYiwUFhssmi16LW0s0y2nGu52/K+FcWKZZVltcqq2arb2tx6lPV061rrOzZkG5aNyGaNzVmb97Z2tqm2C2wbbJ/bGdpx7Yrsau3u2dPsA+0n2VfbX3MgOrAcch3WOVx2RB09HUWOlY6XnFAnLyex0zqntmGEYT7DJMOqh910pjqznQuda50fuhi4RLvMdWlweTXcenj68OXDzw7/6urpmue6xfXuCN0RkSPmjmga8cbN0Y3vVul2zZ3mHuY+y73R/bWHk4fQY73HLU+G5yjPBZ7Nnl+8vL1kXnVend7W3hneVd43WXqsONZi1jkfgk+wzyyfwz4ffb18C3z3+f7p5+yX67fD7/lIu5HCkVtGPva39Of5b/JvD2AGZARsDGgPtAjkBVYHPgqyChIEbQ16xnZg57B3sl8FuwbLgg8Ev+f4cmZwjodgIeEhJSGtobqhyaEVoQ/CLMOyw2rDusM9w6eFH48gRERFLI+4yTXl8rk13O5I78gZkaeiqFGJURVRj6Ido2XRTaPQUZGjVo66F2MTI4lpiAWx3NiVsffj7OImxR2KJ8bHxVfGP00YkTA94WwiI3FC4o7Ed0nBSUuT7ibbJyuSm1PoKWNTalLep4akrkhtHz189IzRF9OM08Rpjemk9JT0rek9Y0LHrB7TMdZzbPHYG+Psxk0Zd3688fi88Ucm0CfwJuzPIGSkZuzI+MyL5VXzejK5mVWZ3XwOfw3/pSBIsErQKfQXrhA+y/LPWpH1PNs/e2V2pyhQVCbqEnPEFeLXORE5G3Le58bmbsvty0vN252vkZ+Rf1CiK8mVnJpoNnHKxDapk7RY2j7Jd9LqSd2yKNlWOSIfJ28s0IMv9S0Ke8VPioeFAYWVhR8mp0zeP0VnimRKy1THqYumPisKK/plGj6NP615usX0OdMfzmDP2DQTmZk5s3mW1az5szpmh8/ePocyJ3fOb3Nd566Y+9e81HlN803nz57/+Kfwn2qLtYplxTcX+C3YsBBfKF7Yush90dpFX0sEJRdKXUvLSj8v5i++8POIn8t/7luStaR1qdfS9cuIyyTLbiwPXL59hc6KohWPV45aWb+Kuapk1V+rJ6w+X+ZRtmENZY1iTXt5dHnjWuu1y9Z+rhBVXK8MrtxdZVK1qOr9OsG6K+uD1tdtMN1QuuHTRvHGW5vCN9VX21aXbSZuLtz8dEvKlrO/sH6p2Wq8tXTrl22Sbe3bE7afqvGuqdlhsmNpLVqrqO3cOXbn5V0huxrrnOs27TbYXboH7FHsebE3Y++NfVH7mvez9tf9avNr1QHGgZJ6pH5qfXeDqKG9Ma2x7WDkweYmv6YDh1wObTtscbjyiP6RpUcpR+cf7TtWdKznuPR414nsE4+bJzTfPTn65LVT8adaT0edPncm7MzJs+yzx875nzt83vf8wQusCw0XvS7Wt3i2HPjN87cDrV6t9Ze8LzVe9rnc1Day7eiVwCsnroZcPXONe+3i9ZjrbTeSb9y6OfZm+y3Bree3826/vlN4p/fu7HuEeyX3te+XPTB5UP27w++7273ajzwMedjyKPHR3cf8xy+fyJ987pj/lPa07Jn5s5rnbs8Pd4Z1Xn4x5kXHS+nL3q7iP3T+qHpl/+rXP4P+bOke3d3xWva6783it0Zvt/3l8VdzT1zPg3f573rfl3ww+rD9I+vj2U+pn571Tv5M+lz+xeFL09eor/f68vv6pDwZr/9VAIMDzcoC4M02AGhpADBg30YZo+oF+wVR9a/9CPwnrOoX+8ULgDr4/h7fBd9ubgKwZwtsvyA/HfaqcTQAknwA6u4+ONQiz3J3U3FRYZ9CeNDX9xb2bKSVAHxZ1tfXW93X92UzDBb2jsclqh5UKUTYM2yM+ZKZnwn+jaj60+9y/PEOlBF4gB/v/wLn2JDQ/9dpQgAAAIplWElmTU0AKgAAAAgABAEaAAUAAAABAAAAPgEbAAUAAAABAAAARgEoAAMAAAABAAIAAIdpAAQAAAABAAAATgAAAAAAAACQAAAAAQAAAJAAAAABAAOShgAHAAAAEgAAAHigAgAEAAAAAQAAAqSgAwAEAAAAAQAAAWgAAAAAQVNDSUkAAABTY3JlZW5zaG90r2K33wAAAAlwSFlzAAAWJQAAFiUBSVIk8AAAAdZpVFh0WE1MOmNvbS5hZG9iZS54bXAAAAAAADx4OnhtcG1ldGEgeG1sbnM6eD0iYWRvYmU6bnM6bWV0YS8iIHg6eG1wdGs9IlhNUCBDb3JlIDYuMC4wIj4KICAgPHJkZjpSREYgeG1sbnM6cmRmPSJodHRwOi8vd3d3LnczLm9yZy8xOTk5LzAyLzIyLXJkZi1zeW50YXgtbnMjIj4KICAgICAgPHJkZjpEZXNjcmlwdGlvbiByZGY6YWJvdXQ9IiIKICAgICAgICAgICAgeG1sbnM6ZXhpZj0iaHR0cDovL25zLmFkb2JlLmNvbS9leGlmLzEuMC8iPgogICAgICAgICA8ZXhpZjpQaXhlbFlEaW1lbnNpb24+MzYwPC9leGlmOlBpeGVsWURpbWVuc2lvbj4KICAgICAgICAgPGV4aWY6UGl4ZWxYRGltZW5zaW9uPjY3NjwvZXhpZjpQaXhlbFhEaW1lbnNpb24+CiAgICAgICAgIDxleGlmOlVzZXJDb21tZW50PlNjcmVlbnNob3Q8L2V4aWY6VXNlckNvbW1lbnQ+CiAgICAgIDwvcmRmOkRlc2NyaXB0aW9uPgogICA8L3JkZjpSREY+CjwveDp4bXBtZXRhPgoM4P76AAAAHGlET1QAAAACAAAAAAAAALQAAAAoAAAAtAAAALQAANxmsuiBjgAAQABJREFUeAHsfQfAJkWRdn8LLLAoScUAkrw7MXtnAgOiYhYlCSIqnIoB9AwkMSNm9IyYiKIoCHLmgAHD6Rl+78wYASWKngQl7LLhr6eqn+rqmXl3lz1JUgM7XeHprpma6u76esI7t0y2MrFBOBflIlgmAspQa64yhg01SGq5rCyTWqxnTRIQDfT0CCGCtJ/+Zxxl/GX/y/EnjqZhxCSpZY6/Of/k/Mt5I/aYPuPoOXYhl4og849rP/+YY0I6GrbijO9XpREjfFMJxcvJsirJsnQcagyGjbTfMo7Ot8aM/NVh6GCW6X/1AN3BMuNP3GJD9Siesv9l/2PG340txozipcOwg7GsSrIss/+JY7L/ITpG8ZTjz01y/JlbtlSufP/nQxgmJFCgrgOTjyN1fInFSDcQDFitqrIJRRSl/fR/xh8nLU5fsecZHftM61wNN9KLSmUTiijK/pf9L/tf9j+MJHFcaCOLUSPdQDBgtZLKJhRRlOPPTWv88RXS6bDqQkMgy8lcrQHZWx3fx3VuYmb+9RPtARz5SNeGJkSsYyrZp/3RZZO/Mmb89TV0aOQjnf5XD0y4JOPPnOL77H/Z/wbTRo4/0jsmV5+HA0rkI53jb46/4oGJkKDQVLK/kY2/mpDGv0LshHC56yiiZ+anp3HA8aVJe4mC4g5AeG+yE4omrMKmfXWW+Cv9ryGkQaY77X+Q9dFmOsVO99AaUoLL+DM3DfbZ/9oqRI4/6E/YcvxRN+jwYmPMwDN1tDGdYnP8aXFjDmlugW9y/I1ecTrH3zb+2gqp9inrWE7CXZz53XWzCdTDplU6xuRxP1K70Tnr0iNArD1Nd1U6ZowfqSGY013apyvgtrz+8MJKbV1Mdcy4+kitoae7jD9xl3ZFuC3jbxw8MyRdTHXMuMJIraGnu4w/hN3IQWMfDiVdlY4ZIkd/8pgg5x94PuMPXlhB/IwjahBTK6g/UkNwA4m/OXmEFIu6YdOjq3w49CqOWoCMn6Fkq6JeJifc3vVjK6NHmb1FqwocNjnCGSZMPENplbVu2k//Z/yxp9f+Ip0qRoV1F+rAgcaW/S/Hny4MNCqws2ipMRNDxxEGyvE39jQ6Kvtf9IqFDH0DDjS2HH9uKuOPrJAulase/jLhnGWRoPsYIkG80mRXP8SYNWBa3XfA1vwMcQOsgOrqg8Hm52la3XdAg2E/Q9wAK6C6+mCwpX3zQ5zSOkdVtRQzxA2wAqqrn/43b2X81aix6NB9FygtqGaIG2AFVFcfDLb0v/kh+78Gg8ZIFyjVPVLMEDfACqiuPhhsGX/mh4w/DQaNkS5QqnukmCFugBVQXX0w2GbEX3upqatldXzPl2AEM/WMrOMmiNbs1F+DoUIDBmEl075cQLmC6f+MPwkD78vjnjKStG6V/W+8GhPc1RwVhJXM8SfHnxx/c/7J+fdan38nbtnHQRj09PS3vPFbU+razHT1Wnt5F1gngbSf/s/4Y1eKZfa/WT1DvATncJsMnxx/1Hs5/s6eYHP+qR1ssgMtf9Us+x9HnxmDVI4/s8Yfv2WvHqx+at60sb2FZHOkJpoTeKtrCqpZerudIDCBJLYXVY5ClgR7aQqqWQ7UlQ3aQBLbiypHIUuCvTQF1SwH6soGbSCJ7UWVo5AlwV6agmqWA3VlgzaQxPaiylHIkmAvTUE1y4G6skEbSGJ7UeUoZEmwl6agmuVAXdmgDSSxvahyFLIk2EtTUM1yoK5s0AaS2F5UOQpZEuylKahmOVBXNmgDSWwvqhyFLAn20hRUsxyoKxu0gSS2F1WOQpYEe2kKqlkO1JUN2kAS24sqRyFLgr00BdUsB+rKBm0gie1FlaOQJcFemoJqlgN1ZYM2kMT2ospRyJJgL01BNcuBurJBG0hie1HlKGRJsJemoJrlQF3ZoA0ksb2ochSyJNhLU1DNcqCubNAGktheVDkKWRLspSmoZjlQVzZoA0lsL6ochSwJ9tIUVLMcqCsbtIEkthdVjkKWBHtpCqpZDtSVDdpAEtuLKkchS4K9NAXVLAfqygZtIIntRZWjkCXBXpqCapYDdWWDNpDE9qLKUciSYC9NQTXLgbqyQStkWyGlnKXXHhMGmQ0ca4aSxjtFguXYrEsMMhs41gwljXeKBEu3NiYMMhs41gwljXeKBMuxWZcYZDZwrBlKGu8UCZZubUwYZDZwrBlKGu8UCZZjsy4xyGzgWDOUNN4pEizd2pgwyGzgWDOUNN4pEizHZl1ikNnAsWYoabxTJFi6tTFhkNnAsWYoabxTJFiOzbrEILOBY81Q0ninSLB0a2PCILOBY81Q0ninSLAcm3WJQWYDx5qhpPFOkWDp1saEQWYDx5qhpPFOkWA5NusSg8wGjjVDSeOdIsHSrY0Jg8wGjjVDSeOdIsFybNYlBpkNHGuGksY7RYKlWxsTBpkNHGuGksY7RYLl2KxLDDIbONYMJY13igRLtzYmDDIbONYMJY13igTLsVmXGGQ2cKwZShrvFAmWbm1MGGQ2cKwZShrvVCXaM6RulxCU2LA+KjQfHqXapOGOPBUsUXe8uVYJ5wKQMpTY0n76X2Ih48+7Ajsde4r1E3IsTTrcu1YJ5wKMMpTYsv9l/5NYyP7nXSH7n40MHCl6rpearu1dq4RzDeAPA0CHLcefm9L4U386dCowLBy4n0ZQypJoK9sHXwcvVAic45vF33T92No0glKWsYbYkOeA7Gfv0n73Qoe4K/1vQ13Gn/SZ+g26vvf03Iwehsryb4Y2+1+OP/ox9Bx/c/xtH93DcJHzT84/mDmG86+ukHbTiTNOoNpyNyL1OXCxwtIrVcCypUvLoqsXl8VLlpSlS5YW+QaqHA/+qxcHFYSxFxqblFOeKSC385inpXyyCt84FbF+UVUJa8NahUJaAKbWQ/1IN0sGSPvwb/OK+0odA3n6H164ruJvHqJVfL/a6quV1efNK2ussXqZJyU3Xin2O5bUh0vpokiwvsqccSJCJ2kiaZelgwlwQU90amec6METHJG0y9KhBLigJzq1M0704AmOSNpl6VACXNATndoZJ3rwBEck7bJ0KAEu6IlO7YwTPXiCI5J2WTqUABf0RKd2xokePMERSbssHUqAC3qiUzvjRA+e4IikXZYOJcAFPdGpnXGiB09wRNIuS4cS4IKe6NTOONGDJzgiaZelQwlwQU90amec6METHJG0y9KhBLigJzq1M0704AmOSNpl6VACXNATndoZJ3rwBEck7bJ0KAEu6IlO7YwTPXiCI5J2WTqUABf0RFSPbtmbMkIs+ahfKhVGdEhMVnpbVpbKp06vWrioLLz6akscMb9KffxbWkttTtrVVU3NSudVU5IaIaEUJCZm6Muc6GqCqZMtKqNNUeHIfUM14NVSPQ9ggK3StE/vwCHp/xtL/M2fv3pZe835cslaYipXcGKbHf8T4Jq7tjrAGFdlq9D/GWHaguzY/9L+2AOdr6u6k6X/dZwae26WxLwHrVKyy/hjjxz7rIu1qu5kGX8Zf9cw/2O0rUz/GySkFnoah0460YuFY2zSUM37ahhbsWjR4nLlVVdaouhJYyUAQeW6Iem1dUwRuFknNBAUISL4RBZctdTbITgYmZv1mNiglkg9a9qZ9mvSnv5XRyA+EF51u7HF37Klc2XB2muWNeavYaeDUJ/cQh+a1FMYcE46oaDIrUz/t5ZjLdqaKgPOSSfSvnggeiP9z/FfyuiYUWgtVxnQAeekExl/GX/Z/yQGOM1cG+PPICEdDHjBuPbGbmcdte+uHaAslFXRKxculBOYk5QQaaOmjnpRUW+e7HTxE2cIQS00Aa86G2gEAH1YArXUFS1WBwEiDJ2Ftril/RX7/+yzf1d+ccYvbfWgXo873/XOZdONNxGnpv9vyPG3zpprlvmyWrq8zfqJ9xY/nWGHaYja5WY2OmxxJlAVQ7Ty0VitHkWRHrdu2uVjWq0hWvmJylEU6dYSKdMuH0MsfdnQSjXWgVEUaQc4YdrlYxxcx8mGVqqxDoyiSDvACdMuH+PgtC+uCLNV9j/4YyJ4oijSLZJImXb5GGKz/w29pfyE86Io0s2TpEy7fAyxK+9/T0hnNzxK/di6WJtVa5k+K3rFlQsNowmOZTlobZ4kOHrrvT6FZ13VklW0WfOhejZaQ2RtlbPIypDlSEulRFuxBmgunVa5Fkan/Wn/f/BDHy5HHPE+vV7Va+WgA19cdt1lJ1yx9P8NPP4WrCVJqayU2jarX0JLHcsV1Vi1/o8+Pb3RLsu0Dw/03oieS/+3ZYwaU+4sJ6LDluvN5um+bs/F5tL/6X8saYUIcdKJGDAZf9FXA8+sqP9JQmq/Ze/13MdOuGpI9Ah2XNxKX1r+8pcrZLUNMtxJlxJJ4zy5rDVX1APTzKe2orSA9QEfkelqaB2AguFoM9Job5kkp3NMTqsSRdpfsf+P//AJ5d3vfk/1vzhN/H/QAftLQrpz8L5eNU810v8x7bp+4w895WY3X6esxmdKu4sjjPYrKYTEH3Nt64DhAg/krYJTPULOXyLDm+6UwqR9DZb0f8Zf9j8fQoToBorADuSxSqV7RI4/fw/jr6+QhkjQy90ub6NGMdFHhKsvv/KqcrW8wGQb/rbAGps9yXn6V75avnT66Zqg2l8dhpq/xhpl3XXXLXe6053Knbbaqmy62SZltXmra60u0cSMB7uytZzVhFT1h9Xbn6dJsshkgoz2+/OHRlZf61HfFOwfLyuk79YVUvMtrtnBBx4gCemOfaJPJ18L/j/yqGPLmWedpQdgUScrs3K95q+5Vtnolrcqd7nzncpWd7pjufVGGykmr79ELa6HpoHLyprSh9Zeey3tHipWL7XItn4R9xWgRd9rzP92sbuBbnYV1/QtpX36I3qeMnfa4Kql/xl1zRPNV5UaO1EVQzF5K+M+tkiUyZrVRkX0pKEK6FvK+Kc/oucpaz7tJc3rjWrYGY6eIWbLaR8zRfRC9Ci9ZLLm9UZFtNJ9FVcPxeStjHuvIoTJNSHlX+2dabbi0NBQ0GlDysvkJeVSWQK97K9X1FoiwIwpK6O6NCPSDxx5dDnq6GOFapvZZxIoiSLgsnC7i9wu3nffZ5eb3WxdSQ3xFCrWOi0RtQdQ0QZsQGj2dW6uE7Tpevu1hsHAyKbJqVZHEiqE/O93/aEXwd+7/Q/JCum7jjhCz5/+P/ig/eUa7HyNzn/vZ+xTrpQ/SOyiLCvryrU78ih5FAAXuW56uchISf8/81nPLj/+8U/9+uvjGGLd/I9S17rLhutvWPba+8ll9yc+say2Gt5kk0auw+v/O3ne9uCXvtTswrj8f//7b1Ne8PznWexoAOGgoLtu429dWSVtn4Sq9hHPy9n+lv1fT91tpX29/ul/j4gpIuOPwxeTcPESho8aN0aGfdDZGAOsgDs5PC0CjD8Zf3DGzC3jj+FzA4g/eZYTYTzepoLbI7umriNMKYvkJabL5WUmrIhqy9oZABSJLGl94P1Hl6OPOUa6yqCXoN8IDEjtQXpvf17ZYIP1y2te/Ypyv/vdR+tYrWZ/GZrVOrKTykxrZ9m3RNPqs5qWaMSMCyEMo1SEEKPddrn+/uzjlv0R736vnqud/9Jy0EFYIcUzpCt//vfb+gG+tszr/73vfFNasOu/PP/vs89zy49+/JPqfzzboVdxpv173u1u5ZWvelm5/e3lxSts19H1//nPf172evqz7G8iHKJs2277oPKWN73heo+/BfJy0xrykpP2CbtwcnROVDLwevQTuxEkClr8m6FYP/QTr+JE2ldXBH9E10V6BImC9L+OxdEl7ruMP5+n3D9OZP9TVwR/eNwMiBEkCrL/XVv9b3TLvne7pibdfGaXLaCUNB77y6+4sixevFgrSuOWnMjsqK8kCeD9skJ6tK6QitDvueL0BIsEROpoGoKcUNqbJ3/hyXOu5e3/fnjZ5oEPEB7BIBr5ixCTLvJWbUdbEBps3U3ZR5uqx36l7cOe2BKbf6/2Lzj//HKmrPzh7xP6/w7/8A/lthvdWmUre/733fqB1b9wmXXc73/3P/36L8//z3j2fuVHP/qx2weW119XAHjJ5Bh5/ddee0E56cQPlVvfWo4T1102vb6KHcff8uzPjj/Ya9f/Zz/7edn7Gc9SOzgUxNGDt922vPnNb7hO7C8v/tdYffVyswVr63FYD1JvqG9AtfOvEC9ME/VOO0FwEChpPPbYzCKohiPFEtp+M03UO+0EawSBksZjjy3tmx/S/y1OSLGkh1ppmqh32gmig0BJ47HHlvFnfsj4a3FCiiU91ErTRL3TThAdBEoajz22G3P82S17nkQ4Tz2zOvGDdpUTimi7Kr/sL5frLzAhsdQkQmuiAXHT3FK5ZX+M3LI/RgTCAyLZz3rrb1DWWbCgnHfueSr2Rr2NUtYW/ac/+XG5BXzz6bsQfmuiHojXBS9btW8GiBG55cByNDgeHJCibedt6KGaSiBuKkCbkG2jLTQGHoXQcv5/7/bvKyukeo7uu2Xle9/5z5U6/332eU750U+wQlo3aWPjTTYuV8gfOX+++GL3f3eNBLr11vcr73zbv5trGanBvrb2N/T/z844o/zr0/fhUWq57YO2LW85HAnp9Xv98QUL3LbnYfhB6mHVY6OShyogDXuqWcl9GJobYhzLRqpgiFOewlr2RTDCNgSgfSio2ATtshzKJ3kKa9kXwUjaVw/k9c/4y/5nXUH2k2NkHSo4pJKd5nP8MS/2Ay+9Ap+1FdIw+LhThSCYZdSRbrpl5VJJSLUpqQm5bnIlVSaC9x91dDlGVkhNZzUPeclBZacn7CAf0F9YfvmLX5ZDX/u6cu5552sAKAL1JZd7ycHy1vfOO+mqK1bfkETCirUCS0JJB1q6pJSL/nBBOf/CP5Rb3eqW5Xa3u608V7eaL4hqYOmBoaauB9YDjBq2rk3q8V/+18vLb3/zm3K7TTYpt7rlLWbaR/JpR6ZG9Brw/C+7/K/l97ISiY+Zb7H5ZvKpnrXsuAf+b2fX7GNswKIunnRdJif55z9fXP5w0R/kV7AWlvXkhbD11lu3bLD++mX11eUXfKpf9AikHu33yfQ1O/9oH+3zLNGKeW5ZwQopfBrtf09WSFfG/j7P3rf8+Ec/0dydbZ740Q+XLbfcvFz850vLd777nfLqVx+mlnGtm/1l5aMnHF/+4Q5bVmdRo2evB4dfC/vrX/5aLr300nKxJLf4+dqb3/xm4rf1y0Yb3XKlrj/P/6c/t4SUVhCBWCF9y5tfP9P+8s5/0dWLyqVyTH++5JJyuRzj/LXWKjeXP7w22uhWZS15SQl2GR68/rP8j19uWk/Oa7ipP+lUVwYBDbjOCCJYDtTKNl2jhjjVjNRBkPYtdgaOo4dYDtTpf/FA802jhn5SzUgdBBl/GX8YaAcbI4TlQK1s0zVqiFPNSB0EGX8afy0hjR4Mfhp4PKKEHgJLufiyv9TkRNS4voBgq7S+1HSUJKTyVfx58gAoJnNNSHd6fMXOlcskaXi6vODy+9+dY3WlDcTKHbf6p3L8cVhdxYYp2b5DqhmMcJ///BfLqZ/8VPnRD39EiNvf6o7/VB71qEeU3XeTF2EkOY32a3PlgAMPKb/97ZlSRwxKngrcccccVX7wg/8uJ530sfL//ud/6rMHRZKFW5cdHvfoss8+z5B3tiypRYJiPwBg5nnOf/zTn8p73vv+8v3v/6BcdNFFeky0v/kWm0ky86DyjGfsXdacv6ZUlBOt9nlecmqWlIjq17/8TTn2+OPLl798umAlSxfH4FNX8CPtbyMrhve5973KbrvtUtu0ZtGOHpNU2+NpTysLr1io9URqcuiD/ec++1nlEQ/fXo9Xk6J6DYEC7ounnVbe94EjRW8K2D/nvPPURIVo3Y03vp2yvhM7626wbjn+6KM7+/YM6U/D+ZdykiSkW2y+eXf+ez5tb2kKNtv5P/WpTy7P32/fzv9/keT/e9/5fvnmf36rfO3r35CVVrxsJ5vYp//htw022KBs//CHlr2f+hT5A0be4B/4/+1vf1f5xje/aacpJq+48kpJai+Rhpp9tLPJxht39nGID37Qg8oLX/B8O9zg/1/8+pflO9/+bvnq6V8rv/jlr5oeldx+KfeW6/j4xz22POqRD5eYhE7PQHbj+Of132DdmxM0XeL8JbMFfnLjcVI55CnXg+nbmAn1OkKk/fR/xl/2vxx/4qjY6OEgOuQdOVaMJQ5uhIBuqON/n5DqgdrcqEePiXHirwY/s3D2Ri4rl1z2V5u4UZV6LSGQFdIPHFOOPuo4VepqndhAQrrzjvJ5IaG5gnfqqZ8ob3rT4cLXFcxq9GtfPa0skNv3mAZxeCAuu/Sy8vo3H16++uWvyuHKRK1KAEQttOHM/l3uctfy6pe/vGy2+e3NFtqQDZPzbk/aU56jPFvbVplUfNOb31gOOvgQxeiutq2F1H3kox5eXvGyl+qKJwyiHdrH+X/rW98uL3vFqyWJuVyPVd8otxOv9u0A/vEf/rG89jWvLpvLaiDaxiYXRzDt/D/y0ZPK29/5Ljsv0fP80TASIuDj+Z984kfkPDdVvF4M9YUcodi/7zYP6OzjOwLR/7B/8AEvKrvsuissgbUtnP/Jp5xa3vwWuVU+wz6qDf3P81+wztrl9NNP08NCw/DbM+WW/Q/lln08/xPlHLaQpN03Ub70Za8sX5FrHc//TnfeSv54+IC2Q/9/9CMnlne8893d9ad9GLbLYOeG81977bXL29/x1nLPu99NzdH/h7zs5eUrXzndDiGcf7Q/5X+c//bbP6S8/rWHyQkKI3Vpf2X8T/vw/0Mfsl15w+sPk0dc0Ig21Z0/7EMBP67PhBSierx0tCKqnGo7Ma1uPqEAJ3gN+78ZrA3QgJbY1SOscqorWs9LrwkFaT/9n/HH3jAuQwcyMgiAJqsldtn/cvzD/C+BYNOITg8aGBYc1/v4L3OejPoMXD+yFssmCoBABriTl8gKadtsNkQVriF+4Mgj5RnS42yerG0dcvDBZaeddzCjtfIlskr6iEc+VjnN5mWmwmR17AfeX+56t7vYvCf1r7rqqrLHnk8r54Vb/NG+pWqE2/Egof30J06RW7brVoXIZcV29yc9pZx11tlmU/ZAY4v2/TFQU+n+GU/fuzz7Wc+0cwry07705fIKSUbpMnQGnqRSrhBOf0e1lJNPkiRys029DpqD/f/3/f8u+z7/Be0x1GCHZGvdJCef9FFpSxJvYel/2r+f3Fr3hAqOrfbZFuocrL/UJJ99Evu6CiswP3+hT0FCejgSUtuG9uHBKf8DjWeGT//KaZ3/21v2dpRoDyukm2+5WWf/W9/+dnnR/geZ0bD/zre+XuattppLkMC/4x3vcl+ujP+xkn7csUdr4gf72F4if8B89ctf0/jz8zdVt586/+0ftl153esOWyX/0z79/5a3vLFs+wB5JAKKsTEXeULaHd0E4/FX2wsQqkwUuEAG+KqRbItlaKUXBS6QAb5qJNtiGVrpRYELZICvGsm2WIZWelHgAhngq0ayLZahlV4UuEAG+KqRbItlaKUXBS6QAb5qJNtiGVrpRYELZICvGsm2WIZWelHgAhngq0ayLZahlV4UuEAG+KqRbItlaKUXBS6QAb5qJNtiGVrpRYELZICvGsm2WIZWelHgAhngq0ayLZahlV4UuEAG+KqRbIultGIJ6ai5gKBuQqQqlTflxZdKQip/1eK7nfWrniEhKOVIecse3yHVlRBUk01v2e8ot+xls3nW2nvc43e2W9yQiwhvub/2sFeVR8pt5Fq1HHfch8t734fPFdXp26qWLWVVbYsttywXXHBh+Zk888f5u6LKbrvvWg540QvVZq1Sdt/jKeVsSUh1tUtq0IYelzCwL/vuGHEi66yzVvn85z5d1pJn/yzJmyuLrrqiPH6n3fR5RbbPEu3F84ec66C4fX84nkXk+QAs2ytfeWj5wmlfFqrZx2MD9733feQZy03LJbJKfPbvfi+J6w9kNfYKPfqPaULaktto/z7byNvwEGiLzb6dIWzMlQNrQuqg7vxL+Y9PfKq84Q2Hy+UODypUI5aImrdplyXaW3udBeXrSEhlo3yfZz1XvkMqz5DqOZr/9Zb9FptXkB3dhRdeWB6/4y5SU3hxJO1/+pOnyqMUcsu9xt8JWFF+h6yQGrLc4R/uUDaXZH/j292uXLHwKrmd/73y+9+fo3r6HxZe/7rXlIc97KFC2fZy+aPiS+L7Wdef9hVdjfH88cjDYYe9GkfqxwFc9D9e2LurfPR/E3mB6xYbbljO+OUvy7e/9V+K1zZlh2t1ezn2j534YXmUxL7Hq7pw/uARfxush1v2POtGNUmTaRujXURW5YRINSoPSied8CNpkrQffTFyv3ssaGZVUHlQOumEt9Yk6f/oi+DlSk5oJ0QKVnlQOulE+l8cNRz/mnfG3p+MzlkVVB6UTjqR/r8R+V8S0qWyRopJ3QKjXcYWKJSxhIY0S6K5Qgq5vdoiz9lpOKKQ75DKLXv7MD5rLpOXlQ4uu8gzpJBg0setSmx4k/nnP/8FntST45M0RcQvxQtQkrwC8Sd5NvMxj9tRWme4o1Yph8p3Sx/1qEe6/R/Jx9Zf8ML97bY5MkHdlsnq2wkFt4Nx/rgTupskpPj0Ee0bcq48+rGPkp/RfFFZY4355eSTT+mSHBwH7L/yFS8pj3usreii+WOO+2B5//uOkuPsz/8d8jb41ve7r3wa6+py4kmnlHe9+wi3j7Zw/u979zvKve71L3pWaB0t7PCEncof/nBRlZn/P4METD53pNeu+gwrxp/73BfK0WL/A+89omy88W2ldj1nZDX1/PHzrlgcR0s4/xNO+Eg5Qp5zjf63FdJdOv8376HqsrJE2jH/23lu84AHi8KOj9f/v771DZVpVlXt49EC+4C72Yf/nykJ6Q9/Ih/Gr+cCW7hGm22xuV9/yPAM54Mf8nA9K5yB2cf1lOdNBYsN8hMlIT3u+A/pz5/usMNjy21ug+dDeQYKK6d/7WvySMbL/fFMnP9Oj9+hvPSQg6rX5spieSGqlCU4XZWdccYvyr8+89md/Qc98P7lzW/CHxK2yVlJ/EmaK+b8Q/XB//gawdZbb12euOtOZZuttylrrC7PNUtV+n+hvKj2nOc+bxT/n5KV/dve5jaKxZnonw5KoLZt/Qop5DznSBNt/tcYEtE0wlqIOtIs2dq4jIhIE5n2/5bjL73ayujzSBOR/k//ywhah4jpCMn+b2PteCSd8hd7lpUREWmisv/F/idzf539ORWpz6LjKu0iJ+jRrsQzpDatSRGvoiYCy/Q7pPqWvTQDERKRQw4+qOy4o9yyRwVt3mwcIM9ufuMbSGakw0i+g8n33/7tueWpez5ZoR/68EfLO9+FXxcSXT2sJz5x13Lg/rbyaQpr9iMfwWqZ3b6VNEHxB8gK4O5PlJU2qYz/dt/jqeWsM8+Wtmtj0vCmm26iSdFqc3IrWHvtUvkY+2vkhZ4vmU1rXh4veHg57NBXVW5ZeeSjdygXX3IxDlqPVT6yWg499OWaKON4Icf5v/nwt5ZTP/4fal+BIn/ko2RV7dBXW73awP3uK7fYcULiCCRgC2SF8fgPHlNuL2/824ZWaQxBLuj6vKH5wfREAGr+F7lgP8ifDlWAoQ466MX6YXw9EM030UZNQK1atY3C2r/v1g9SjPImKnjLXo2J0Vn2odnnWfvKd0h/IlUrSuqf9NEPSZK5hb4/RP/j/O8rK7x6zWlZqhwjz5De9S7yOIdaQeJ6hSR6a9jzvTX+hvYB3RptaR0xqPx9yzvfLo8i4PgpD+d/hvyRhF+kivYfJC8v2WefUAlWZCOppTG0f8nFl5b1NlhP4l/k0lC0z/P/qLxI97a3v0MbYvwfdeQR5R53v7u2TftqKxhbf93xW/aG8bNRAi7BUdlWj0wLHiU0UR54q3SN996yEGk//Z/xxy4U+5n3ElFGObBRx7orX3ptIbL/Zf+7ofW/kJD2Qe2BS/EggDEZ9n9VWQ1dIQWJZAgrS5Jc6CpObUffspdfarI3wyGck1v2B+qqp0LgIekpqHXIIfLs3ulfM7E0tVTafP5+zylPe8qeMofPlTe88U3lE/JWPdqfh9vGInvbW99c/vme95QmUAHd1+z/Sm6DPne/f9O2cEyw/6Qn7VZe9MIXwKDKecsex8Sb0C/4t+eVJz/5SfqIJezjyPC2/L77vVDO3+rB/j/f4y7yK1TyE5myXXH5FWW77R/ZnT+emTztC5+RzzzNV5/w/H/9m9+WPZ+yl9bDDqe/1R3vWI77oDzHWKWw8pQ99yq/OvNMtY/Dtb8qlpUdn/B4/ZWgf/nnu8nLXjURQYUZ/tcm6/kDZhaXleM/dIL8lv17q007f3+GVFB4xJTn3+yjvvmX/tfPPg3sf/c73/JzQQ36P9qHmLfscUz0vz5DusXmI/v3ud+DOv/D/pHi/7vjhaSB/bPkUQa8BHXhH/5Q/vTHP5UL5JNgV/z1SoXBrn75AIRs8Pnt5G35Uz9+kh+zNic7nv/Pf3ZG2etf5cP44fpv9+AHlMPf9EZtY2g/xr8Cqv8XLlpkb9n/4pfloj/+sfzxoj+WP/3v/5bFVy/R87/8r3/1LwPAFOy/EY8TPPQh9fqjtd7/kKx/c7llr/1IGKk4sq8HyOhCjfGGc+4QIpAu47JZ/V9bYmUt0376H+Nm3BggUdbTI4QIMv6y/zGOcvyRWKjOsL4SegxJLW9c468npKPDjle8HyuUG+Erxm7ZwxNYh9RlJdWo70T8fvnUz1FHHlt7lnrMVkh3shVSd7Iks7hl+T/yyz0y+9bW5UUbWbXbZWf8vvqy8mz5buUPsaI22jAF4Dm7sX381CjF99/mfuXtb3ur1kZ7WCHFM6Q6eop93FY+8sj3lrvd7W7dgHr55ZeX7R72CF3d4qHh2cXPfOpUbevXv/lNecpT/rWzv638ytRbD3+TfG5IPKGHhXOy80cS1/lTIN+R29z6rKAcA1Y7j5BkEUkjN+Cxukb7kN9ZnkN8zKMfJW9kP7jc8pa3EsnU+Y/toy5WSI84whJqnr/+lv2uu6h9vX4A1m3KPlT2HdLe//gwvtaX0506f9RDe1ghxTOktA//n3jiCWVz+V5rtL/o6qvLAx603ej8P3LCB+VbpHfQ1hB/v/3tb+SRiPeWb//Xd4J9UbtbzP+079OmGPvut79p7Vf/R/s/l2eS93r6Mzv7+tOh9Zea7LqGQBMD8fyXLl5WTvjICeXoY4/Tj/5P2ccfc/bFBKkZLvKB8ujIE3FNJq4/2sFmK6Sw2M5PFWRZBj3a8/MHGDbl3GdtI3wHpAGWVUmWZdoXx5iPR/5M/2f8Zf/rRpXIjPpLVPq44gONacmydBxGyhz/bgjj/xweIa1jol9Sv14i0Vu/tWNEuYMrQZ0mpBhjZdLHF4tsLpXESS94kV9qspeaMBCrTCoeIs/r7bzjE5RHc2xr1933KL87+/c1MUBbc/K79i8vj5bnQ7E9RJLCy2U1EhvqIAVAqeczaZ8tG+h28nzlJ075mOJxMXbbY095y/4saaNeGjmPUz4mb6rf3j4RpauSZkETL7jFzs/sfvfb39DnBb8u36w88IBDuvPfeecdy0sO2h+G69bOH+d5zu/PlZZxfOapz3/mk+WWt7qFfADfEs+/yEf5d37iHuWSi/+MRS9bLRjYj+f/spe8RB6DeNzI/7Qe/Q9/fehDHynvOuI9bl9E8lv2kvzvtFPnfxw1t+H5o44mpCCC/78nK6R2VqyJsp0/7MPjz3yW/FLTj38s2Ob/E0/4ULnDllvo+dL//uyw1Iv+/9SpJ5fbyo8goD3482l7P73GR7Wlx46Dwza2H/3/ffy6FNqv/sfqDO1jhRS37OP5P0heRnsrE1KYCOfvttRukST5PQWPm6hPakjijKN9PcoJ+3qH4Kl7akvRfm1G5foMaRSIdMAqTmUTiii6pv1fG8YuNjJmFZb2JTIGfhq6Lv0vowECXbYJV6l8UjcAD1itp7IJRRSl/9P/GX/XXf/zFVLr2bErDrv5UCf6CdHFl10mU6t98F5vacqzk5qYanNYcTyqfOAouWWPlUKpj1N9CV5U0g/jW4OYnPHrNVgFUwRAmnnMlSPe9Y5yn/vcSwSS/NyvfgIHDNqSgYvv9ltLspdMItrHtK85uNjfSD6CjlVNfZFE5LvLd0jPOut3Yr0lB6d+/GP69jPtU+e3pu1aqX2sas6tPle++c1vl/0PPFhbof1d5VnVA1/8YpXRPo4Z225PxsrsWX6OsPEp+ZnUW98aq5xioJ7///7vxfJW+5vlQ+/yy0eoiF2wPzz/V73ikPK4xzx25vnTPs7/Q3iGVBIlNMhzPOjAF8kzpLu4/aiD+c5+rXnvre9f6wMtByj+//73eLzW8vD86X/96VB5AY32YUBfPNtycyHtZKH7yc9+Vp4uvyXf2Rf1N07/SllzAX6lal551aGHyQ8lfF7tT11/fFoLv2o1J2+s/xA/pFB9zHP87ne+2U5woPvZz+W37PHTocH/28ozpG89/I01/mbH/7nnnFN22nX3Lv7RDO1vsMGG5Za3uEVZ52brlPPPP18eJ/ij60Dg4//4EQDdgn1rwuJ/A/nVLlPJHpk0Y8RqiUzkdZKnyMpBg/EEO7rWGsJVbELfp/30f8bfoJtJ78j+1/skjB1NEQeYSFfEhIiDsqlkn+PPjWr80YQ0/hVoFxQXvI4iemX98mokcHxp0ibRl5rAitIK2WsyAcGcJKNHy4fxjxV1lcuy3ksOOlBW4rBCihpYWpLk4pvfKgdglVHq4ld1ZCd6+TWmz35KbkdvqO0/VVbAfiXP31k9VFsmzxDevdwMHwafYR9t6wqjEBvJCiRWZ7kKthteajrrTLWvOwnmY458X7nr3e/s9uGAK+WTTttt9wiN9Xk4PmkLv/Zz2uftedYz5Jj22vsZMGXHJpjttnuQvIX9Bmtbjs0JAT14u4eXq+TN8Xj+39FbxvIildS1b4Ta+aPmueeeW06TzxB9/wc/KP8jvyIVzx/tog+KsGwox/QpeRN//hprmACDYNU5ITzO/8Mfxgopbtmb/6E/6AD7qdahfR1LpX3Y4fkDj3QILzXRvpmaK9/7r5rcLcc+Hj94Jl5q+nFNDnGg0tBJH5GXmu6wmdDt/N8hPw6Al9Si/U033bR8/GMnqC/wpYFtt9seLZhv4EOh8EWCQw99hTzvew/9KVnIlixZXLa+/4NtFVhr2PljVVcNTPj/jDMkIZVnSKP9bbfdVlZIX2f2zPDIPuLfvr5wZDsu3EUQ/+/9tKeU3XffzWIb9aW2ftLsPe/r4v95+z237PU0WSGd4X/EQv+WvZ667fTCoe1++1v2f4urvn0cqx5w2h84xtj0v0Stx4YGizhGO4GGDZeRBxoNK/2jl9gqGTk5409cIk5wH/ceyvjL+Luh9D9bIUWHrfeOnETM1jGhD99pTvu8qC697C8S+zYj43lNvyVVAbhlf+TRxwoSn8XBcCIvNR0sLzXph/GNL/IpoRcfcHDBB9B1k+bwEtAGG6xfvvD5T+thod6rDn2NrILJr/0ICC/BYDv+2KPKnba6k1BIZMf2geGx2unJviYduz/pqeVMrJBqAiNAUR0kb+LvsuvOknjh2KzmT+S28jOetZ81LnK0s5X+UtCRSl8mXxrY/uGP6uxjNRaf7MEngKL988+/sOy4k/wakibddv5byjOTWBk058nhiYFoH/Zw/tAvvGqRPnf5mc99vnzu819Q+9H/J8kt7y3vsEU76Rnnf/wJWCGV5Eda4PnbW/byvO5y7EOJ46H/8cH9aB/X396yF1Dd4vmrk6v/99lHngnGCmnwv30Yf3M//yuvvKo85rGPL5dfcWXn/8ft8Jjy8pfJHzBi45xzzpNrtnvnfzj9PfI5LfwUZ7R/0UV/Ko/bYcfO/7CvCakG79j/Z8gK6V5Pf3Zn/4HbPlB+y/4NI/8P4//Qw15XPvNZWbmVo2D83/Med5fPob1bDTX/ywtMhx9e8ItlaBTxjzr7ISGVW/a8/kP/A6UvNUlpBwOi3+L5qwaCeqBOQoHGVnLr2uyYcQMjtRtF/NdDQbW0P3beDEnn044ZVxip3enpf3cF3JbxNw6eGZIupjpmXGGkdqdn/Lkr4LabYPzNye1Tnepa2KhLKhtCp4qjFiDjm/KSv0hCWjc0rPOcqLHKiUnVniE9RhSW+OAjQvptUVkhRWK4aNHC8oY3vaV89rOfYzNSSkPSxtOfvld59nOeJcmJpYZHH3Nced/7j5Kmmn28Ef/CFzxP607ZhwIvO/33f/9QP0Y+f6217brL8egt+7PPEgAiAW3ijfd/Kh88Th4xAAqHIbg3veFN5dRPfEr1yJ1gHx9Sf8NrD1MMFA95qDzfeqU83wq9/Fsq5//Of39r2WabrU2AFqXye99/dDlGXm7Rv161MWnrodKW/LoPj0EbxeFU+zx/kehR1m5cXvUquU39xS9CDKiextve8ubygPvf3/1vSmsM9uF/YI+XFVK9ZY+DreePZHzXXXa21lbCPg4GL3vhN+NpH7JTTz6xbLzpxnr9Z9nH+est+5/gJTatrVD7tugWeqJ4E33/g15SV8VVrX9LwP/vesfbyv3ue1898d/+9szy5D2f5s3Q//9x8kny+IV8JgsCnLec/ymnflJ+HvYtworN6n9UxItYalTNQKdVRDVXfi8vvj1RHu/AplWkPdxq//xnPiW/FIVjtw2noaakLuP/pS9/Zfnyl7+i9uj/xz320eVVr3x5bQxge2RlB/lhiIsvlk+HwZvV/n7P27fs/ZQnKwsrJq7KWkytkOqvPelVabVQWxNgiHyrjSgPGluzH7XQGF+lQyUA2ESe9qOn6aj0f/SKB0sXp5Bm/NWOxsJcJXuLpBpPDCvXVkLk2f9ipNFR2f+iVyxa6BtwoLFdd/1P5kS5XygG9TDisdiR6H6GOCAayQ/jUyKnIkmPnpKKjvwAVkiPEwFaxbZMPxC+xRZblN/JRI+XWi6XhAY1cFRIAHBLAeuKH5dP8WyysSQUdfvpT39ani6/f46Dhx0kByAOPODF8jmkHeRD9muonPYXyWd28Is7x8sLJWedfZasPp2kv9pjlop8Bkp+qenss9GcNkT7T9lzj/K8fZ9TVlttXvnCF+XnQF/5akXoTg2X8iJJgvfY40kuf8tb314+Jh/Rj+eP2/pHysfqb7/ZZprEfkOeBT1AVoJx0HroOA+p8NrXHloevv32IjcBzus1shq8+hqrl53lJaM73Wkrt6MGABPJkUcdq49ENGUpb5fPYG3zADzXaRvcrkkoCBHq7RohPihv8B8hb6RrXqbQOfnpUPyWPd6yB1RCV/GxdaHRcLUvhT5bibfQuUG9o7zQhVvS+KD7LPuo+6x95JeafvIT9QUahs2ddtlJj/Es+TzWj6ADMG5iAKvP+ClYPA+K7SpZRd32IfCfHR6v/4tf9IKyx25P9PO/9NJLy55P3Vuf00Sz6hKco9C6QqonJkchgnj+SLi3kz84dAvnf7A8erL9wx9a1sVnl+oGNe1DNBX/CxasU774xc+WNeWbqepPwX30xJPL2+UbpDH+cQH22/e55Wn1pSa0p3g9PjtuiIYJqZ4bFNjAYMOB6WZa3XdA6q2Kw5t4pamuWTDYvEHT6r4DGgz7GeIGWAHV1QeDLe2bH6p31Uedo6paihniBlgB1dUHgy39b35I/2swaIx0gVLdI8UMcQOsgOrqg8GW8Wd+uIHFnySkdYrvrlo9VhY6I8sVFIyu+lA+UV4qt6uXysyOyR2bNYurLzd1ZULFhHyU3rJXte6g1aNQordhOvkElKyMPn3vvYJ9A7/2tW8on/rMZ6WFWhltCbnh+hvI90jvUW5xy1vIKtMl+tLQr/Edz3pcMIxvTW4i35w0G6Xsvqf8lv1vzw42aqtycAvWWUcaLrrqCbzbsxMsXz7t82Vd/GSj8LB/yZ8vkWRqN02ukVrJg4KySiaU6LHqunjJkvIbSbK8pdoOPux+1FHvq880yp1kAeASHXDwS8s3vv5Nbfsu8nmne97jnvo79evefN3yZ3nz/owzfim3guEHs8/zPOWUE8umm9xepOb/c885tzx33/o9VkXbmeBXoOjCeI1vLZ+z0hCpmSp0eCziFvLijVjSFuzQRSFGX/qyV5YvfeWr7mfXyfmvf4sNy3wkXbJtKI9f4MP+2KSmXv99nv1c/TB+tG86aSXYh6wdbCnve9+7y7/88z+rffp/5513K+edd74eIf2/trwo9K9Pe6r8AXQ/fWHoXe96TzlPXhyi/Xj+eMsex07/D+1v99BHykrw5eYCPSBtRY/sVrfeyM8fzw4f8OIXi9z8jz+I8FOkcUPNBz7gAfLYyhMkmVyvfPXrX9dneoGxY2vnv9/z7Ja9n79g3Mfif9yFWC98GN90aGlqNQDyujUgJa28Bv2/VTKqNZv25ero9Rz6SPnmqLE6/S/hLj1BfBTHhrGjxpLm1oy/jL/sf5hPJrfWUcbq63D8mbhlX49HDwL09CnMOv7L/nK5PAKKNSFsUlczIwQCBgR+9gmJSBxgYEO0sQj2Hyu3NF/x0pfI7VB5yUdAaIurTpfILc0dd9ndPiDOg0JJ5MC+aQx46imyQiq/H25hKm/ZP1kS0jPPtsMI9q0tPUKtjsOkfQieiDfo93+R6nRX7X/0o/JLO+98p4ja+RuoHqgUNsC2Ez/myPeXu95Vfm1oYP/Agw4pX/8GXg4yN0X71qbsa7NaCnuXO9+5HHvsB7QG/W8f4n+ayoAb2odMj2Zgvx6h1Cv6LOytsdqpXL/DNz9f+MIDVKhnPcP/WBX8mvyWfbTPhHRF9qHn+eNTWjvvvFN/EHIOJ59yannLW94m7ZtTeP4GNNnyzv+7eBFLT9DOUo+pnVV513vku7DHy3O+cavN0v84/4duv508fvFaoSz+8Q1bxNlFf5C35wUfz1/tiUxtzfD/8+Qt+73kLXuefzQPep58UmBdSbx9s8N31ojh+Q/UYAf2hwie6lCuPJTc0j49Ecr0v0a5uMHiP7iGZMZfN/7QLSyz/1X30CGxzPGneeNGNv76LXs9g4ko70WVo5BlO3192WTxkqtlPsMUbCtMbfKck58OPUresj+OS08SVYLCqIStksbNlQ03XF+eK3ym3KaW50t1w617uXkvg5VWETz+cP7lr35VXve6N5Zf/PJXisIzhbPsuxFZ+jpVVg832eR2bn93uWV/ptyyp32089znPqe8B286S8s4I/2kFQdLEd7jHneTn4x8Y1lvvfXsEIGr9pfI0xAnfvTE8vb686ZoIdq3Sd9OeoH8ktPrX/uass39t67tiCVpBw9UYDtAEtJvys+oDu1rkwbxPeyvvfY65dhjjix4QSr6/1f4aP+ee6+U/9GOPdChRy2m7Pw/8R8nl9vc9jYqhP+H2ytf/eryhS98WX2GFcZon+e/4GYLJCGV513FBq//PnLL/odyWz76f8o+rv9WW/1Twa9o3ete/zI0r/5fskR+OGHf55cfyyedpuzXpc9y17vdufz0Jz+3NuqhwD5+XSr6nwDG319ldXSvvZ8pL1CdM2mf8ffwhz1EYvMwPyekpd//3g/K814gP2+rcdTOHw5rE/Rc2XLLzcpv+QeSWIH/n7/ffuWpeIa0htLQ/2usvnpZZ8FaFe0RV+3XQxU7TRCYQFakXsN2iSuAOJYEe2kKqlkO1JUN2kAS24sqRyFLgr00BdUsB+rKBm0gie1FlaOQJcFemoJqlgN1ZYM2kMT2ospRyJJgL01BNcuBurJBG0hie1HlKGRJsJemoJrlQF3ZoA0ksb2ochSyJNhLU1DNcqCubNAGktheVDkKWRLspSmoZjlQVzZoA0lsL6ochSwJ9tIUVLMcqCsbtIEkthdVjkKWBHtpCqpZDtSVDdpAEtuLKkchS4K9NAXVLAfqygZtIIntRZWjkCXBXpqCapYDdWWDNpDE9qLKUciSYC9NQTXLgbqyQRtIYntR5ShkSbCXpqCa5UBd2aAVsq2QUs7Sa48Jg0wDFy5cVK6Qf0hmdNOiYY86Cs85HiUqm+YwcQO7YO0F8rmmm5WN5BeGkOTdUz7N8wBJzlZbY77lDjI11ha1WU13ZTbGLUq5GVqWyi3wUz/xSbndfazcwr5Y2jTzVqnZR+K3/fYPKfhuJH6pabXV8d1K0cv/vGWvhyY82vjiFz6n37N8v3wdAM8OYrPWlpVHy68ivezgg8saa6EN2bDTpuycIAJ/xhlnyM+cHu4JM1tQtRz/gx/8wPKSAw8ot9xIboO37Embw/OeSOr+81vfKl/56tfkywP/ZeeHhnH+8p1XWwVEa7btscfu5Um771pue9vbmql6xNCeddbZ8otUeCHHHET/KyRmj9a8HI7Zj97/zKf/Q57bvKXZr/4fnv9P5OWkT3zy0/KJqvPKH/94kdw+v8AOTvdyvbFC+lVZIZX26f9n7btf+eF/188+Bfs3W7B2WV9u8d9efqAAPw2KN+Xvefe7Ltc+Ygq/6HSirFK/+4j3+PnaQUjjYvXxOzy2HLD//uUJO+1SLv6zvDwUzp+/LhXPH7W44ZiXyJ2A07/y9fLFr3xZf/bzggsu1JeQtHVzb3mEPAv82sNeJdWqQBtYVn7969+WNx/+VvmlMfmqgCbloqj2N5Jb/oe++hXlDxf+obzqNa/z+EdVvLCHZ5XVZyH+6f+1569Z5q9Z41FtYWfn62zgXUOCZQOPKIPMBo41Q0njnSLBcmS1CQwyGzjWDCWNd4oEy2ZuRBlkNnCsGUoa7xQJliOrTWCQ2cCxZihpvFMkWDZzI8ogs4FjzVDSeKdIsBxZbQKDzAaONUNJ450iwbKZG1EGmQ0ca4aSxjtFguXIahMYZDZwrBlKGu8UCZbN3IgyyGzgWDOUNN4pEixHVpvAILOBY81Q0ninSLBs5kaUQWYDx5qhpPFOkWA5stoEBpkNHGuGksY7RYJlMzeiDDIbONYMJY13qhLtGVI3SwhKbJjqhJbEgyTnViIVVie5pUuXlMv+ai8l1WzI1LrHNCqrnNKUPFIo7dUWqonYTqsLu4KTxMvsS6lv7DN3q3pZbWJy81exf+5558mv9ZxTrl68WJKftfWbnBtsuGG5nfySz+ryctKUffst+7O0Hdo/TRLS9TdYtyy5emk54xe/kBWxc8vGG9+u3PGf/rHMX2stOaSxfTtQkUtLccMni84868xyvjzbOG9uNfkc0+aaZOFlpQalV1m3th/O/8I/Xlj+eOFF5c/yUs5fLr1MkvbV5LnBdfXnQje+3W3KOuvgN+3H9iG7Lvw/6/yvL/v4Q+Ic+XbrueecXxYtXli22HQz8f0dyvz54ne9flLQ3UpE3439v6L4W9nzlz+jyoWSdJ4rz7H+6Y9/kuu2Trnzne5Yf/aVB3TN7K8nK8/z5uHRlumN0WWn6VwAUxbsA7yS/d8cCf9Nb2w97Yt/OP51rqKH0v/mltoXM/5sWGF4iHMCGbhe2oVWQGX/E2dk/4MTBiHC+EGJ7brtf/WnQ3kQdghT+2kEpSytJhKvhYvltr3cb8UHV5EGLdXVHOiF01uVIse5AiMJ5jJ8NBS9RGS6aufdDW0POx8kWrmW1X61haoYv66pfawcniW37LVytX/aFz5T1l9/PT8aWLbtb29fz/J6PP+0f/3G3//V//Pnzy8L1lqTAar9zD54zD/Wqqr2D0SwBXbtP15zTEwjKGXZ10M/T/vwcvrfFgtqfEi4ML/M+BOfTCZGg74EWC8Sjv2OZQ/I/pfjz41t/NUV0i6cnXGij/IJjsiaZ8qv3yzV3xDHIqh2Gh19MCRZF4I00qwPOfoYElUM4eyCjlUF5NaOpbCS4EqHRp9GImuEtWH1oTC5t1NbtpasLeiwQqovNQlD+6d94bPyE5OWkNqBXR55OAgAAEAASURBVHv2cV7X5/mn/Ruv//HDCTeTFdbV5Duo7Id6PbFDyCLAZ2yd2hknZtRqYiJpl6UjCHBBT3RqZ5zowRMckbTL0qEEuKAnOrUzTvTgCY5I2mXpUAJc0BOd2hknevAERyTtsnQoAS7oiU7tjBM9eIIjknZZOpQAF/REp3bGiR48wRFJuywdSoALeqJTO+NED57giKRdlg4lwAU90amdcaIHT3BE0i5LhxLggp7o1M440YMnOCJpl6VDCXBBT3RqZ5zowRMckbTL0qEEuKAnOrUzTvTgCY5I2mXpUAJc0BOd2hknevAERyTtsnQoAS7oiU7tjBM9eIIjknZZOpQAF/REVI9u2ZsyQjifVdnIWt84uUWLrpZnSa+Syq0tpWSn+aEAMUeGRyY1i9S/6jQrw8tLEElqiAqC1F+2UaHokITCGBrFJowmpcbZHoBrYH93+U35M888S5pCo0h3Sznti5+RF5bWF+rat4+E9/o8/7R/4/X/grXXqj8Rq2Ebdohl7SmWlwrL/hdAThq61YGik1mndPyKidaWUrJL+7wiY+91vq7qTpb+F+dZPI+9NyUx70GjlOwy/jL+ZkVQ19dqOHWy7H/Xav8bJKTmer0OTjrRi9HBRWWrmVL2MMXiBacr5Z+nnRIFljRWAijUqxsSwZpm1tEDitAwEjYgql18Xcrsy+1/HIzkkHpMbFBLhF5Ne1dg/0lyyx4/HapbNWu37JGQynYt27++zz/tX7/xt6r+X2vNtcpa89tH9S1Y4z70oSge0QHnpBOKjtyK+n9rPtZq0jEVcE46kfbFA9Eb6X+O/zav1L+7xmHVeW1C7aLgXSedUFTk0v/p/+XlPx5WGX/iCuRhK9qQ22FJLmxdhxP57GYMGfGhGSexUnqV/N76EkkKMeHaE6U2sMqjo/rXqhpBQ7JpezBadZboikAVECpMitaWHiMgolPaIL6HTbyJvyL7/tknNFJNfUlu2eMNb/A1m9Z2rw37aFjN0L6U1+X5p/0bl//xCaq15JnRNZGMrmDTuLLoUiTDedhhDGeNRXrc/LDFMSJKhmjlJwxEUaRjW0abdvmYVmuIVn6ichRFurVEyrTLxxBb4yr9Lw6xEVr9NuG8KIp08yQp0y4fQ2z6f+gt5SecF0WRbp4kZdrlY4hN/w+9pfyE86Io0s2TpEy7fAyxNx7/e0I6+8RGqRfPTs52Vq1evlReab/qqqvlMzyLpAbespfUUPPg+iKTpoqWYKLNmo9Vb2oNkbVVTrxxb3+ZSJKrbcUaoLl0WuVaGL08+0cddWy54IIL3P48+RzAAfu/sKy51oLrxD4S5+vz/NP+jcf/SELXXHP1GW/U9/2vdiTvT5YU9JieizX+7/0/ttbGjN5iz8UaaX/wp3dz4UqOv9GbrXLv8Z6LNdL/6X/MDCFCnHQiBozQs+SAUcfSqvacyahJ/990/C8JKT89XoPAI8OJGB0d3SM4cA3bAS9IeXAHq5SLFi6W7zcukReflggn/9n3l9ocqQ/4CF7v7SNB6LdoM9KwgZ8mxXdJzZ4UQgIjT5yKHWEkwYQ5JLOqUWhtRWmIhdBnAkSubQHbtmgz0mgv7af/r434w7PT+MNrnnyubHX5tbI15DNh8+YhqjXEa3BK/AHHUO2UwmhcSyGkxf8kEGFcG3WCwFHZI9J++j/jL/tfHSa6wUGYHH90XM3xd/nzj6+QhplII6pNL41awYzk6i4WRUreyrj3KgFlsma1URGtNBseKIZi8tEyZa1qL2lWG9WwleqruHooJm9l3HsVIYgyWbPaqIhWuq/i6qGYvJVx71WEIMpkzWqjIlrpvoqrh2LyVsa9VxGCKJM1q42KaKX7Kq4eislbGfdeRQiiTNasNiqile6ruHooJm9l3HsVIYgyWbPaqIhWuq/i6qGYvJVx71WEIMpkzWqjIlrpvoqrh2LyVsa9VxGCKJM1q42KaKX7Kq4eislbGfdeRQiiTNasNiqile6ruHooJm9l3HsVIYgyWbPaqIhWuq/i6qGYvJVx71WEIMpkzWqjIlrpvoqrh2LyVsa9VxGCKJM1q42KaKX7Kq4eislbGfdeRQiiTNasNiqile6ruHooJm9l3HsVIYgyWbPaqIhWuq/i6qGYvJVx71WEIMpkzWqjIlrpvoqrh2LyVsa9VxGCKJM1q42KaKX7Kq4eislbGfdeRQiiTNasNiqile6ruHooJm9l3HsVIYgyWbPaqIhWuq/i6qGYvJVx71WEIMpkzWqjIlrpvoqrh2LyVsa9VxHC5JqQMmvvTLMVh4aGgk4bUl7+NuzkMCaC+pcRuFlb2re/GtL/YY0pxJKRYR90GX/iDPVH9r8cf2SE9SU6jLaIDRF0svEonONvjr+4a5LzT84/fo8jzLFGhn3Q2RiDcUcDaDDWCPCajj/Dl5p8uOqMQhoFNXSjKFT0y+p6J2ozgfd6A2IEiYK0rz6OLnH3hWHF9U6k/9UVwR/utwExgkRBxl/GnwzdMSQ8fLL/5fhfp3WPDydy/FVXBH94vxkQI0gU5Pj79zr+jm7Z95e9JrxRqHETBEoajz229gd5w5Fiaci4N03UO+0E8UGgpPHYY0v75of4RwQ9xpKIVjYf0n+OdYLoIFDSeOyxsX7ab34ixdI8FfemiXqnnSA+CJQ0Hnts6X/zQ8ZfixNSLOmhVpom6p12guggUNJ47LFl/JkfMv5anJBiSQ+10jRR77QTRAeBksZjjy3jz/xwY4w/u2XPixius54S7+UI4yoneNK1HMoneQpr2RfBCNsUQH0DgzXbgaT9zgPuIPpOytYzq28JqmVfpP/pHjo24z/7X44/2hu8azjBTlLLoXySp7CWfZHjD91D1+b4k+PPTWz8aSukIfjZH1Cyj7CMOtJN1yjqWKpmpA6CtO+djz5DSQ+xjDrSTdco6liqZqQOgvR/+r8OfowZlIwQllFHuukaRR1L1YzUQZDxl/GX8cfu4iV7CEtXBKLpGhXUSqpmpA6C7H/Z/24A/a8lpDGCQ5y2aI4A0kNgm8CImCylmv30Z1zCC8hhs0PeoWPFWOLgRggo7fuTXs0vpIZOHPLEebrigglJ0zmV/s/4kwcw/QF6D4xKDONtyDt+rBhLHNwIAWX/T/9n/OX82waFQA0HkSHv0LFiLHFwIwSU48/0+NMnpOoo+UOBrpvxVxPVMfuwCzG4HGS1xE4uBKahKqc6tte9lJX2J/9qi/7ixTJfDjxKVkvs0v8Zf9n/cvyRgUAGeQ4POjDY4CATZY7/Of/ViMj5N+ffiVXTOF78rfMPS0hHI9NwsAqAQPqBrSrBtliGdnpR4AIZ4KtGsi2WoZVeFLhABviqkWyLZWilFwUukAG+aiTbYhla6UWBC2SArxrJtliGVnpR4AIZ4KtGsi2WoZVeFLhABviqkWyLZWilFwUukAG+aiTbYhla6UWBC2SArxrJtliGVnpR4AIZ4KtGsi2WoZVeFLhABviqkWyLZWilFwUukAG+aiTbYhla6UWBC2SArxrJtliGVnpR4AIZ4KtGsi2WoZVeFLhABviqkWyLZWilFwUukAG+aiTbYhla6UWBC2SArxrJtliGVnpR4AIZ4KtGsi2WoZVeFLhABviqkWyLZWilFwUukAG+aiTbYhla6UWBC2SArxrJtlhKK/0KqTcbEJRNiFSl8qB00gn/S7xJhgkvjbCMyCqbEKV98YD6JTjHSSfS/+ImrHo0j/S0xlG3i8iqmBCpRuVB6aQTbrdJ0n70Ref65tRePKuCyoPSSSfS/+LJjP++z7Xo6MPMuAnthEixKg9KJ53I+Mv4y/4nMdB6RE9bn7O9JKRL5VOkchuv3qeIlQikjCXkpFkSOy4jItJEyjfF0n76P+NPO8R0D5mdUEzh2bOsjIhIE5X9L8efHP9z/huPFm2EyPFn1h90UyMq/Tb26BQ6x984/oYV0uosLaLjohwujrre9SvDeW0huueV2K4CHNXsuciJlTE3wnhtIdK+DTTmpOoZLdxL6f8uLuGp6Bvz3DXZe20hMv4y/urfYS2uNEA8SgZyRFrUgb9mm9cWIuMv4y/jj/2n9gwtvJeIMsqBjTrWXfnSawuR/W/c/0JC2jvVHUfxwIHxeWfDhhoktay/qsB2tCSgE3bMCCGCeAHTvlzMblUxeIyklun/8ft8dFAXch0zQogg468NINn/sv/l+GNDho0VYcQgqWWOvzn+yh2I5c8unRYMQ8gVIrgpzD+ekI66TZxx3CuNGOGbSii6k2VVkmXpONQYhG3abzNe51tjRv7qMHQwy/S/eoDuYJnxJ26xoXIUT9n/sv8x4+zGFmNG8dJh2MFYViVZltn/xDHZ/xAdo3jK8ecmOf7M4RHSQfoehgkJFKjrwOTjSB1fYjHSDQQDVquqbEIRRWk//Z/xx0mL01fseUbHPtM6V8ON9KJS2YQiirL/Zf/L/pf9DyNJHBfayGLUSDcQDFitpLIJRRTl+HPTGn98hXQ6rLrQEIh1TMPKPqoHQlPJPq4zEzPzr59hg5GPdG1oQsSDMpXs0/7osslfGTP++ho6NPKRTv+rByZckvFnTvF99r/sf4NpI8cf6R2Tq8/DASXykc7xN8df8cBESFBoKtnfyMZfTUjjXyF2QrjcdRTRM/PT0zjg+NKkvURBcQcgvDfZCUUTVmHTvjpL/JX+1xDSINOd9j/I+mgznWKne2gNKcFl/JmbBvvsf20VIscf9CdsOf6oG3R4sTFm4Jk62phOsTn+tLgxhzS3wDc5/kavOJ3jbxt/bYVU+5R1LCfhLs787rrZBOph0yodY/K4H6nd6Jx16REg1p6muyodM8aP1BDUn29xEtXy/MfOmyHpfNox4wojtTs9r7+7Am7L+BsHzwxJF1MdM64wUrvTM/7cFXBbxt84eGZIupjqmHGFkdqdnvHnroDbMv7GwTND0sVUx4wrjNTu9Os//ubsK6TxoPXoqiAcehVHLUDGz1CyWVH3v93KVkaPMnuLVhU4bBKZM0yYeIbSKmvdtC9/hXgPr/4Sp0apuYs6cKCxpf8z/row0KjAzqKlxkwMHUcYKPtf7Gl0VPa/6BULGfoGHGhsOf7k+NOFgUYFdhYtNWZi6DjCQDn+xJ5GR93wxh9ZIV0qRxcy44m/Snj48RpfE7qrDwab2zGt7jugwbCfIW6AFVBdfTDY0r75IXbpzlFVLcUMcQOsgOrqp//NWxl/NWosOnTfBUoLqhniBlgB1dUHgy39b37I/q/BoDHSBUp1jxQzxA2wAqqrDwZbxp/5IeNPg0FjpAuU6h4pZogbYAVUVx8Mthto/LWXmrqjtmP2PV+CEczUM7KOmyBas1PZeKjQgEFYybQvASQRlP7P+JMw8LFk3FNGktatsv/FNYLlOGqk8pdwsv9l/8v+l+PPeISYKcnxl/PVys0/E7fsq281CQQ9Pf01R09cCyi5TVavtaWYmeCm/er6SQcu/6+m9D+jb0b4ZvypY7L/5fgzK8HK8TfHX516cv5pk0mj6gzSBJHK+bd5YzJ8Zs+/fsteW5jwci9qDWme2ivbQcRleJGOYJ0gMIFkY72ochSyJNhLU1DNcqCubNAGktheVDkKWRLspSmoZjlQVzZoA0lsL6ochSwJ9tIUVLMcqCsbtIEkthdVjkKWBHtpCqpZDtSVDdpAEtuLKkchS4K9NAXVLAfqygZtIIntRZWjkCXBXpqCapYDdWWDNpDE9qLKUciSYC9NQTXLgbqyQRtIYntR5ShkSbCXpqCa5UBd2aANJLG9qHIUsiTYS1NQzXKgrmzQBpLYXlQ5ClkS7KUpqGY5UFc2aANJbC+qHIUsCfbSFFSzHKgrG7SBJLYXVY5ClgR7aQqqWQ7UlQ3aQBLbiypHIUuCvTQF1SwH6soGbSCJ7UWVo5AlwV6agmqWA3VlgzaQxPaiylHIkmAvTUE1y4G6skEbSGJ7UeUoZEmwl6agmuVAXdmgDSSxvahyFLIk2EtTUM1yoK5s0AaS2F5UOQpZEuylKahmOVBXNmgDSWwvqhyFLAn20hRUsxyoKxu0gSS2F1WOQpYEe2kKqlkO1JUNWiHbCinlLL32mDDIbOBYM5Q03ikSLMdmXWKQ2cCxZihpvFMkWLq1MWGQ2cCxZihpvFMkWI7NusQgs4FjzVDSeKdIsHRrY8Igs4FjzVDSeKdIsBybdYlBZgPHmqGk8U6RYOnWxoRBZgPHmqGk8U6RYDk26xKDzAaONUNJ450iwdKtjQmDzAaONUNJ450iwXJs1iUGmQ0ca4aSxjtFgqVbGxMGmQ0ca4aSxjtFguXYrEsMMhs41gwljXeKBEu3NiYMMhs41gwljXeKBMuxWZcYZDZwrBlKGu8UCZZubUwYZDZwrBlKGu8UCZZjsy4xyGzgWDOUNN4pEizd2pgwyGzgWDOUNN4pEizHZl1ikNnAsWYoabxTJFi6tTFhkNnAsWYoabxTJFiOzbrEILOBY81Q0ninSLB0a2PCILOBY81Q0ninKtGeIXW7hKDEhjVXoXlvnWqThhv6VLBE3fHmWiWcC0DKUGJL++l/iYWMP+8K7HTsKdZPyLE06XDvWiWcCzDKUGLL/pf9T2Ih+593hex/NjJwpOi5Xmq6tnetEs41gN9PhQ5bjj83pfGn/nToVGBYOHA/jaCUJdFWtg++Dh5oFTjHN4u/6fqxtWkEpSxjDbEhz0HZz96l/e6FDnFX+t+Guow/6TP1G7x97+m5GT0MleXfDG32vxx/9GPoOf7m+Ns+OojhIuefnH8wcwznX10h7aYTZ5xAteVuROpz8GKFpVciwAU90amdcaIHT3BE0i5LhxLggp7o1M440YMnOCJpl6VDCXBBT3RqZ5zowRMckbTL0qEEuKAnOrUzTvTgCY5I2mXpUAJc0BOd2hknevAERyTtsnQoAS7oiU7tjBM9eIIjknZZOpQAF/REp3bGiR48wRFJuywdSoALeqJTO+NED57giKRdlg4lwAU90amdcaIHT3BE0i5LhxLggp7o1M440YMnOCJpl6VDCXBBT3RqZ5zowRMckbTL0qEEuKAnOrUzTvTgCY5I2mXpUAJc0BOd2hknevAERyTtsnQoAS7oiU7tjBM9eIIjknZZOpQAF/REp3bGiR48wRFJuywdSoALeqJTO+NED57giKRdlg4lwAU90amdcaIHT3BE0i5LhxLggp7o1M440YMnOCJpl6VDCXBBT3RqZ5zowRMckbTL0qEEuKAnOrUzTvTgCY5I2mXpUAJc0BNRPbplb8oI4fpHlY2s9Y2PudaWUrLzv47G4LrW0uoAYlyVpX3500r/tpjw3pSo+VIp2aX/61+nE+4ybzWfAdLJMv4y/rL/TfScWaLWl5SSXY4/Of7MmsG6sbaGVCfL8ffvevwdJKR26TUOnHSiFwvH2FBED6uhxGK5SoLQovyroeqkE4qLXNq32FSfRMcEjxq5XGVAB5yTTqT/xQPRGxl/GX/188AreOohRk3obiMy4Jx0Ivtf9r8cfyQGmMzm+Pv3N/4OEtLBhBsuvo6G3c4Gyn647AAdM0QrP1E5iiLdNaaMaZePabWGaOUnKkdRpFtLpEy7fAyx9GtDK9VYB0ZRpB3ghGmXj3Fwv8onYq03UTmKIt1aImXa5WOIzfMfekv5CedFUaSbJ0mZdvkYYtP/Q28pP+G8KIp08yQp0y4fQ2z6f+gt5SecF0WRbp4kZdrlY4hN/w+9pfyE86Io0s2TpEy7fAyx6f+ht5SfcF4URbp5kpRpl48h9sbjf09IZ58YH0gPCCedaGeu1Cw5lNSxtKo9ZzJq7IHwgHDSiVhB6FlywKhjaVV7zmTUpH08kB485KQT0WFCz5IDRh1Lq9pzJqMm/Z/+z/gLPcRJJ2KHEXqWHDDqWFrVnjMZNdn/sv9l/ws9xEknYocRepYcMOpYWtWeMxk1N6X+Jwmp/Za9u8A944SrhkSPYOJaUZ1SmPrgEJfZW1sdsF0vv3ANOaT6mmnfAjf9rx7ogiPjL/uf3OiT/3P8sdt8bSztOkqOv+4OJ5qrBlSPyPkn55/+SwL+bAFymcx/Vmr89RXSMBLV+ZzhNehosVP2PdI1QzF5K+PeqwhBlMma1UZFtNJ9FVcPxeStjHuvIgRRJmtWGxXRSvdVXD0Uk7cy7r2KEESZrFltVEQr3Vdx9VBM3sq49ypCEGWyZrVREa10X8XVQzF5K+PeqwhBlMma1UZFtNJ9FVcPxeStjHuvIgRRJmtWGxXRSvdVXD0Uk7cy7r2KEESZrFltVEQr3Vdx9VBM3sq49ypCEGWyZrVREa10X8XVQzF5K+PeqwhBlMma1UZFtNJ9FVcPxeStjHuvIgRRJmtWGxXRSvdVXD0Uk7cy7r2KEESZrFltVEQr3Vdx9VBM3sq49ypCEGWyZrVREa10X8XVQzF5K+PeqwhBlMma1UZFtNJ9FVcPxeStjHuvIgRRJmtWGxXRSvdVXD0Uk7cy7r2KEESZrFltVEQr3Vdx9VBM3sq49ypCEGWyZrVREa10X8XVQzF5K+PeqwhBlMma1UZFtNJ9FVcPxeStjHuvIgRRJmtWGxXRSvdVXD0Uk7cy7r2KEESZrFltVEQr3Vdx9VBM3sq49ypCEGWyZrVREa10X8XVQzF5K+Peqwhhck1IuWrQmWYrDg0NBZ02pDyWHwTMJ47VlgjiK5ViaLEsyC5ZulRXKvCdUGzLBGMvByyV6pVean/JA4HUeF4RQd3rZxPnoW2tbaW/XQAZDsJqqv15tjRCKRBxS/vp/4w/9Jjsfzn+5PirY0HOP3VOxriQ82/mH9dR/iVJoaZ1MUFTGtJhcumCmrqOMKgZ0tqql8cCytWLS1mybElBXjknGSWCvNuERaKJKjAsmbLkkjGFjMasvuak80IrAsGzLphWIdYzUzOoKxIYSPvp/4y/7H85/oSBU8gcf3P+kekRM2XOv5l/XF/51+iWPQJSczgpnXYCwYotCJQ0HntsrA/c4iX4twR5oHd403MExJoEaiIBnSdJ5DJLJkUN6TyssCKzRCEJqjoKGtCoVRsGBxIb5NgZVjRCp334w3yq/jEHwalCwdPp/4y/7H85/uT4q4sZMkhiVMz5B47AfIupQuYKofFfzr+YN8UnmX9oYgFv/C3yL01I0fHgXO2BSoCRTQPRBDMxhpyoW/T2/NWLZWkUm96616sHRv5Ju4hr6f32WhV4CACu2zWyLy7RJtk22kJj4FEIPZf2zcH0kXDp/4w/dBXtj0pYf9E+A946ZI0Y604majjFZv/L8QfhUSPFx27wsuX4K30p5x+MND6IYHjJ+SfnH8RBnX80IbUBA9LxTIPhJISQQoc7YjzQBLBkydKyaLHcoscmDej4VIFsz/D692gF6GHVFNJQWoX1pbRVPtMBXf9e02PU9nRWoMbMp/30f8af9R30Bes96BvoXdn/1A81gWq+MSrHH4kXcQXzyxx/ES0WG5xl6rRm/SnnH3EQPYMxRjbGT3WUeQ+KHH9y/B3MP5PPkLYehqixuEEUjbYh0KAYva5aJCujLfIaDZn8obhMHgCdt0xuEWpQisyxQmD00+OsQmFrP68GcCC1IVHM4a9vbQfLxuHpVIoJ5+Gm/fR/xl/2vxx/cvzN+QezY86/nisIkfnH9ZZ/tRVSBKUkbHpnBTQ2/lls3HjPBA9Q+WfPIs7pyihWSCHkX9e6tKnXuiaQeLFEePzFjU3/phJ70b4+r4I1fQ4aBrR2IXX7tlKKvbbD4Er76f86vmT8oTOgz2T/0z9gc/zJ8Tfnn5x/M/9AVnWDyb8sIfXETo9Nd70ocIFs6EbhpQCsjlpOqOlhTVaRR5oUaKXYFrJQ/4yTtUWVcnqfSDCoxMdwtAHDch9FRqd9S9Wrv9P/EiqIrIw/7R/sZNn/cvzJ8ZdDg44P7Bo2WAjHlZKcf2zwjJOtOolzjDE5/1q+k/Ov3QNnPLCTzZp/+hXSGlhWCVXC1vXQobwpFy+WTzzJ6mi8eU4tS9TW/g1B3eyAGdR1pZNKKS0nHZ6WKKShOXlY3G/UqxEkok1GuyzRbNo3n8IX2NL/LerRhexPGfON+keCh58ho69Um/GX/S/Hnxx/dQSVESHnH5lMcv7N/GMV8y/8dCg/DI8JNiZtOuEGWdSRZknsQvng6FK8Ni+bTer8kxJxKlM9JnDRGQIok+m368HpM6GsDz0uLeuCs412NXXQBluLFZL2xQP4Kiu9lv7P+Mv+l+NPjr85/7TZMudfjImZf1ifuL7zr7BCWlM8LSqtmV2UQxB1Cuh2Vy1aIkknkiDZOPJpaQxq61OhQmCVcl59yFS6hVXQotKoUuX4YoatUNmvyaBtfYbUagnK2m9GXVFFpkfLad98l/7P+Mv+ZwNJjj85/upEkfOPuCHnX40FpAyZf2gidV3lXyEhhfPbVkOyEyCB0WskUiSDyCWxGdb2Vy682gT4k0M/MIqh3lYlDC17CXi8WIAa1qJRyqFN0bUFX0i1SlkqbWotgbdVXWt/Hm6b4QCxobm0n/7P+NOOk/0vx586MurwmONvzj85/2b+cYPMv/jZp1HaGDNOG8a6/QhftZqQagqKTzqF28XQI5HURFHmSdy+h6CmuN4eR05JJuYk49VVUTkWzVOrDWtKPhulq6uWfwaVkMCn/fR/xh/7l3ar7H85/uT4qy/G5vyT82/mHze8/GsOj5DWnNBzunaYktpBXZdCo9zBlaBOE1LMfpIL4ItNyGsxKVrCWcFaVFmtaGufCm5pqrQjx6eJJxY/7fm3lpxqPmpVtI5/ICrtp/8z/rL/5fiT42/OPzn/Zv5xo8m/Brfsa3boeWPkI10BE6IrFy4SpX3wHn+FlqWSamJiQBXJKjUNRZaKv9SlQO5oz4YKo9krMJasKgAIBaEF00EOTnfQ1c3qYVUs7esfAOn/jL/sfzn+5Phb54s6s+T8k/Nv5h+aP93Q8i9NSOMqqGV5yPBqpqd5oCWDmgQ2Tc0HTYcaqHvVwsXIO9vJoh1NNAWHJU38L6Svc0LNVVC1iaUttAWFDCBSF7/qJDupA1uigR4iKedBrxUw2CAZlWS26q2Qfdo3h6X/Nawy/tB9WifJ/lfvwqhPcvxRN2CX42/OPzn/Zv5xHeZftkKKPA+ztAxCTgpnAxOIFW+oh+0qfampTna8h15ZQ2AytM3UGPhEoicN+5aEeuYAqED486B6fCLSCVUzCySiuENtrYL2jDTtm7PhFDo9kOn/GkcZf9n/cvzRcTPH35x/sAiU868mHeIHusIm0cw/NDKutfxrzr5Can63PV0OjlmMXIwqjloiahqrmCsXyVv2sunls2uoue5SGfDnyV/c2mJNfhH49SNOUgE2RFuTTG1kyr7gbFW0IaJ9NZz20/8SA75SLmGV8Zf9L8efHH9z/sHkCC9Y4p3zry1oZf5xw8i/JCfUb+NYvmlxKsHabzPEPahy9pZ9UyEntRvpJtN8E+kSCCjrX2NqAyL4RaEIFLkdLwJAcMMeeIVbU1Zd26hNVXksoE775h/4Jf2P+JKoyPirnQa9rf5Jhy6GPoZAEVn2vxx/cvzN+Sfn38w/rrP8i5990lkI2dvUhoisMxVWnWbBUNXfsrdZrTaLGnJTXdpAHjDcoNVEk7fYA8B0U/ZV0yMt27IDTPvqG7jB/gZM/2f8Zf/L8ScMmZXM8Tfnn5x/pTNk/sHVCB8kruv8a+KWfT0WTUJB45DGmyU6Y7kmpDUZ1ERIZgB9Lkn2rLNME0dpVwSW4OppqylOGHjRykyb/YoQg2i1fWGzycOxpH11RvpfoiPjT3qL9Znsfzak5PhTB95a6DiBwdi6i44dOf6aPyxiatz4qJrzD+865vw7yuFckPPvqsy/9Za9jUKyR4SFTbplEFWOQpYBj4SUv5kONf7oYPB6t0YWqn+NCILJKdro2pPLKTp7oABKbJhaZfGYyWqHNwT2aV+Sf/Fx+j/jL/tfjj85/nIOq+lTzj85/2b+IenUDS//aiukTO5YtvxuRBlkGoiEVFdkfKkT1YfYxnP1ZiJ70kTY9GgBdWyz2rLXRwD0STdTcLyRmvoNVEi1mtUwEIWWead9/B0n/oGL+uwl/a/ho3/nins0kDSELJpkn/Enf09m//PYyPFHx5Ec/3P+yfm3zhda2Iyhk0eYQUBm/tHnH/bZp+YpdZH9PVkdWtOSem/dEhfL5XSKrqTXsw/jw0iYqLx9k+k3afXP9nqh6kAOmCGCAPaR3MoHvkHqccgb+ypSfNUj2zdAlaZ9nyjFI7al/+GTjD/pRtn/bFzR8UV6Rx3ucvxBD9GB1seMHH9z/sn5N/OP6yT/kjv2lt2ptToGTRRM93oVpSzlO6T47JOwuCuCpwHws6MY5Jf6C01QyKAHHuMeMJJgLpMP32tFyFBZZwiWjRNF3bSy0MRIWW2lfXNh+j/jL/tfjj85/ub8k/OvjANIU5AvZP5xg82/dIW0pZNyvZxxAldxuRuRWKREQorSfpnLkkW9rSfRwNQRjUWa9dWIMEhU8Xe6oQJWFZDbVlsX50rbItbfuhci7af/M/7Qh2oPwW317H/dmJPjjw31GEnbSGtMjr/wSfOKx0rOP+KYnH8t+2BeUsfWzD/+JvnX6Ja9dcPWGduAVWUISHTMGZu+1CQ6oG0GaG0pJTssgKIF7+jAYpN28cIS/qL3H6DWBBOrHPYJX3uhSVZTOcGiUWxoE20bmfarT2wAgaerb+Aj+Ep4/KP7oE//Z/xl/8vxJ8dfGRXnZI7RyQQLHDn/5Pyb+Yfea9L879rLvwYJqfZAzU08s2uEygNCcx37a1r6b1XoZ5+shbpH2lPf80QiJDhdudEKokK9umEgtFUdEdT2KNPkCQkrEKKD3aXSrNnHcrwI611/tmdl2k//Z/xJT7H/pZtk/4MvMMDIVguQHGtAq1xdZmMSRhH9SHyOPzn+Sszk/JPzb+Yf1g8wn/yt8q9BQurjcByTlR7vMJJjCMe+beOEFHr8fYXD1kPXOqhXfz7aGoBANm1PR39MAKISAZ6DQ74Jps0jKlC85qG1jjYy2KX99H/GX/a/HH9y/MVcgJkD/3L+sTlWXGIOqQWSbTgo59/MP67r/MsTUkvvJBBHG1cIAsJJJ7zWlQsXC82lyxrZWjDqZVDUBBN1uaSJQcIGS/QEIq1RaOaJrK1y4Y0/dBp8ntjaijVAp31zUPWLFvRR+j/jD3/gZf/L8SfHX828NEnN+QfJes6/mX8wU7g+8i9JSPtPz0uWJ38W4FCcsOOa2PcISymv0oRUNEGp6Sb+3JI3TfC5Gf0LDAA98wqkF/zPMrShB2KHU48oHkYwoVr7acjaUFCmfbk26f+Mv+x/Of7k+Jvzj06rMkHqVFknyjpttmVRkef8q+mGuivzD03pru38y1dIuwzS0juJV4tS/u0YD0bpkPRRZx/GrzmtCNEGbpfib3Gscc6TNWC0Zw+KowFusTGkkHiI2Gp1iSY7jlTDcrL1GRNS1beU9tP/GX/Z/3L8yfE355+cfzP/uCHnX5qQ6otTks3ZpUJaJ1vI6owM+6BToPLaQLkS3yGVVNIaEEVdmcNDoJSi+bjZ55pQw95k09vx9S95NI2a8yyd1b0+R6oPAKEV2JDC7uGbabeU9tP/EnX6DaiMv+x/NlRg1Ihbjj/hESgZO3P8lTjJ+cen1Jx/M/+4zvIveZYM6dx40yQviqOgpq5RVKFXLVzka5vaMmZBzRhljQaZpHZ0qx9bRw6pK54qlEFRKmNltE0h0ZjV15wUSz/cBBLXVtO+OCb9L05A7GT8Zf/L8SfHXxkSZaKxP085cdg4mfMPZ9ucfzP/uH7yr9Et+z7tC/mMJjbswAGlpPHY8zuklmBax0deidtF7PDWlOxVIMGvCQMcME9ftkCOiYVVtDdPCaHAS0MaKNCABq42DA4kNsixM6xohE778If5VP1jDoJThYKn0/8Zf9n/8Pd5jj86LOT4K6Nizj8yW2BlB0XOv5l/YKEQI8O1lH9pQop0RJMUJ0SATQPR0hdXOWEQ31e5ffaJQYy6UKAQek7TQjDyDxjZy+hvr1WxDsB1u0b2LfFUZ2nbaDztp/8z/rQ3Zf/L8SfHX+kKnBNy/sn5N/OPG1r+1VZIQ/LHfBBlTR29jDrSxAB95SL57FNddaupgI4B2nwFckiw1nU9QkhRMuvWhg2lVTB2mLqu8pnO1vY8BbWjRRKa9mXYNb/Qlel/Ca+MP+2L1nsQGXBI9j/1Q44/Of7m/OPpug4UdQ7RKTXnX13fsruMmX9gzLxW8q/JZ0jrxK3JDOctXIPRNgSWcsXCqzWoFdpmPsa3lbJQukweAJ23TG4R6qQoaMcKgcmB982gl/9rnqm0HQYqSEMYRLD6o+3YG/XgdKMYDGmUaT/9n/GX/S/HHxk1MYbLxvERRI6/Of/k/Cv9oHaKzD+us/yrrZBiUELuJ9cAl0G3umpAdlRiLKtgI5cVfIeU1xHt8a8rXZ4SrL7RqkZkKIQtVNRmZE1P7EX7+gwo1pQ5aBpQWZjF4Zl9Ww/EXrN2VVq1tE8/4WKArgm8OD79n/GX/Q+DCrrG/338ueD888p5511QVltj9fIv97ynjVPa52Ag+1+OP9fe+Ltw0cLyox/+SObbubLVnbcqN1/nZhl/6HLZ/2qedOMYfywhlWPFYBG3XhS4QEY8af50KJpri7rWvL3ZiAYqz7aQGflnnFStKagfEgZzZqp8DNUMGLjuo8honWa8rWtqv1x9dVkq/3QyifblM0KrLVhbO3w8gL+1fbSn2/V0/mk//Z/xJx5Yif63ZMmS8sTd9ii/PfPMcu9736scc+T7b/TjX/b/G0//v+TSS8t22z1M57qnPuXJ5cD9X5zxZ39mrvL8n/F/3cd/v0Ja7Vum5ZfDpEweHVMJlTfllVchgUMiaL8eDhS1LFUmzWOc5wZr1OM2kqWS1HJOMBSxqpVEcU4e1rdkk438bexfcPLJ5ex3vkPN2JzU7N/tgx8sC7a8gxz0tWc/uKfOic2+627g9v/yh3PLUnlrTf9SFU+useZaZcEGt+pWZ+FgXlMrbxjX332M4xOGnyHjseK4r+/rf9K+jymX/+m8stEd71ked9gHayf628R/PP8lV11ZLr/kf3HCfq3Wuvn6Zf6Cda+1/hft31D9z+t/yv9n7yoArSqa/zy6u7tBEJBSkJAQJKRbOkUFJW0F9bP1Q+kOCyQlBKVDQFIBaenu5pHv/X+/2bP3nnvffY+w8P+dhXfuORszO7Ozu3Nmd+dM+07efudd5f/YsaOkRLGivjGJdFiZ4S+Dvt+6CLxy5oSc2r1Vzh7YJfGSJJWkaTNLmryFhTxmuN/p/yvGXxd77pj+35fOkqWD3wC/I+WJ14ZJ5qJlcHd7/rvb536Zf+6W/qHDRsgw/FHYZk6fItlz5KDo/M/Q7yf2zx//vP7HMcv0EttXDL//ZP2Hnw61jqHdwqvInEvIDo00WzH+2mAtpHymWNDZvcmJK1pVcSHG39lMnPouZzyVWV2L95UyELSsjXN3MjKEBf0Q8aThj+I/rgrpgJD4C48dJ4nz5AEdfx1+w1fjzsrw7u+l/4/iv37pgoxo8ADawpEQ06slbsIkkjpHXkmVvYDkKltNsj9c1fiuR877qf3/KP1/VP7uBP+oJg/JVSiKKbLklJZjlhnBd64x4d+1bJbcCL8iCZKlkByln7gt//f9/KPMfrO9bUnfJJcgRRpJk7OApMqWRwrVaoV2ze+rQ0z4/b313vv/sd/WyNnDe9H/wyR/5QYSK04cH27e/NX42T7s/5cvXZJq1WvI5ctXpEzpR2TY0MFajzvBv2fFXFn02Sty7fwp5Wmw/Od/vJGUe/ZtKKbJdIhzepKP//fD+HPh6D45smmVcjxr8fKSJG2mO6afHOSc8GeN/zsWTJX5H72g/Kn1xgjJVb6G1osV+rfNP3fS/93tf+HCBale80mVw4oVH5MB/f8LPvx759+7pV+FznW5k/73Z8ufC/3fNv78VfrPP8F/l4XUUTv1x7lX7rrjGeFOc7Pf3Ifbb9nzkRTZ7DQJ4IGPuisUN4yKRW5y76jNqPmdQizixNNjidHQzdecCNvqoMzGjmnzml88BkSZh7vBf/PSRbl5/pwBBPxHJ34rx2dOA9gwKTJunCTMnQdpFk0AMo3/o/i1/D9I/x/Ff/XiWRnVsLDDID//eUeyTPuL5KtUT8o/85YkSJ7aacL7o/3/KP1/R/uPhkIafu4UFNJcjkJq5dAnmFH4z/43rE4BuX71kmQoUFSaDPgezeHwXH+i8n/finkyu18HlIza/xDptJtI6XYvS/HGXYxyaKuiv+aBkP+s/j/3nS7y+7LZir7z9O0Sj/vmfEx33f5F+O348+23k+S99z9S1EMGD5Syj5bROvmqEgJ/BJb4V3/9maz/ur/pCzHwv9W4FZIiQ46/ffy7U/nfPOsLWTrgVaW/9rtfSfZSFW9LP3n3V4z/OxZMg0LaTRu/xpvDJXe5WiHl/6/C/0/In+lZ5vrJfz+TL7/8UumfPn2y5MqR83+K/n+a/x5+I4c6ANhb/TUPtxv/XQqpGUPs1ZmS7KMZNAGTYBnYoVUz5z3+aAvlVS2kvOUrrzoY5VRHFc4VYCnjyXhmMxDNnT4xI9Jci/CM1iWbCMDUUsjut+oa+LG4bM8RjuEvwr9/zCg5Mn6cwi88ZrwkzkuF9O/D/0/Tf7f4r547I6MaP6jtHw9W0co9PoTydEbOHdktZ/ftkoO/rgD/tMHVatp6/E9Yzk8Dlt6f7X+39P8d8r9t3kS5evGCJEyaVApUawZ+ItyB/I+o84BcD7+EpX4opAO/N+VwNW/bUfm/b+U8mfVWB+1/GQuWkgdrt5XLJ4/IucN75Oi2DXLuwHZf/8tcpIzU/2SyqQdXNlDqr+j/P777tCqkJLfLjG2QoaSGjjug/88af7DCJHXqN5KDB/ZJokSJZfnSxRI7Vuzbjn+rRr0v678dQo7jL1KKN3lWcjxSRVLBwnzlzCk5sXuzbJgwUM7s3yktx/0kKTPmkPtR/lj3TbO+lOWDXtb2r/3ul5K9ZKXb0v9n8Z/4KV92/D8Hi/m+VfMVf45SlSVF1lya/lfIn5n/AvGrAP6N8hdM/9Zt26R581ZKf6unmkvv3j3+p+j/p/nv4dfh7N77v3X7FGXacGucyuXAS5T8TrJZstchAh3BtVzAdHTUSFVUOfERAnuuGSp88OzIofsOoX6y16MujGZuG5jfWFcD4036X4P/wKiRchh7RxkKjx0rSfLmVeTuev2V+N14/gn67xZ/+IXTMqpREWUJFdKnv4PS4mr/g78slwUf95RLp46qLBRr+LSU6/KmYeF92P53S//9LP/D6+XHkv1F3XtKhfR2/W/fKlhI+7bXtslfpYE8/tLnvv4XAaXsN1rJBr1u2g7QnnxrnOQo8zieTYfWKxjobn/itOm3wx+q/8979xnZtdSxkEK24iWihZThr+n/odp/3foN0r5DZ8XaulVL6dWz+23xXzl9QsY0K6b5SH+VXp9KgSea4A5UGnbpy3xkxC3ZOm+S5H2sjsQHbaHwM9IdrxX5G+kn8k1s+4GwkCKoQgoLKb/+fT/L/79x/nG3c0zjf5169eXA/kOSKHECWbRgviRIkMCIFWXFNf7+0f73d8+/d0r/39n/Kf/uev0T/e//E/4wbiH1DYKGm8pgOy7SFRP3aDGQcBuvEa6LTVOFlJmgi9JjE/ValjITjquAjXMKGtunZvbjARzUTyc+Gj/N/lNTXS2mcQYmn3UpkI8h8EfcuinXjx6V8P378bcPecIkfsZMkiRffomfKSOKmDqyuFMlhePGf2CksZASvO4hhYXU0GfKRIf/+smTcmnHDrlx6oTcOHde4qVJKwlzZJcE2XNIXBxgYH1vhz/i5g05/+smuX78mNw4eUJi4XBQvDSpJEG2HJI4Xz5V3KPDT+jk/2W8PV89eFCunTiuFY6bGuXTZ5AkhQtL7HjxNU9M9N8t/69dOisjuWQP/HESJoYVazvBO8HU6ey+nfJN58o++tt+vVoS40AHecyLm//Ef+vaFbUand63A4d5jmCpOo/uW0yeNbfEhsCx7bSwS/6uYS/rpdPHNDpF5lzMISd3b5GjW9dBtmKplTBtroISGzxliK791QIfcRNWwb1yBvgvHNsv8ROnlFQ588OylU/iQ+kOhd/yX2kC/PNH9uEAyxa5cOKw3LxyWRLCKpwkTUbJULAE9nSmjBH/1XMn5ebVq0qjvquBThIWBwpLIhyAiQ7/2UO/SySWiW34phNP5EZK6mz5pPobwwAiUP6Toj48XGP5v0cVUmMhLYD9mo+/PECtqW753/L9V7Lk85e1Pqmy5pOnRsJSFQZroQPb0h9x86ac2PmrnDt6QK6cPGbyZ8srKbAPNVmGrCgShyRpvMXP/n/xBGT/ygVLAnC9JEd+W6vPjQbMkniQMQ0sDL4kSJZcEqVKjwdDm8XPPNcvX5Sj2zcA/1G5dOa4JEiUHPhz617YRKkzmDEPBdz4Q8l///4DZOz4L5Tvo0cMk1KlSmq9Yxr/Vo35QNZPHKz8L1CloVSFch/Mf63rHeC/ce2q9odTe7fL1bOnJGn6zGplTZk5D/p0nGjH3/NH9svNG9dUZpOky6SycXL3b3J0yzoY9iMlba4HJGOhkth6ES/K+Hvt4nm5DJ6p/EHgts6dIL9MG6ltVrHb+5Kp6CMB4z9hJM+cw7Qpma/BtEnkDcjCrl/lAmTh0inIAgLlIBXkIVlGyALkh4pPdOP/LXhBuXz6uPJfecYOwIEQ7Z8kHdoxVhw8RG1/xl27fAFW/qPaXilggY4VLx6s08flyNYNcnb/Dt2XnTZvUUmZKUe0+N3yf+3CWTm9d4ecwWrBDewnTp0rP/4Kom+Dv/in9UNtTHDqxPoi4QpouHrpvCYlA744ceNh5eOs7F+7RC7hYGisOHElGcau7CXK42BoQkMv5UM7vBmz7Pg/YNBgGT1qrM6/QwcPkjJleLArZvxW/g4fPizXwFOtKy4pkqeQVCkwriguk4tpWm2NM9RYtmt1mME1/kbHf62TAmIOww9Cc6KUL7frf6Ho18p7+O8r/etO5S9oyd4nCkbK/KLhFhMnLXRU+LXrSKBigA7AQywREDX0FEKmVKvYUYr4poYfFW6ObHxQ6WIeK5wshTRNNvdMY14+6YWPTjDlIIlB+C/v2Cq73n4HytghAzkIf/Jy5SVX714SLzX2MCJHdPgPjqJC+gXyRKpCmoh7SGPAf27VCjmIU4/he3c79XUgu/BnadVKMnfshEmYTPLTaCg0z6eXLJb9AwYIFVtCCKY/bsqUkv/9DyVpoULAE5X+K7t3yt7/9peLm39DaUB24TfQRHL27i3p69aNkX7Lm2D8KKTBUOfHf+0CluwbFtH2j5MAFtIZO0Lin/7yU3Lol2VKf6kWPaR0mz6sJWAa+g3JkbJj4XRZ8CEPLDDen8zbbCUek6p9PpeEqdiGgfK3dNArsnk29lVB/hr9d6rMw6GHC8cPGvAOGG4VqIPlxrR5CgNdaPm7eOKIzHv3WSxRrydKX/V4Gxf0VYNikROHtILxW/nndoUVw/rJNhy8CHPkn2WVSm2ISClQtQno+MyhMZB+8n/uW51l94o5LBaAP1X2fNJi5GKU8/Pf3f94+Cn87GmlTN9Bo8Fv2/iJ14dKngrYf4cS/L935Y/yfV8qpDhAVKU+LKQDAvCzOlSuRzUvLjfDLytN9T74RrIWq+Dr/xFQPhZ+0l12r5wvN69dNuUtGQ79yTJml1p9x2AiL2BTFD/7xvyPustO7BEM1f5EyBfnCPwz7SdStG5bqfDsf3z42f7noZgvwSnsgxsob6y1Q4aDn8i41EsLMA98KXJXGmGzhBbFpVmLlrJtG160cL9i2RJJkoxKcaD82fYn/ojrV2VwrVy+9m/w8STJ9FBZU4to+r9BSYzE7sd/ZNNqmfufp3UPMfG76U+OPcU1+47AC0eBAPop2devXJTh9XHYEGXyPFZbHmrQSWa88hSU/Ys+HKQwXf4igDEah5QyIq8f/9YfJ8jCT3trea0OSgXjN7lxBc0ps+WSFjxwh3s7/kTgxW7Bxz1k76oFunXETAF+HMRPhbQmZCFNbtbVn0ZkfOKFSvS3z1bXezf9TK/11ijJVbp6FPrt+LdqNF8MBims5sPnyYZvB8vORTOUxwaDwfnY8+9J4SexDK4pfv5rQTzeunFdVo//RH6ZNDRA/kgraS7R9Bl5pN2LEit2PB/9wfPfT8P6yq9TRyqOVuDVsR2/yvwPu+kzCgGOqUs8bEtpMmSOpMicU2nWNCQzGO5GyOLFy+SFnr0UV2fMLV27dtGquvkfjF+BAUfRYqUcOMQXKd1feEHatWvtw++WP0u/Infhj0n+bftHh9/y2M1/pTGa9tc0pwKWfg9/9OPP/c5/VUjdVlAj5Wxh9gIE7QemM/DK4KQ48mjSTEqgY3ztR8ytwoR8HHX4H7fmfY1xuLdWUIWMCRVxJgEihrL8qhMuKINfpjCdUfiNxXQtQHHkZAyWO+n8OTxhghwYzFOvxIUY/I+dMJHcuhKOKMRRDwT+IsNHSOJCDyJf9PgPjBqhS/YEU2QMDjXBQhoT/kNY4j9EBdZFf7x06eTGiROmzg7+pEUfkoIffyJhCRJGwX9u1SrZ/lIvwPDTnyBzJolA/a+fO+vDn//DjySVHqYIpP/aiZOysWUL0AsFwKE/Xpp0wBMm12kpdejP0qKFZH3muSj4/wj/aTEYySV70BkX1qunZ+5Q/ge3//b5U2WhnowNgxJUUy12mpETGMpGhN2CItpLti+cgvoZMtictArewiRq3/0TpUgtjbH8nDRDFuBUCJq2uP+LsmXOV6YghQJpTI2bILHcuHYpQP4afTZNMsAypKUd/JS/U7t3yJQe9bDMfcknfwmgxF47e9KHn529dPtXpETzrgH4SX/ErRsyvU8TWGXX+vAnRH3j4/T02QO7MT6zdJikgVWl2fD5UfDb9p/zVicoh3MVhlv+eaip1ZilWs4t/8ob4P+iTRlYdKGEu+h3y7/Fb+W/+uvDJU/52r7+t3flAizZtwN8kQKPN5CqLw4I2f8W/Re8hsJCHlfs9h72mrbBPRkeCV6Hy/C6+TTN8BdygTakdf7a+dNKv8Vfs98YyVUGygTK2v6/eMDL8hteLCjGhO+mn/UiB5VeJ71o3XZS/rn/IKPBz4IHNiyVmS+30NyW/gTJUkNRvAbFCH3E6f+0atX78FtJCauUxR88/ly4eFEqVKioOLNnzy6zvqN8BvY/y3+tMPCfP7pPvmxTTvOx/dtP2qCEBPPf8Cf68W8H+sy8j1/w9X8AFMr/FbrmcujnT13QkMUqvGQc/t/AYc3h9QsqX5JlyiZX8KJy6ypfIlgicPzLXrKi1H6fY5h//Pl96Xfy47tdb8t/QiNMKk8tKZsOfvb/63AjNrw2tjw54w/pj4MVhjjx40s4PA5Y+tlGNd+GYlmmBmCxHQ0Y3rL9T+/aLBOfrWHiNQciDWKp+cZwnLJ/UulkTdz4Wa+Vo9+VDZOGaP9Pn68ILLW/AU4g/UZGIqVR/1mSvmBxg8eBT/xX4a5r5utt5CTq4ZY/vqDexFhh25/W5vqfTtHDfsHjH+eflcPfgpV5tOKvitWH+XjxVgIpu0HzX+MBM3AYsUQQ//3z37HjJ+D1oaayoSg+0DAeZx9C0W/icHXNv0WLgUbSxwsI7PF8N2nbHsq4q/3ZjJb/Mc1/JhvhsN2i8t/E4erCH8x/d/8P1f4efmfMQ3uF0n+s/P1b+I/2hrRQXthLQJLvFk+UyTsNLMdwFZ8O1Z5CSBhsDEDnlxkQbF6T7AisdjriN4OwItc6oQCy2M+Dav0UhkYqLlaTh6AYeG/xX97zu2xu29ZEIjl93XqSuXVriZs2LXNh+fs4CUgzAABAAElEQVS4nJg9Ww6PGycPYrktSUFzAIedwEGq+Sz+g1BID2EPKXEUHgs/pHlzx4j/4JiRcmLGTMnQpLGkwsSVICO2BsSNqzW9vH277Pngfbmyew9gREquV16SdLVqR6F/KwaEC7/+ovRne6aLpG/QUGJjTxD5dAsT6LmVq+TYt99K5qc7S/ISJQPoJ/8PjxsvB0ePBA6R1JUrS47uPSQOLKoMYViaubB1qxyfMkUS5skpWdq0j4LfZERejr5IdTij+VRmEB8d/8MvnZHRsJAyAwfop50le8JgsO1/GIebpr/UWHmZJm8RaTaIFkAUctp/+6JpsvADYxmly6jHe30sOR+tIbHwRRxa/VYMf1u2LZyqMPNWeFKqvzYc98DiyN9iLO1u+f5rTecl/QPFpdqrgyVF+qwSfuEc9r+9JruWfaf4MxR6GFbUacjlx8/bOW+0lz0/z1MYGVG+6suDJVmmrLAqXZZN342VlWM/0DRklXbfbJDEqaH0O/hZntasab0aah5jvRotabLnVT5GYjsJD3pt+X6CnIYfyro4qRyM3/KfSlMklNtITBCcqL5qVxFun05JMsftE/Fb+Xfj53I9B35NxmVkw0JqyUwLfjf+bKbCYjnb/8JixzZWPBYA0H2wavoUUt1DOtC0T1D7r/uqP6xF/0UhHNRp/qw82h57C1kpoL5x9YoMr5MPbqaqSmEoqlQCjGcFKKvXwcfp4OOYD9HskZIQ7qTaTcSWCizfs7wegom8BcWeFlCCC5MfP3hGdi+bq8/tp27Gkn0Svbf0h8WBbHLLgIMfxeTA+qWwBrYA/tbyQLWmujQcN0Eipf8Stg/8NOJd+X0xZAEhPxVvWoId/MRKDlr8O3btkCZNWujz41WryMcffaD3Fr+b/1oQZQ9vXCnT8GJCWJkgaw37U+4oq/hz8d9BinwIQfhvgo+jm5YAP2HRRBkq3qXa9JL4SZJjyfkETry/LntgRacinTZnQWk67EeAoDCacA3bFUbUh+VUawvgwF/lxU8lb4U6Eobl9f04FDTnrY6GUBRpPmqxpMHWDmT00X/rJrZ/qGYVJlvxsrd40GsKvPY74yRb8Uqa10c/RVWXzjWLwqAsjIAs5CxdDdbH1pKuAHyu4sWA7UoL+6bvxsgqp09xS0v7b9ZDFmL78DMf8UegHsxvx/9di2eAftYlUmr0HYZT9lBIkVULGvS+259Hv4eDZUOVfvI/S9FyUrH7R/BoQCX9pHDc2PvzfG3O/I/VkydeNdZUA87gX/Tpi7LthwmKPw22OVTu8YmkQ5+itfbU/u2yEFbgk79vVvyPdXtX5Z4yxGCGB8AB/38aQQvpaNQNrUJ5QChYvRn2FjeW5JlyYvXhkhzZshZK9PvYnz0aYxi3hhiZYX0s/bxXmSgGhRUIkiRKJCtXLFP8TGIIhd/KX5FisJA6+Mm37i88rxZSO/6wLHFY/hNXKPyKxRBoCxC1hpjw++kHVGf8JwIPv+H6/3f+h2H5DiLlDpZkxlnRQQ4n2p1qczhqrOYJvw6FFEHZZ3iochWBDh9LB1wmGigUfMeJDOKIA/FOJ1MgofAjn3kr8udw41fEiiJSNj/fVS7xc2oAm7lLJ8naso2BGIQ/fPduiZ8hg8ROjOW2GPBTsTv0xReKn3tIE6kfUhQJwRySfg1L7FxO56Qaiv6r+/fJL1jyY96keJMtNHBQIH4cFvm5QnlSg/2i6aT4dCxX3in9KMWG3Y6l+POrflb8xSdNVTr/Fv4D/xVYSEc3KqxyEQcnkJ/Bkj1bPhg/92NOePpxbf+4yPf0d7CkaoCiAivDF23KQ/GE1QT0NIX1MF3OB3ySoZIEPs14paUcXI+BF3kafT5TqDSqYCPDkv4vyeYfvgJaWEWhtLSbsBYugpLi2cgfFcJJXWuqY3LWrdFnsyQDymvFcT0B68ckOKAn7AQp00rb8SskDpUYJwfb/6dhb5slN+ThEmj5Ln19+ClS66YMkVUj39MyVV8ZoH4zLX4UAWxc70H+jR/Sk9jvlltajjb0KzhcLP3EHyx/w+s+gEnuoqSBQ/2mPGV/G/x7ccr++354YUG+Byo7S/bEwao7V/789v2XsmTAK6yC5K5YW2q8OlSbm/jDoExexD7BpOkzaalQ9M/74DldNiXk+h9PVsfmyniDSPHb/v/Df7rooSZuTegMmaFCyjZi4E8o+s0+vUhYplP42t/N/5s3wuWrNhWwn/GIwuky+3eJEw8rFyHwr16zRjp1fhasi5QmjRvLa6+Y/bMx4d82f4os+ATWL9Qwb/laUg2WaDd+ZZZWnFCIlAE5XPg3YWl3+bB+mpKzbA1scRgRkIf75Sc/X1tOQBFi29fCsnuOctV84+917J0c0aCgj/7K3T+ED9mWwIHMLAD8K6GscQmboUrv/vIAtpJoNdD+lv9MY7V+mzVeX+r4UPs9nLIvVUlpCsV/5ieOyIgI3b+ZOF2WaOk3ssCXgzCp/xFk4SHshQyB3y1/O/BiSj+kDNbtE0kKln/CXDXqXVkHhZT8T8h+/dVqWOvjKv0sT0vt6MZFcRcmCZOnkQ6Tfw3Af2LnRvn2uVra/txq0nzoPLX4syxhkv6reOEd36K0XL92UeIlSCodJv2CsSOB5nDL/0+wkOqSvcN/o7y2JigEf/vfwJaPOFDuw+LgRQ2B/HTTr4gR9wQspMewEscMv6xdDUNILF/7axsjoxu/7f9Fi5dw6NeWMgpp2zYWUQD9MeG39BN/dPwPhV8z30b+g+UvFP0efn8z/pv4D5mg2cRpUsogWzIoRBMdlMs8uh3jM4bgsAjiA6v9jU+8Uakx0PXKKMTxnomsFQcgjpNcMGJ+3tugxfXigLIJ+L16+JD82qyZoogNpbD4pMkSi6cNUd73dqdlCdBPf0z4VSGFxZGhCBRSdYwfDX7NhAuTY6J/Xe0n5ebZc2q1LDljViD9ULRWPVYBNEOZR61LwNoaR/dIGuiK+jb4d778kpxesULrke/d9yR1ecDj01/Mf9bwqqOQkn49ZQ8LaSj+X4GyObppMU1j1WhJpQsftsrvP82ROW931vuH6neQcs+8bYjH1U0/naRP6dFAI8t2ekOKNX5a8zHPws9eghXHWEiL1e8kZbv0i0I/Twovc3wplmrZQx5p3VtxUv7WT4QyORp7EXFfqmVPebhVTx9sO+mex0GnL9vi5QEIk8HC0vqLlb48pH8jlAhOOqS/KBTWcs/0dQi4c/kj7GD5H9WUe0NPSUos2es+PcXqv5D+UPKnp+zhhzQtrJRNB8KahnwqEsShxQP73/5V2ENKhRSJPGVPyyFhW/r1Hs+7f5orc9/upBDoUorKbij8BhkBBNK/bf4k7DMlf3H6vPen8sATTTVLqP7/A/ZP/r4cyjRA0IMDl/+DQ3T0R4ef/X8+rFrboTgScCu8fCTjgRciQZqb//PnL5DeL0EJJf5OHeTZZ58JRq88ctO/7qvPZNX4TyFL2CYEy2aF5yjPdzb+WPwzX20hB9YtVVz1PjJL8qSTnLRhG07nk4+ML4j9j5Wef1+T2MbXLl+CQoo9ukiMg20rHSdvhCJmxkY7/h3CqsV3LzZFnjB5pO2L8nBz7GdEfjf9ihOXzTPRd3DKnmlWIbX1YB43/cR/p+PPtnnfYq9qL8CNlMchCwUdWXDDDpY/6xifeWpgyT4PlP7o8K8cAwspDpdR0st0ek1KNHomcPxFTaf0bICDc2uQI1Ke+2E/Vg2MIkj4ywe/LhtnjlPG13xzpOQqZ7YOMM0G0r8G7rtWj/1Qo5oMmI29ufCwoJ0NUcrQMH3B2DgVS+soQEtrUyi3uo0D/GeWUPJH2MH0KxJcmj1l9jYzz8KF8yR1qlSadDv+16pTV86ePYu8Cl26de0qzZo1vWv8isyBEh3/DQoQp9x1WAK0jGEceX6v87+CUCj3Ln8e/n+A/+jspv2NXNh2DPxlFmekYgegqEYXfKfsDVQVLooWxYLCxQ4RHJiqtYjFm8BUkxYKv6a4MuPZ9Dat4PnVa2Sbfs9XJFOTZpK923N/GP/BkbSQjldqinDJPg+W7H0hEL+lg+TcgKX03M+r1GJ6/dhxLLVfMaWQeH7tGuwHvSKxsK+11Px5Uejf0rmTXMSyOvmfpGAhyQjfcsmKFIXllQOMm1mh8R8YMUKO0FEylNs4qVNJ1rbtJPnDD0uCzFncNf/T+c+qUSEdCQsp25/Lop1n4VCTu8pODXjCdEwzvJk7Tdpl9i7sJYNVCmEDDh1wmYr0U9HjPi7NxlHOoZ9uhyKuXcPyGviHkK9KPRwwgrUZgeiWfPYylsO/xBJWmNR+exz8PcIa6wqEdwqnYyc8XUULFKjWWB7v019zMG0xLH7cu0hg9ftPlcwPPoJYp7Kai5cwGfdUSePCCkld5+7H5GWXGLF3cd1imfEarOEO/aVavICvVFWX1LD2xoYF/V7ln47xr2DJPiUtpGOXGoJdVSM68j+4/w2vW0Ctz1ZpvB1+Ll1+/yYUUoAqoArpQMB0iMGd8gPE/Q43THPf7aJ00srcENbqYPx0Z3QA1uwz8LBw+fRRPSVNR/GY9eQyTtLz9DtrXAFLnEWxtK9DVJTxJ0xUIYVjfNaCVvV4XOEwBPuqFh39N7DMu2/1Ang82A9vDfC+cf4saINQocDJ33/TU98s+9Sw+WgjKm+oESL841+YzJs/X/r0MVbRjh06SLduUEgNQvOL8ubRz//13wyUnx3l5EEsVVfEgRmm3o7/bvxftnkU9Tuo0J+du89sayAU1/jH/cJftDKfzeQ+0DqwXNrxlx4GRvBQE0JafJ602eC5UfDT/+nXnSqzSVRxLv/cO0qMm35LpL7MYdsLn9Xt08OVbFIU+q38EzcDZYErG6cpC2fg8eDUcXxq+JbyhKfuT8DHLdvfHCyCLJBMLckruWsDE3Dw0dlbSzxUSHNBIQ2WP1vCWIGHKLwn/wPL7iOVAkEi4490LbZkprZ/+4m/4NBkWh/+GS8318NxrEW24o9hm4nZCqWHBp2qRWCbycVjh+TE9l90/Kn8wkdSqOZTtgr6S0qWD+0nv06HQopyFSATRbClhEGppHCEkL/Ayhr6HYZL48bNZeeuXfq4dNECSZkyua/9FbDrYnAg4k+cf23TkA3R8d9WwcOPliSjPP5LiCV7R0y0E/Ce4hI1GEGLGq8KKRMRVBAxMvCNWN82NA7M52jBkcX5MQKLB0QxicFMQrwz+Hk1SQaWfevyxzOvE5Dx+LRpsq8/lAoAzNGjp2Ro0EDLa/57xG/9kBLGg46FNDr8rEkEXH/sHzJQjs+afVv6YydKKKXmzYtC//k1a1WxduPhfdxMmSRFsWKSEh4CUsCtB/f8+YLDQ3LqBqxnvzRvrkovoxUO6I+bIpUquCnKl5fUFSpIHDhWZ+KfxX/WhctVdIxPwHTJ05kWUjwFt//pPdtlYhcoiUjkXlO6h7LtTz+l2+dPNuUIFIEwbPtrhL04BPJkd12c8Fa5AkGLHAspkxsPnC3p8XWiYPm7ctbxDYlMmQo/Ig0+gYWMiHCZ9VorObB2scoPP89Ja6TFr/Q4+Kd2r+87tNRuwnpJAvdBZKhahDAxTe3ZEG51cKiJTFb5RxommixFH4Uz8Yo48fykJIfSzWDpdyqhVWH9+cy+ZPGPcRRS/5eaWFgzak6LP7j/DYdjfJ6qTluAS/ZzTCEQE137u/2QUiGt4lhI3fQT6+YZ43z+SPNjab/aKwOVfot/P5TA5SPeknMH95JIpV/biZV2A0OaKiE8FIXgT/LT/yOW7H1fanL7IY2JfsBdP3mIrP16oNKvSpqF7keidWN08+ELVSH1J/nxr0Xf7PQ0lFCExo0ayuuvma0KMfF/x0LnS0Jo/1zYB12jH90lOdDxEx3/LX4udQ+pnk3bPxH22XachGVkrYHrgoibOEA2rHY+Bcjl5Daw9DIf4dDd0QjnUFPOcjWxpA9FyOG/xX/uCA5ftS2rJWjJfQwKqcHjp5+w+OfzQ4oMxg9pJcQyDakAGN34v+9nysLb8HywF7lRmMAMEh//TaQ4B+RaO1D98u8ugkRRCykPBCHUxKdDc+OQZHT4V46ChRSHmljPpkPmQjl/MAr/F37SS2htJp626NOJ6RIMENn/2Pf4lTRfYN0DKoQHZajhGZPLtH8Zhx6fA31IQwR/mKqn7B2FlHvIs5Z8zCGdAN1gDSzb/5lKuAEBEZWqVJOzZ/iSFSkb1q2ROPDiwnyan3UKwq9QWBcH2J2OP9HhZ31Y05ja302/hx+M9/gPcXGW7FWgrcTqg7kERjlPNtL+uvJTIeVyFHemMplKv+08ynErhfo2gBy2cxBGADyIM9LMhgImMnBoQceyynJAfpODV5Y7/PU3sn/oUMWfu18/SVOFVjGn+7Az3gN+Hmo6Mh6WBuAvPA5L9rnzGJB+1Hqn9b4VKdvgSuri2rU++pMVLymJcmaXOMlT+tw8HZnwldy6HK7lSi/7yQXPT/+FDevlwLBh8CO6NST9SYsWlfzvvS9xkiXz4XfzP/zIEXgaGCRnli1HOpgWRD+V0wKffootCJzAFAQufvy+qLvgP/GHw+3TGJyyZ/ubJXvuDY2K/+D6n4TWBibRAtoYVjWLf/pLTxkXPYgphCW7pNhzRv6TBNygrf21Q4yGZOkz4qtFzQlOm9m/ZB8mT41eLKmy5I3S/jqBP4lDRgBHhbPlmOU++Zv0XA3dR8oKdpj4K74mldbwiQhc6Ge/0QZWt4VarunQBXBd9IDit/LPb8evHv8xTvxP1NP9rH+w/NO/JxU+S//t5H80l+wDPh2KknfQ/4bjUAsV0nQFiuDToVRIEQLoCWz/veqHtB3oiSX5oGjyJHBgfgNi9Refyrqv8Q1tMLJki+elTJsXffJ/eOMqHOhpDJLBNPS/hPhUbLZSFaC4ZzR7coH/1N5tjpIZJhWwraFI/Y4uFgf2f346dPfy2Yq4s0shjYn+Nd98JmvGfuJr/zS5C0j6/MXVXyn3erNqpPXEjk1YMsV+YhywS49DKiYE4t+5c5c0bgq5RahW9XE91MT7mPAf2fyzTOvZSPFnKFBMGuHEtBFmFIyB/4TLDNcvYbkd1k2VU3gAaDl2mUlyXS3+gdWyqPzFxt5a4wOYwurAaAgLKeQvT0UcAnx1mCntwn/uyH75ul1ZHX95aKoCLaQoG2r81U+Huhzj53i4orY/wXGYtfJPmSYMVv7w5pUyvXdjRJlnHmKj67YkabGXX/dnh8nZvVtlp/Phg3Jd+kmxBnQ7FvP4T4V0wcfPK376182LU/ah8LNiK7GHdMMk7JNFfZqPwItH9vymiqglb8jH+XghpkLK0G7COkkKWdXxBy+Yg57Ijjya5NvGwyfLf6risQDHjT9T4Yf18JQyxtX/fxoGCymW7NmuzYcvkDRYOSGc2/V/Zampgu/KckUeKkVOS9LEieSnn5Y52fz8D8avhVnAocfSf6/43fOPm37b/h5+8NrV/h7/yQ9Ine9QkxVG+6scCn0xWUJnpELKYYudQoP+BOf1P2te1oRRgaOX9g2TzmRmMMGUxhWjASc3X5rtbyh5cvYM2fPRRwo3e9fnJKMzcbgh8P5u8B90vtRE/EXxpaZE+FJTdPgvbvxFtnbrqvjj4VR/wQEDJUEWu0xuKCD+dbXryE34pyR5pVdAIfX33ij0X4VieQlK6cXNm+XMooVwsn/Oh58eBHL26a1wouP/zfPn5BKW/y9t3SJnlv+EE/7wjwr+sa0SZMkqRb/GwR97Khl1M+xEOu59PNZ7psXMf8Lkkr1+yx55uSfUnrLXSipU3vGU7tdC10xs/3wVsdz+yiBgMfgXYbmdp3jJsTrvf62TluHe7fErEGRb/BndPn2jj41wqjlDIWwPcOEnLZexVDi2BeLB/yzFygr35ln657zZTk/YE+9T8PWZCqfjQ9E/qVstKDIbta48vKCKKwtpDKGZcPN6uCo8x+Fr8MD65ViyXGKyOPLP/afJMmbz4Y+J/2MaF5PLcJavSjSVE+CLrv0tfubgoSYeGEubDxbSQbMD8DusCcC/B3tI3V9qos/VUP1v3vtdZcei75gklXBiuVANLk+SCWFwe9UYp8xX6TP36JZo1g2HM+IiRSut7b9jHg6lwJ0RQ3koIdxvGx39P2A5dfdS7lGN1D2k+i37GOjnl6lIt63Pk++MxzLt4wH42f6L/ttbtv44UfE2wnJ2BiikoeT/MrbalH20IpSISMmePZvMnDFNQcfEfzqApwsu8oMH7DpO3SKx42B1gyy6k/EPk9jAJ+AwHgXiJkoqXbBVwVc3wyg846Q6TuBzWwbhpshCt0t8GTVBDzXRQoqQGyfra7w+JAp+frzhq7blwI4weahuW7jPokJqAqvqlv+NONTEPaQMtJBmgx/X243/dIFGWeD4U7pNT/jq7AbH9HECxr+dUC5/hO9Z2va47/uhBh0VRzB+N/26ZI9DTZQ/Ltnrt+zJBNTYH8wzl+zXT8ShJrSfWsLhco3tb7OyxAJYSLdjLytL0EKaJHV6B1qkjGvxMA5mHVP5e3b2bokNl1VMjKn9TR389dG8KPETl+y/g6Ua+Ln1hocUid+k85dlTDClcY1m/juMeaLmk3U080MwVowfSwt4VPqZweJX8Hcif1qG0KLHfy/0e/jBWI//0Gf4uhcQjLhTVE0w3UJf3ZxbK9s2p8lnnoxjfCoxFFkLwyIwceqTWzu+A8HCRTaTwxVBZBgw6GCft1oPnthllOZ30pUMzaCxFzZskK1wWcGgyhpOm1vo94r/0JjRcghL9TiuKIWHj5RED+At1tYvCP8h7N089OUXRA+n9e/r0nowfjrJXvP44w5dUEihJN4p/QIn40emTDE+VsGM2Amx5P/jfGAzPL0T/p/H6cttvXr58BfBga3EuXMBguUja+/w9y75T/zh5/kte5yyR+DkS8f4lIlg/n/btYac3LlZ85WGA+mSzdlupAMnRKeMkBVY1mO784s2+as0Uv7frv3d9C/Gkv0W51BT9TdHwGqCZbwg+TsJH4TqYBt4Cz7RXCrDtZQJOHAw5A3ZCJdEZEW9D3CIpETZkPI3ukkxWCtPoliYdPvxkIqqA8QHKxT9547slTlwOs99e6T7MfjvpFsiE2Lm/xjiPI9T9urrkUrHnbX/sNqwkEJpSYdT9k0GmYNBxBed/O1dgT2kONREovI/jqV4LNkH9z/6wBzTBNshyCiEhp9Ok4ywCDFch9uaEfUKaO3SwdF50yGQVTYi8zK7aW5Z8+Wn+OuvEbSK0WNBdP1/Dpbsdy9D3QGn8/Rt+HQotp3EQP+BtXD59FoLlb+i9Xiw7M0o+Ek/D8cd3bIGaSJNoJCmywcZjkb+W8Bzxxa84NHasXTJYnzZhnWg9BlOKhDfBa7abl5XzxPXcbCI9X7ynS/gBquKj/7o+O/G/1XH8nL+4B7l/zOz4AWAp7aDxp9zh6FQtiunmHPCzVattyG/Tp1uYg/p8HpQzIE/Dz5LWh0fQbD8t/jPQya/hELKMkWgkPIDA7hFPlyCxt/Ns3HKHvusOW7UefcLnLKHQop/0Y3/dGGkyjLwp8GXjNTvrtP+Fj8rtObL//pl4em35KGGUEhD4Ff5cOjfsWCKfkCBhKtCij2k/mCg2/Fn5RhYSOn2CSSpQpojv1Nrv0CaJftvFW+7iViyT4VtOA79M7Eisn/1IuVjq7HL1T0T602AMdFv8Wu9iRz/VSGdRsUxEi8Py6CQ5nKqzXTAjEb+iMdNP8svWLhYevXGCz5CF7gDfKZLZx+sUOMPQWi18XMSXwG8RteNTkQyrLolo0zfBf57od/id7e/qfTd0+/hv3v5u2/4jxV7o92pVBoRCHU13Sw4xcbaX+wbpNsnPHLc4G4ALqlSyCL0bY7lmYBuwWd2BOZBB1e/iizIOBZWDtlf/xMSnKCFcW/z4NfBxaLX8JnO9fimr8Vf/PvvJa798so94j85c6bs+RhWV4T8738AJbNstPj3fPqJHJs+XfEXxfJ+AriI4rjipv/0wgXye9++PvpLL4dCoeS4aFI+RE//b507q9WUBUv9ME/iJEmkme+U/wewreHoN9yGEEsKfPShpHj0UZS/c/xOhQ1dLv4TBL9MNLoxfPKBhthqzdkeQD/b/8jGn2E5w/5eOs1Dvo7wJ5kgaSq9J+x9q+H/8o22yoUccCdDC4wJrKNRiZRgMi4Iv5W/JbCQbp6LPaXgP31P8tvhwfK3bgJO0o95X8l5uFVvebhld8AnjkgspY2Q5cPf1idzMvodJ82P/ziWeCc//yRwROpk0gLWSov/TuR/35ql2KvaUlEWb/KcPNrhFR9+3Cj9rI0/GPqtEqxunzApEpf+R3JM+MfSuoMDRUkwwbabuMbHf0OyodvST5z8dOgc17fsq740ELF++pl37YQBWA43/SPDg6WkARRS2/8uANf45lROwyQ3lITqsF6x/d39nx8P4Gdkzx7cq3SU6wIlBMu0DOw6zO4PYbBk9pKtP0xEVCS8GvzsWJWjp/93+Kj88T04dEcbcX9qkTptAvATzoVjB2R8a7xwOBibDP5e/UqGwk/6Px8wWMZgtYS1Gz5sqJQpXUorG1P/W/P1Z/plH9JPP5xPwvG7lX8l8jb9z2wNWQScEXBtNBJWwBqK3y3/v0yDzA59S/nPL1aV6/of3/hz/dIFGU63T8CfB0vaNd6Ac3in/1n8RiGlyznjDYAW0mD+Ez/pVldL3LcJgLSc58enZWOi/+LJI2pdVPzlaoGGoVHwqyzg87bnDu0GDlELaTHHQqoRWptA+SP+nVRIURfir/7aMHxoA30SNISaf1ZRIUW/5/zTbPhifILY2bLk4v/CT3rokj3bv73uIU1v0APqypHvyIbJ3O4Qie0l/5EiDdorLopOTPSD2Cjjz/KhcBuHz6+SrBZw38YVD30gMMVgnvRBL2yNqPST1s8+GyBj+DlbzK0jhkMmHykVkn7y393/SEdRbCvTyiveMLh96ibt2rZ2nvzYTW1C42fmu6U/WP5Yl3ul38P/7+W/Wkht06u4+R58N24pDHlvc6KfqULKX30LZO+CdOiyNrQB82RAuO9teU3BAzsK3+RsF/Tl1QTGm2Di0QUJG9F2+dni39n3TTm9aJHiT1u7Fj4P2gefaYqthX0w8XR21Up14RQvbToijhY/T8Rv69lTy6euVEny4XOkpCoU/mMTvtY9rMycqzec3tetHUD/LXzlZVPHDnINyyuWUlpIA/Aj4dL2bZK0APeMocZB9Efim+YbmjTBF5vO4CsniaTkD/ORhcq9n/+X4bw7UbacEhafS6MKXutv73e+9qqcXrZM0woNGSpJH8SpeCT+GfwP55K9+iHF8iT8i+phJcUOUlDJzbBa8tvnPvrhXobWUTf+iJs3ZELnKnL20B4VhyffHo9T8lVcNPj5f/PadXz7eSHSq+Jb0NgP6FC8pD++8DP3KyMjoK3Nl1Be0mMvqlOXa7DYTOhYSU/IM7LFqEWSEsvyihDXC0f2yRe0FjlMa/fNOkmchocbyCfuEbuFT4o+h9O4s5EnQh7BvslHcIre4qf8nzu6V+JDKU+QIrVidUDpPeuxecZYWYZPWhJ/2Y6vSjF8btDi9+UNan/Gj4KF9AospPyiUIvRUEiD2l9rCPwqo8hvaf4Oy+eHdPlc4NpopSTHFgENyODmP+OIhwqpsZAGuX1C6nV8BvTnUe/Lxu/GKf1Ahi/bTJWMD5ZGSXABz7cibsjQ6jmYhG97Z5RW45arqyFk0DoRhz0QZfEbhbSjw2dkCKJ/HRS7n+FCibRVe3EA9rY2jJH+4/hG+eTuZikzX8W6+nEEN37675z3fjdYXWehTuRUGCykZg+p8i0IP+v8y8bN0rpdO5Wt5s2ay8v4qpq7/1n63fy/dum8jGrAz/ya8HDrXngB6mEeXPynJ4AN+BxlkTpt1U+mpZ8Ho+Z9+Lyu8PFDDnU/nihx4NDejn9XL16QyV2r46tQBxRmw09gqS7ysI+PPGU/kvtQkcpPhz7xmvHFqZkd/LTaqxszRJovXuElLAT9lPFDm1fJd70aKf5CNZpKJTiHj2n8J5+H1oAsADZloQVkIS7cTrnxb5o5Fofj0B8QyGddsm/YCexkKRMYT/zu8XfHwslQSLtrVa2FNLr5Z4X6WoUyDjhPcQ8pLKR8sPJHzHSdtR17SJnHWEitQmrHhfKKPx4OY3I7T9J03GPqH3+1hhD6KxdOyUm8tGajBwIEU3e9Vdj8pPCvtJCibCss2fPjGSaXK280/HfTTyW1Vu16wm/SJ8b+0UUL5klCeCxxy18o/KwPQ9GH8HEVPFj5p2P89o5CGl37u/Hf6fgTTL/FT/rd+FknX947oN/DHzj/W/m70/b/p/kfZcmeHQ9d3BEDioP2EX8cexsFI5qgh5qcMkaS/LD0DhdOSoTgEzQLC3BpvVD89gPQOsHCmoqOxqvuMGAa4rU8gTIQJmGbW/29hk9j/tLQHBBhliTYT5O1TTtJgINFVIiu7j8gJ+Z8L6fgvuXBYcMlyYP4UlMM+CNh/f2laVO5fuqUIktTubIkf6S0xOLeIeBPnDuvJMhm9v6d55aB7lh6BrzYUMYy4qR7SvgAjQfXIJd2bpO9H38Kd1AntJ6sG0Ppn3AS1oX/5oWLsq5WdYmfJZtkqFdXkhUuIvFxuv4WFNELm36Vk9/PkQvr12vZ1FUqS75+bwfQzzptatNarh09JunrN5DkZUpLwkxwRJ0gnlzCd+3PLV8mx2dDiUKIjS96lJz7A0bSWCgGLv4J/L96kXtIHwR0tpTIw2374FN7p+QMvid+es82/cKQfcfmt9gbD4SfVQzswfgP6KEn+sIz7f9Qw6clb+U6UKKyYx/kFbju2SeHN62Er89R+vnH9hM34JAKXi6IFvxcTLdPUH5VNnBJjG9zV+n1iaTFciHd/vyELQHH4F6Gcp2jDCxW/TAxBNG/GNa4bbDGsX2SpM2MSfdDfPe+EKyMJ9SCugNfk6JMxcFe2bZfr9av5lj8rMjKke/idPdQKQDrUZ5KdSVV1tySGIejTv6+BYrhCuFhIOIn/KdG4EAUDjXYCquiAfm/AlyX8SUezQfaSN63z1Qna/V740++NQZFGGtC/CRYbsuQFQ8mztLP/rcKk/Ev3w4BVHOIq3iTZ9StFh1uk//psLdUHcI7/W/fqh90WwHrlyxTDhwaawQXTUfkzIHf5RTa8gZ8mpJ+4i9YrYlU7v1fgxZxFv9UfKnqKL5YxcGRbnIehPubTEXL4utCx2Xbj9+q2xuf/KO1qYQUa9gBPAnd//fjANms19sosfRB+jBeZlLhIFk8vJwRa3LUMzHlwKGfLx4jsa/SDM5h+n3yPBVqSxq049mDu7UN+CUnlT/gJ4ymQ75HOxdFXPTjT/2GTWTP3j34Kk5CWbJ4kcRzvsamaF30KydwIf/XO74prfxTMcz5aDXsTy4Av7LH8ZGGbbpdhdsxWo5dISnwiU87/kVERMhXHcqraypWMhtOZFOpTYG2Po3P0P6ELSYn0SbEn7lIaXxgYIryyOK/duUCFFJYSBGbC3hrQCHV4Mgf6acy+wU+ccoJvnCd9jhl/5YPv/YNxLM8yeOhOh6us+1PBTZzsXL4ClcKzZAQX2BKmQ0HBpEfxZT+6ZSFzatV/rIVr6CukLh3m26ftmP/7q/4jKbmRwG2f7kub0pxbN+gfFj8MAGi/2x16k7YkTgENQvL8EM07tFOr0rWYuWJVZ8JLxX2ZsbGJ5oZwz6wDnl5r4ea4N7LJ39O/1/4aQ/sJ56MHBHSYYIdV/zzz8/jPoHHhs8URTz4dC2DlY1MRcqoos22O4cX6d3L56qVlUpmK1g/2f7EyT/WiUEPNU0HzaCh1ZglkiIrXoiVAYb+mORPARAm8m/E+YLWrdtp0bZQJHvAwmkw+cCFxG9gYHvGQyVQLyIGjQjdu+PToW3aIC56+deMDn6tMiL4awi0MXeGP5j/JCq6/q/8U0QGl8qWRevh/1fyH32YPdwGv/CYzsB4V1zQk44NkArN4WRTt08WnP5SbJxh1ye0zg3TWc4J7Ai+CdWBZ+MIhVZCzYE03MJfnfllGQ5G2odc8Aj2zNJlsvu9d8y362PAT4U0aaGCt8V/etlS2fXqqyHx5+zVA4pfQ4cakV1qoV2M59D0Jy9VCt+TPynh+/ZpmTJYsnfTfxPfnF5fs7rGaWeD2cF02ED648AnaZHRYyReujQB/CTQTW3b4vDSLtyRePwHfxQHbxicH+5zTVWuXAB+U8S0CYreNf+vwrfjKCzZR0c/0RM/Hc2XaNYVVs240eJfP2GwrBr3PuhXMkLyn+3P9A5WIVUEYVBI+5hDTSAiEb64Yr737RDu/DArvwVe/9OpkjJrHsMXZZmh/xKUr+9eaQbFZQ/ZEi3+x7GUXQCn0P2BuSOgkOLLN1PMV4tC8Z/5Kd0PNeoiZTsbS2kw/2fC/dQ+uJ+KCb/lD+Hlwld8aqpLn6jyd/XCaSxNP4qT9peYVYPta3zQ5U64obJx6vbJcYwfHf64iZMIv/qTF9ZHfzD0k7qTu3+TSVCgY6K/EHxzWp+v5Z4xJ6uZn1Ci9H94spjepxFObMNxudP/3fQXqYPT4Viqdsvfb3DivoQ+M4Pkn/UlrQlSpIXbr4dhJZ3DCFhIuWRPhTQEfmf8mTxlmvznP+/p+DPo88+kfHlY033BTz+BuPvf5plwkTXwdVfOqOMfBbHVOCqkOQLoP/zLTzKrb0ccXjLfSw9FP0+u1/1gIvZpwvKnyA3+azyp37CA4qVCXt1RSG1bM+H8Ybh90j2oXLKnQorVoBjG33XY77n6K1irnf6pwPWCb9lnyWEOVbnoP7l7s9mz7ep/bvwgWx6s3Qqy8AWgQCF9GvuJG0EhxT/ykOP/kS0bZCos3iofIdrf1CGQ//yaUupchZQR6od0olFeqZCmwZK9yiYLsl4oughL9lvnQSHFMy2kidKk9+Hn/HPz2hVZ8Glv2U1fpc74Q4z+4MefIqujkFpBYCbiQaBCuhFL9sTfcgwONWXOrfgtTwglJv7b9v/gg49lwsRvFeaM6VMlR44cuI/a/6OTf346VINDPxXatvhS053it/QYILz66bdkK4+j6X/B/L9b+j38fs6bu38X/yHH7Mn+4MihRrjv/TnsnUkNzhNVIaVI8v2KosY/Xk0/xNYddDI8qLQbuArPedY3SURwH5rWEkLsl2PNqbAwDhg4jAoRbsCiuaf/f+UslMlg/LGwrJEBPgQzNW8hsZMkUXgc7HgTHf6LW7fhwNJ4ubxli1zHVy0s/pzde+Jb87TImnALp3APjx+HPZrmW8du+lNXrSp5+rwk217qo9+qJz4u2StVDv5bN67LwcGD5ezPP8u1w0fAiKj0p61VS7K0biPxM2fSOlvc9vfY5ElyGl+UuYDT+W78xEP+Jy1eTLJ26Ch0HcXgxh8d/Saf5tT8ln59UCjmoqfs1TG+HRJN+6fFF3xSwcVKKgy62R6pLGlwyMWWjQn/KbiBWYIDSrRmWjXZ1AL4wLMs8D/KzzE+8EQTiYXT2zawDLcHkP7mwxbAIvqOHNiwTOm38pexYClVwnTCiab9eSp9OZbVt+oSnl+WmT0VJrPHsWycLg8twoGBMrdv/RLZhAnnwNolSirr7ZZ/Ov1/pFUvWH7r6Te7mSmY/zNffcr3hZ5Q9Ksy4GOIVUhHAnvo/ncDS7vb8anF3+Z8qU7qfThBEBXS3FRIAY/9b9+axbBGtnS1UyQskUlxSr+wfuc8RbY8uvxL35jBwY3/KJTHhf376BaMYPofe+5dtV59ByWTdVELKfYNxtT/b928iW+v/yi/zhgD11xb9JvfIFeD3e/rxs+BZOsP38qyYW/hJRXKHPPyD/gyFCguVeHhYefiabIali+ysimX7PMVjXH8CUc/r1Wnnpw+fUZKlSgho0cNV/z24sbPe8LlH+k/vGU19i5/IEd/W6uR2uZOfRKAl4VrtTAva/GxNzyo/9M5/jycKD+mvm1RHPB0fER5HmSq3PNjOGtPA4yB7c9v2Q/Hkj3x8/Ou7kNNrBfHP76AcZ8xq1KsYWcp+3TfKPgRYeggPch4bMs6Pfy3bw08gKCv2MD9kE/hoE7w+HMM1vKFeFk8d3iPYQiQE05yWINVFrDU/F1vyAJK6gE3WMuVPuLDv2PbfpHJL9TROvLipt/i5i9pMCoZDgyNgvXRsdb+7PghZQZ7qMnST8JYl6Wf86MYXyk4ftEqYfJUek/8bvp/XzEHY0NfuXTyqEGoucyF+PPClVu+inUkJ7w6sCT/3PKvL6yw1hInl+ypkPLe9j/SFtz+bvzMewZ+RytVqqr4K1euJP0//RiF+BjY/qHwa4WQt0y5CnIF8sxn5nuxd09p1bJFjPIf3fhP3Ax3g1/JJMOI/y7ptzQoUtfFw3/n7f9P89+nkGpFXI3ov40y9RlJpdCoBOiNL3v4tZu4R/fnqEaJYh79ce7xbCYYYlRRxi+HKjPBM7/NiQQEpnCx1v+WxxN/Ch5xBpa7BO9D4+c3y8PxSdHrh3ACGrniZ8iorphixYuvWCi4fwX+m+fPS/jBg3ILlom4adNI4pw5QTppv3P6b8C9yPXjp+QGrI6xsF8sbqqUEi9DehzUSobB4vb037xwCftVD8t1LJnHgmun2EmTwKKaQeKhPn8X/1UWwOk/2v43r16DBWevnDuyB470E2J5PqMkS5dZ4iVJqrQEt785Zf+Ntm3rL1fB+XxWuXrxnC73xcKeYirH8XHg7U7bP+L6TT1scQlflokHn4kpsuXHQazkgM8QvfyR/lvwrMAtBlx6vwVPCax/EtQ9SbpM2N5MJfqvk/8/i//32v8sfn6dhzw4f/SQ0p8qWz6JT9+8yru/h/4bV6/o4Sl+r5w+clPnLihxqfTdI/9nzJgpb/Z7S9t/1IghUuphHm6iLNzZ+HcLB7rOwfp+7uAuiZ84me5RTp4pJ/p6bECIefy7dvkyXih2wOH9eXU1lhKWuDj05XkX+P+O8Vd5Qf5i8DZ2kFjCw0t0hXXu6H7tS6mgLFLp4/hswp83/ofCb+L+vPnnGg6MnUUbXsLXvxIkSYl2TK+H7WLHwbYupSqQ/j8T/4CBg2X0mHHAEyGzZ30nWbHVS+GrGDqyGMT/PxM/kCEQT+j596+mX9F7+P/V/IdCiqN42oimObXPUKb8N05C1B8OGppVk8yQdlUVUqS4ErW7c3DkkrMjq5qBhc2rnwHEMsynr4WEYaCbq5ZQTPbiQsGCyI4pzQ7CrkQPP3jzP8x/nrL/7XsopJC/1uNxoClDFpUXFV5P/sAL9jnDEq//kRcYPPh3F+PPLbzsNn2qleza+bs89FARGQ8XcXZw9Maf/+3x5+9o/zNnTkvFKk9A5DDGtWohvXrAS4gzcf4d+L3519M//gz9y2chNeqeI8FGvVPhVkFz7hAdGFxKn00wjvF9fUFLcrmetkDootAJ0HCINRuVCcAGNzB2IW6iNqUCCLUTJ4r55wwTaZMCIRlztYf/f5f/C6GQbsOSPeWvHSykSWAh9eSPU5fX/+zoEzj+3dv4c/zYcTl6/LjExyHHBwpw3ybHQW/88cb/v37+u4jtN3v27NUenTdvHkmMQ6qe/Hn97982/qhCSiORWQKnqugopS6tzty6rq40Hcj1GeXwG04/pAqDkfhzLHO0hFqFUXuK66LKgRY3J/m0Ltbqr1Comqo6q1cqomYDDoEQB34MAQa1D5OH3+M/DjXBtdQWfO2JgS6fksLlkzt48ode7/U/DCPe+MPx3xt/MaV4849vSuXM7c2/nv4Bpeuv17+CDzX5JmpV8nxPuHFHGCunKobUMl3hKnxBWtumXQ01ZWGjZAHt6Ka8q5gqkmrx1EgMiihMy6gpy8io+HVTOE2fNiCL27bh4QdjtH3Iu/9d/vOzpFvgGJ+8aKNL9pkhTUGCi0dP/mxv8/qfN/544683/3CM5NzB4M2/zmSqvFAlHSzR70kofwyLPP3Dv7Z9L/pXlCX7QLFz6TMB87crl96aZ16tH1LO9zqo44Z6Jd8v7IRvQGkGtCjSVdg5AML3H6igjknDKuHF0hvc8RmADEw+sxziHMB84i0D43nx8BvF/3+d/9vnTZRDm+AaCGLxaKfXnZOyKiAqaJ78sad5/c8bf7zx15t/vPnX0z90WvxH9C9VSDkdqRLnu0EEA1VcajO8xV/IPJrqz2DcPiGnryxLMh1x+IqNgeJAI3i0vjlWZctobnPxwbgT/FBJCcLW1FfWw6/M9PjvyZ/X/7zxR0dxb/zVecibf7z519M/7iv9SxVSo7Cwd0KjCwrO0GXVvKBU82jzUB0Mh0scKp+0OjFeg9U1nYzEYtJ41fcRROAe+P1p5k6L2PL4NVZWk2axaB5FZGB4+C1nlClm7CVrHEYZ7jGNER7/lQ+e/Hn9zxt/vPHXGRV10HTmMDV0OFOLN/9wtPTmX8MFo+U406qRHBUWb/69Z/0v5B5SP4fBZMNnlUHz5LoGZxS5cu2GP6tf87H92/zCUBqJDaCxsAHDp7b68uKGyoHqSU4kHp12phw4gWkAxEmE1j9NMCda+aTBRvPB3vPXw+/x35M/r/954483/toJxc4PnCi8+cebfz39A/3A6RR/o/7lt5BSaQNiXdnlPYNjNTIPIa5UDllnBHOL78PDD6mlg5H27VLNc9rXHQUSr5qKiwUR9J0C+Nz4dQ8o1/TtoGEy6qOyyoff6OO8KhyHjx5+j/+e/Jlu7PU/DkbkhTf+6Au8N/568w/6g66aefOvp3+AA9w//U/rX0Yh9Sl21PhMCIxyPblubV73r/10qNEJVT1UddI+W+VSny0sckGPzPsh2SSN0XUS5GEhuw1VAfjz884dZe49/NZ0bvnh8Z+S5ciKFTJP/rz+540/dmjQ/mG7hukseLIzlTf+msHDPdkok7z5x80SO994849ZA7b8sJ1Mn20n8+Yf3/wTaCF1OpZhGlnmCpZ5rii91Xh/YvhV+CHlMjo0R+tax6baX5bT8Y0RTjANZju1Y+m0ifg1OmlwsyIBgMJwWMPiMtqvh9/jv18mrNzZX4qVJ3+mT5EXDF7/8496nELMq6zhjfIHwmPdAFleaao3/njjrzf/ePOvjqAYEXSS8fSPe9Y/+OlQ6xicA6x70tYB1xXnTrP39tfmtRZSPptB3b5S45nLRBzAHZimjInDVx0Vt3XtZMqbq0LQsmbiZKzFq1OHAmRMYPDw8/3U47+VGk/+vP7njT/e+OvNP2b+NLOlN/9yTPD0j/tD/3JZSB0VT3+sukeRdce7no00R7mG22/ZM8X2fP01D4Smu0JxQytVLGeTH7qFKaA/zj2LOPH0WGMsFOZrKoTNLa4MBrK52idXghNl0lnEw2945/Hfkz+v/5mBxBt/nDFXf5x7Dpne+AseQIn35h9v/qWuAgOPvtKZYYMdxNM/wAOzQu2MGzpm+BhzV/qXSyEla/3BgvbFIIIKjI5RiHSfdzJ5zVUtpLzlK4c6GOVQb97KfbBg7eTGemazzWnTtM2R5l9wNSlcso8ATC2Fe79V18CPxWUTVpDBw+/x35M/r/954w+GV2/89eYfb/61eovqB57+cf/qX9btU5Rhy61xaisGXqLkd5LNkj2HALp0ci0XM52KpCoKGCd1oKTmaETFB89KDiaTMGinahVFXRjN3DYwv7HuBMabdA+/x39P/rz+540/dnzVYdUbf735x5t/aeT09I/7VP8K4xZSRye0up4qflYvpCsAKoYMfvXRl9V3Y9NUIWV2NjrWxqnXclA0Cqcvuz/OKWhsn5rZjwdwUD9VPGn8NPu//Mopq2Xg4xcQfQ6iPPwe/z358/qfN/544683//jnWvf0a+dkb/7VdzZP/zA6GkXEEQnly9+tfwUt2fuq4oiu+9l9HyLZiQq/dh13xuE9raASgabmxMB0aJVKNrVIvqnhh7qjPb1qRk/mscxhKeTQTOaeaSzIJ73w0QmmHK0iHn59AfD478mf1/+88ccbf535wplZvPnHm389/eO+1L9UIXVbQY2WRw3P0fRUDzTKoCqB/hRHHzRpLMGybsf4RnXEVc2YyEeTJv/j1mfnZLK1gipOmrYIiwkYQFCWX3XCBWWICylMZxR+YzFdC3CwoTIKZdZJNz+4evgNwzz+q1h58sfu4+8kXv9zVmGUJ974o2zgxRt/vfnHm389/eNv1L+MhZR6HmdpDEK+WzyZgYk3tw8sx3AVnw71aYR2Dd2Z+0wOToYmmGRHYVSiid8ooT7NgVmRxX4e1NTSmVBVs6AiyhVqA5X3Hn5yAfy4D/i/ZMkyeaFHT63Ohx+8J9WfqHbX7b9+wy/SoUNnpen557tKh3ZtVU5UZjlpIsVr/5jl//rlS3L1wllwSptCf8m3MCxfJEiWUuImSoiEmPvfzWtX5PLZU8rv2PESSqLUabTMvfD/1o3rcu7g73L+yH65eOygxEuSRBKnzigpsuSR5Bmysmbs9FpPc0sskXLp9HGJQFk9wOiMGUpH3LiSKGUaiRUrttaJef8K+Q8/f0ZGNy4M6LHkwdotpWK3D+5a/g7/tlqm9WyAcmFSpv2rUqLps3yz1np74583/tMIE538Oyne+GcGBe0z9zL+cGDx9A+OkuAe5e0+GX/CjBdSNo8NVuT5zHsGVjrgR2N5MdH+xPDrUEgRKCQ+SyWSI0BwLJ3wmGjys+M5ThQQ5zDGUTIJIyR+5DNWUX8OR422ldEED//9wf/Fi5ZIjx69tf3f7ttX6tWtc9ftv269o5CiUdu1byc9uj3nk8xg+VPBgwR47R/Y/htnjZVlg94wnSZE/4ubKKlkKlRSijfpIpmLljX5fFxm3xQ5sGGpzHi1pfa/nGVrSM2+I6P0/zvh/56Vc2XZ4Dfl8skjIft/isy55cFareShhh2dehj8hD0Fitzx39b4asaxVLcGMRH3KbLmkmwlHpMSzbpK4jTpNY7k/lnjz5ULZ2RsoyKKP//jDeXxFz8HZiBw8POHgT/RjX+HN62S6X0aYxiMlGKo56PtXyERKEBi8KcFCYVwGQxt+uONf974DzmxksHfu5U/b/41XPP0j/tP/0KbqG8UM6SadtIh0H2JJtqdxXfvdozPSA7MZiHdZNHxlrG8YSIHYdulGOWMvYxjR+P+Umbhgj3za3YDio/+QZ/3Trz7h3k8/Mo6Zcvfzf8li5fI8z17a1u91e9NqV+nDtoJrXIX7b923Xrp1LETyoRJu7Zt5QVYSRm89r9z+f9t5jhZOuh1Zbu+BDr81+064CT7DqPI1AeqNZEqvftrrLv/qUL6cguyXnJBIa1FhVQbwWkLTQm8MNnd/1aNfE/WTRpqlEgkhsJPCKmy55cWIxdG6f9TuteXo1vW+pG48Tv1t4lVXxogBao0CMD/R+X/yrnTsJAWVRQFqJC+9LkOPE41LGrfbzD9xH9o02oopA2VabSO0kpq+e+Nf3Yc98Z/b/7z5n/3+Mux+f+9/oMJgWOhGQU4eoYKzOKMlJyAosvGor5T9gaqGWi1BBZVAUMnvSAchKe1sEvMrnSTFgq/pgTmNLNNwOzIanBo47To4f/7+b8ICmmPnn3QwBHS7+2+qpC6Gk1vb9f+VEg7dHpaZbRd+7bSXRVSr/1Np7XcBD9ikP/NM8bIkiFvaJacpatKvsr1tGDErVsSfvakHNzwk+xft1hBso9XeuEDWClbas/RIQJ998A6WkhbaFyusjVhIR1hkeM3Zvzsf/vWLZHZr7bylSne+BkpAOU3WbpMEn7hnJw7vEf2r1kkv0wbKamz55OnRi4KwM/BZErP+nJMFdIweaR1Tyzx51J4Vy+elzP7dsjmWeNVSbbjTIuxyyVlZub5c/r/lQunZYwqpGGS//EGUhUWUhNuT78dfw5v+lmm926kxUo0e04tpN74ZdrkEAAAHA5JREFUB3Z4439glwZLIFX60hZ1/tUUlSFzuXP5cxXSW4MDtx7/Pf5TYXKFv1v+QizZO7VRJZT3rFLUYBS9qPGqkDpEqSKImUH3ReFqy0TqxAm4iDAKrpLtm9MI1UyCvDP4nRz6zDdHa3XxxzOvEzz8yoj7gf+LlyyWF6CQss360UKKJfu7bf916zdIx46dVX7atzMKqdf+pmfcqfz/NnOsLIGFlKFE8+ekTDssEwf1v1+hCP407C3Nk6FAMWk0YCbuicFc969fKjNfMQppDsdCeqf42f7fv9VJ9qyYC2CRUrnHJ1LwieYh+/9lKMj7Vy+UB6o3DcDPbj21h1FI2f7Nh82TtLkKqlzgUcOFowdl8vO1JfzcKTyHSYGqDbCsPkDlj+W1vn9g/Ak/bxRS4qeFtBoUUme4Ufx6cSKi63+HuGTfuzEHOSnenEv2r6IYCqFyrBqDN/4ZfpgWc9pNOUOueuO/N/4Zmbib8Ydd64/2f0Lw5O+v7H/Okr32ddti+mAugVHOk420v678VEjtN8OZzJcu23l8wwq1UH0bQw47ORBGADw0PNLMhgImMlC1xeK9VZYD8pscvHr4ofyDx2TPgX375QasYMmSJpF06dLLyVOnZNPGzbJ77x7JlTOHFCpUQDJmyES2heT/mbPn5OKFC+BpmGTNmiUk/0+dOi1XrlxWEJkzZ5Y4cdhGBv/SgCV77iGtLQcPHJJfN2+SE8ePS/4C+aRggQckVapUIfGz/amQdoBCSogd2rWX57GHFA8B+c+fvyCnQBsDz7XkzJFL6Q+Wv1u3bsr+/Qfl9z27Zd/efZIufRrJmycv/vJIvLjxDFyFYuTv5i1Y9pCPIUmSxJIhfYYY5W/Pnj3IaQQzZ65cIeX/zOmzcv7SBWRDPsh4gvgJ0QYZbDHFxYr8mfJvluzfQM0ipWTTblKm48s+/KoVAus1WBlHNCzkw9/1h71gZhxlNSMPrF8is15ppfTnLIcl+zdHuvjlFMNPqP4nEbdkRP0H5Xr4RZAcJs/N2498aJ277P/TejSUI9xDivZvNhQKae6CfsTO3c7F02Te+89rK6SBpbWZY2llZalQXrsIeY4dJskzZg+J//KZE6jnFXimi5Qk6bNK7NhxHMjwInL+rIziHlLgL1CloVTFkj2V32Pb1supvdslZZbcki7fg5IsQw7FHyx/bOTDG7Fk/yIspGj/Es2xZN+OCimCERu9DUdbXD2LA1wUEfS9VNnyaoYo4x8KXcRe3DP7d8rpvdskDmQpTa4CkjpnQRwUSx5F/iIjbsrZA5BRVCxeoiSSJC3ljp1JwZNFTjDyd2rfLl9C6ux5kOyNv978Q6H0iYUVGN9vqP5vxMopRHljx3DGv5jkz5v/XV0Sff3/e//zW0jtYGh/feIV9cZkCZ2RCqlaRDnRMOhPcF7/s7Wear7A0duReQyMCsaB54BUdUe3APDOSbPyjhLsFBr0hxcm2uB//v+M//jxE1LtiZogOlIaNmggWbJkls8HDNJnyw8qjk81byx9evWS2HGhyfnfHpRj/ZF/3NjxyuPp0yZDic2p3Hbz//W+/WTmzFnK3AXz5kqatOl8/Oehpu49eyEtTN547RVZsepnWbRokT6zAPGzrV575WVp0hSTdBB+ts/69eulPRRShnbtzB5SN/4DBw/okj7pZejQoQOU1mf03oiGae8tW7bKiy+9IocOH0KakQeLPwsU6Y8/+UAK5n/AJmmOYydOyhPgIWWM/Js1Yzr8WsZCGmAGyd/vu3dLw0ZNFWXBggVk4jdfhZT/Hr16gwdLtH7EX7ZsaRk6aKAZpEPQ/2fI/+aZ43UPKZFymbgMD9IguOX/6iUoWw0K++h/bs5eCYsTT/lA+g/AQjoDFlKG3GWrS81+o1S5vJP+d+NquAyvk0/LEuvTM3dJ3ASJAvAHaU8O3sD+PwUWUu4hJf+bDZ8vaXMWwh3bF8Hp/+eO7Jev2pU1cUh6FnTEihNXn1eOfk82fDtYM7cYtVhSZMunsBSEM/4s/LSnbJs3ScG1mbBBkqZO78NxBQot95ASf/6qjSRtjkKyfOTbmtcgNE1e8IkmUhHbHmKDfybGP/7ooSZaSBGK66EmvhzgwcF//ug+md6rsVw+fRTdIUwehhX1kXYvMbsGZiV+WpIXf9xb9q4zWxucZAUF0YSyPEDyV26AaFOC6ZdPHpOxLUrgLkySZcwmLcet0A+PuPFbYrgF4uvOj1MFlTR5C0vTwbBuI1j8wfKv5ZCoMuWNv8orZZbDMRPh56C5o3wr03ztb/lvxDlQ/v2lUSZo/PH4D+548gcWmDmVsqKipxf/+GN7sEm+v+QPh5r4muIOfDRdwcQ693yrsdH8RbA53U/GMT6JZDcLAu3EqU9anXgdCBYuAJlSrgjEqBUFDr55q29TOLHP8c7M3U66kqEZFIqHP0yOHD0q1Ws+aZrHuZLjofhf6bHH5LP+n0bhPxXYMWPHKd+nTvlW8uTOAwCB/H+zXz+ZMcMs7y6YN0fSUiF1IC2GhbQ7DjXZEB1+isqzzzwtXTp3xK1tR5YKg4UUe0g7YA8potvzUFP3rr7237t3H5TRznLm9GnN2/W5Z3AAqgOyBsrfpMlT5N33PlCJtPSnSp1SzpyBKyQXusED+ku58uUBizVlCJOuz78gy5et0HxjRo2QEiWL+/ATjz5A/j4bMFjGjh2rZd54/VVp1JDKgDuYOvXq3UcWLlhsyqH8o2XLGIUUWf8q+d880xxqIlWloOCUbgslSJUG1h996cZNWTrwNdkyF0o0IjIXLS31P56s94ZY7CHFKfuZL7fU9s/9aA2p3nckcvrpV0DKN8YG8h+AZHjdArA8XlL5q/byYMlbCR4XtDx+HHbfjv6p3RvI0W1rtEpNdMkeFl3S4er/Zw/ulq87VARQE7rM2qWWQ+JaMfpd+XXSEG5pluYjF0jqHAX81UZ24l/wSS8opN9q4XZQSBOnSQcGGT6F81BTUyikQBk8/uhE4NDPwpmLlpF6H07ECwxe9DQY6o5iD+m0Xnj5AhB6AyjTAS8HDv1nD+yUab2bwOp6UkuUbvuSlGzRzYffjn/Ht6yT6a+0lJvhWJlw6I+TMCmeL6Ic6uqEks27SWmfMmvwz3mzjexdtVDLNfh0mmQq8ogPv5v/q8a8L+snDgGkSOwp/kgK1cLLCOeBoP5v8Ru8JCR0+zOec4Ltf1qOdWV1Hfrd+A0JTCezbT78evgNSxxOe/yHfLj6vyd//+L+hxV7o13oqGCGgFBXM8wEp9hY+ws/pHT7RPnAuMHdAFxu4iAToW9zLM8EDEt8xi3XpMIwwETC8b0WZBwL6whlf/1PSHCCFsa9zYNfB5eH37DwyJGjUqNm7QD+v9Wvr9Ss/gQsRnFk7do10qULlDuH/yOHD5GHHykVwP/PBwyAQjpeW2PaZCikeXJH4f+bfaGQzpytbbFQFdK0vvZfsmQpDjX18rV/4sSJZcDn/aVYsWJy8+YNmT7tO/ngow997b9g/lxJSwXA1f5csqeFlC3dvl0bnLLHBI2nnbt2SNt2HeXyZUzKeO7Tp5e0atFci7rl7xAsqDXrNjDzH/I9B8X3qZYtJEniRHL1Srh8C7r+23+Q4kyVOpV8P2umJEqYQGES2GLQ8EKPXoq/Xr068lbfN500o5Iwzy0s7T9eraacPUPFWGTZskWSNEnSkPJPBZ2Hvaz8ly1XWoYMGoxS6Dgqzi6ZVj5oiiYpcL0wjx+/FoxB/jfisM+ygdxDGgYFpLRkf6SK4o/Al9WunD0me1YukEunjiiYhMnTSt0PvsHSL5fD2bfN9aCzh5TP5lDTcNy56hoDfvb/OX07yN6V89DWpBOW4c6vSb4KdSRp+oy+9r8d/dxDak7Zh0mzYT+gjlBItY6oh4N/88wvsF8WJ9cxtqTMmltajVnqk7+Vo6lkgdfI+xRO8aemhTRo/Fn4sVVI4dVhwjr4R6WF1FAafv4ULKQPOU+G/xVfeB97VRtjhSGeUNmc/WZ7uX71kuKv1W80rMlP+PATyuGNq2Qa3T6hyiWaPCuPYvsEx79Te7bKVBzauo7tLxwzy3V5Sx5q0AG4fBTqfQT6zTewXJ479DuewyTPY09KuU5vYntBZom8dUMOrF0iP7zfVa5fxvYIIGk+7EdJlbuQT/73rvxBZvfrqPgLVm0qVfp8HIX/EYAztnkpn2LccdoWSYAtAP5wd/Lnjf+Y77QrgW/e/OfN/xyrtAt5+o97/FULqR1sdbDxPfhu/GNQNHc2J+cZKqT81bdgM7ugI2J4RW8k/5mXwX1vy2sCHthQxrrKXK68mmAh2HgHNqLt8quH3/D/yLFjUr3Gkz7+d4ci1w4KnZunixYtlu69eOhI5NFHjaXOzf/PBwyE1c8opFOnTIKFNJeW98PAUjwspDNnzFL+L5j/vSqUtv0XL14MP6R9TPujjUaNGiYlS5YMaP/PYIUdSyssQvu2baT7C90C2n+9o5CykFpIccr+Nyy/P/10F7l0OVxh9339NWlQH0on5Cy4/Z9/vpcsXb5UJ4TXX39FGjVqGICfEjV69BgZOAjWIDz07PG8tGnD0+BG/m7euCEVKlWRy1euaPrKFcskcaJEDgwjfytXrJRnnn0BRSKkzpO15d13+gEUy+MaJP89wO/F4DvxMpQB34cNxpI9AyLd/GeUgcIb3JE4JzjQfbyNSf430Q8pFFJ91yMo/FlI/OUzQxb4IK3x5nCJn5TKh4m1eQ9sWAYL6VOaj35In4SFlDRq3waQmPAzz9n9u+TrTpW0vIXJh5TY55n1obKSo1QVyVK8HJa54wCuv1a+vKB/avd6qpAy9SlYSFNDIXXjP759nXz3Ugu5CYWQ4cEnW0klOK+3488KXbIfopQ1GwGFNEd+FyYUAOBFWLLfqhZSKqTrJYmjkJL/3C/KJXvi5yv0w617S8lW3VW2LP371iyW2a8bbwLp8heVpgPm+PCzHE/Zf9e7kcLg9onS2D5xcudGuIJqKjeuXNJmrtj9QylUExZJBDf9bP9fp42S5cP6Kf48FetJtdcGBeCniBzbshrKbUMtn71kZan93hc+OFRoRzUsrNZqZug8Y7vES5hE87JSFLP9axfLzNcMDQ9A2a7Sp79JuEf5s/wn/Qw+mnDPOD5rcPBH1/73Kv8efjsaGTZ7/A89/ln59+TP3yt9svIH5p877X9RluxNNfyVofgGxHFAYsWiCXqoySljRh0/LL3DhZMiIfgItbAAl9YTXJGI4d4poAM9rEF4p9B0TbMKLvMwECZhm1v9ZZwZwHjjA/c/g//ocSik1WuBckP/wgXz5P/YuxKoKo8rfIlNotIYo2A1xgXX5vSYGFxxQ4VYibaKS1AxLoDWUBOTRmPUGioaGtfUoMdjZTHuiqhAE0FitBgxCaBEK9rFuIupOW1to0Ih0u+78/8/jwemZumprW8OvDf/bHfuMvPfd2fujA+ch1zpX1ZeLn369oeVEcoW6P9B7gGpU/t+xA39l8e/KYlJ69DGTdmZsk1aUyG1nFFs8r4aM0/SMjJA/wrJ3pMpjXxhISXBUYCK1wvwsmdo3qK5pO9IVW2ZdbU+vs+fPy+DfxyKBC9p3ryZZOxCGRf+5+XTqWkSXsBQEKCwBvYNlOipU+U6+kxxjFsQK4MGP1Uj/69cuSLBT4YQvPjByWgnrKH8teQKn3mlpaXSNaCXylef3j1lBfB2lb/4Fdi6kJis+bGxv5AhcM7S/iuiIjNnzZaszCxU8UI5LOv7+1sI2hLpNCfzFrwmWVlZpj5g9+zRQxYvel3x/0/JP5fs6WWvY0THjqGBbWMlDUh/wm/VPRj7D+PlPu96SMPUDIHhtbznC3IkjQopeOPXa6BRSC38icztjL+LRw7CehctJVj6Jv3c4dd+sKF0H/8SFMlxDsFs+OzFdiqkRQWq4PkPmyR1G3xPu879r3/55KSchne+EwDgmbXvw3mppSaxq4cS4qRg20q0BAspFNIGUEidYOH/3pIXsWS/XdkfsSUfMBqjtJl/rlMhffoJhc/+T9iYJ9/1aQLkK/GnA9fasd1xq1QxcKiQiK2FuEXKjAnS6MKxQ1BIYSFFfX8opDyGKw3L72Ul15T+A+Ao1T4YS/oqOpX0Z5/Jnw2RgfJXHJHF+hHYUlC3AVYUXOAznVV3zQyTC0feR8xLonefgSMXHNSQwfH/YfJCKdgcr/QPnr5Mz561+c/5NwsW1j/sS0dShYQuSZWmHbqiFc/8S/q7z38gcI30J0/If81klDGL/syy+YSoCZb8kf6u85+r/HvgW7QBIR3yknp4UNqaqNK6sgBLeuj/vyB/bgqpdlmZZ0aPw0aTZjPVetKxCV7biFIA9NgnpzQjFAbrtYOoERorwmxWtgIHohEzJFhdsdPYCpf5tQTyEJWbaJbfrENlSE0GLu2ZZlnz7oRfXAyFFEv2xL9d23aSkrK5RvrT0SdrTzaoWCEZ6bvgTd/Mob9ZsodCCrqmpkIhbdNK23Cl/9yYWFhIsYcUOmx21m5VSA3toZDu+y0U0p/hEUuHo8Nk1suwllImKAgM1le/oAG63M28wsN0WmEZ/lVInnNTkxeUSj85DU92Gz6tqRMnTrgl/wsLj8r4iRMByLQ3aOBAvCOoXnyh4AlfJ3k87dmD5WSU88ZSfu6BHAc+086fOyeDhwxHPm7X6fi4rFub6MjfVZxC0KdPf8WfzlF0fLrnHhBDA+DeAfKnTk0rjULqPwpe9pEztXc38YPkOpxjPjtVJHkblsqnvz+q6U0fC4AikqL0J/7E4iwV0lljNN4aXvYD52IPKTI0/yuMv7LSEjl18B05mb1dlVwFiA97rPP50SdxOP+MZU4a4XP8UyHlOaQ2/93h65yEsvfC4vfDWSulJZRrV/qrQrp1FYBVyGhaSHEAvx1s+HuXwKkpa5vy3yzZUyE18KmQ8hxSwq33cCt5JjmnRvz3LkYb2WgDNZ9e+Rtp1PZxbY9if0G97I31sgG2DNBDnoHwAyLniD+vEuW4AAy7Tzb8L2DdXBXS0sG/fdBQBz5lk/jrBll8XcY+088/u4zYTQlP2A9LdFsdduTX3y59Asev3gqnyQ+6yPA34KzH+vgs/fyqrAnl3lyBMt/McnyCaxOQ1hKAcSv6o4BbYM/vzvnXEMKDv4f/HvnXyQRD4d/pf24KqTMP6liy5kS3CcZ+NLnuZaorpOwKFQBOdfrq0jmL9bB1S3+tc+KzJzJtz3pWSx4SuA9KJ1pgQ4QYODGyZX7y1c+ydhuIVQl3K/xie8kedOoJqx8ddkgL0kzphg/SbeGiJbJp8xZNTEhYLV26dNI4895cHo89pOuUnqnbt0jb1mYPqSv9YywLKXm0FwqpbyNfh/50auLB+OT/81PhcAQPeHf46JKMCR8nx39XpP3J2f+u1H+wvsbJb706lF72RppZHG2wFSqorWTLxnVSm3s+meQW0tLTJSZm/u3JH+qrzAFAwUcfYE+gsSjZ8hc5ebLk5xUo/PS0VFhzWyjIHTt2SiysnsT/xWnPw4o7rkov7gT5+xjnkOasmIO+e6lnd/eIV6qNv7KS67IhIlC9u4nY0MXbsITfwxl/PPaJ55Ay+MHLflBMguL/TcZfeVmpXDl1XA/EP5G5Vf4BqyKVHTY8+LX1WMbv58An/1Otm5rIf1uWWZxMqde4udR/2A/ORD3ksSHjVSk1WZXzzyHuId0KpyZkhK+GhdQPCqkFj2WZziV7KqSMR3DJ3odHfeEB8NWpSZfsK7DNoJcMWbS1xvnHOARxXzDwmJckLQIGAIzp8wU6NWHJvtr8BxgPtWwHb/a35Tv31XHk35Y/wr968YysnwBLvtWWdotAgAP7yCGi+DDNCkQvFAonr4a1acZiabDS8kxUlh+bdEDqN/VTnIt2b5J9b7ys8Z5Rs6VTGK7q1XY986/SF7Sz5x+S5ZvIv7633OTPln+diwDAlf8e+CA4gof+OiB1jP4/yZ+jkBr0DLOrflab+syszUGk5NCIU+VGaTni+EXAUaWjjSOKRfVD65gBRohKSnxzqjaTNdu0SyIDgTlcrK38lQEPAdM80kxbrjUY98AngYqLP8UeUi7ZizwVEiK/jJuPGOiLPGMVNPSnJ31i8lrQ2EuWLH5dBgQHoZQJtJAmJq9X+qdiyb5NWyikbvSf+2osnJpgIUV4F0v2vr4NHf5zD6nxsveSWa/MkFFhWKp0g0/+T4iMkiOHC9ECDlBP3ymP0EqrgRbSQhyMH4Us8BZd9q7jDRg+cubsGW1r5IiRMme2sfixLVf+J8Hr3Rx1heNzuuKudv+OWLGvij/ruMtfFDz1a9WqhbYq5S8zK1uX5on/lJ9MkmefnaTwR4ePl+PHj2tv3fFnfe3Sf1n+j6Xx2Kc5ik0Xx/O6+vg7krJKctcsYK+lS/g06TZ+OuJm/J3Lxx7SOVBIgT8tpCExqy1efjvjrxxHQ2XOnwynnH0Kn0vZg2KTHPgkJJ1+io/lA67IiPgMadQGe0hBWy9uw1Bv9qr8d6d/Lrzsj+DqUsr/6F/vwx7SdsC0Kv/fg4W0CMc+MdBCWrdhE5Qw8w/PMU0c0VHht+qNo69wFivhKxytYeDnbfyVfPjWMk2npfdROA+ZMhVyCVeH7phOC6mh/73wjq/b0FeuXjitZTr8aJwEPheHOEOl/LGfl4vyZfu0UIX/QJNH0O7IGuFrAe2XmQu/HzQSxzxxTFWO/z/uz5CsOFhj0W7nsS9Id+yHZX7Kc4NgKf8Y8er4o2i18V8T/pXw7wz597x/bBmt5L8tf+7yb5dUAXCTPw//PfLv/v7/Nsc/FFK4oqqUGfGD/FmPTsTKqP5VtYR5pZeoQoocl0yd7jk54qXB41b4MtECKvlWQXsUsBx/BvJfJ1SrO6ZGlU64gNBc9dzXOqyLJIXDL/TtLoSve0jp1AT8AwJ6yKpVK2qk/+sLF8vmLXwBV0hyQoL4d3rCoT+dmuhlz5Baxcu+ksRmyd8sd+9VhdTHyTQW0peU/tE/nSKTsRe0Jv6PGhMuJ06cRD0vyc2F05B3HY0Trn0wPuN1sZy+NikBB/0/IMNGhuk+UqYvW7pI+gf1h9hYgmTx/x3s65yN/Z3kf9SkSJkaHV0jfJUV1mH9W8jfjZIS6Rc8QGHyIP9snLnK/a9DQ7HfD7Tr26+vLF9mlBA83lHyd5QKKa4O5fjrjGOfAiKgwCuprI5aZDt1IFN2z4fyDxq0DxqhV2Myi4E3NfEcUj7zLvuQGCzZaw4/MMbAWHf6M+erjL+zH+Hw/Z+PVfj1GreQcW/lOjDYU55Daq4OFQmzbmoijNuFf3BNHBRSOK9BwRyNA/N5RakSwsKf/M+MmyJ/ysEPLMRtpyYDQYTnkJqrQ0WadOgmw5div7OGqvjnAs7hFGOJHQpLb7PO/Zz57xIspDtnDANYL5zF6q3L5fdjv+6myUFwarqm3QnBtaytcT0rg01j4v/3P1+UdWO7abovHabi39b47eLvOv+W//OGnhhQduOa1HnIRyZuyocF9qxsjAoE0ArxC4AVHKcEuMK3gOmXJTlfG742bEyvBkk2+CXjj9muwQO/Uja+Dv899Ic0eeQPRMAI5yC/A8bfvwAAAP//dz/vUAAAQABJREFU7F0FoFXF1l4XURpp6VQQUWnpunRII92iSIiAIigCkoJKN0pKN4hKh8SjlEYE6S5F4tL3/741e87Z595zQx+85/s5A3efvafWrJiZtdfMrB0UiiAa+BNkbnENxb8gffbeeRLtjW8RjQ25cw8lvTWxjoeIiYG4h/iLEWTqCw1ligNaS/qWCkXuIKdUaBDyIj9b5TRJS6Aq0Wgn0skRgA/qkBbnzp+XChVfBz1CJVOG9LJo0QK/9H+vY2dZu26dllq2dLGkTZsWJQz9R40eLeO++lrpP33aZHn5lRzKBmRGnKF/4yYtZM/ePQpz5YrvJVny5HrPPOvWrpd3O3VWTtaqXUt6dO+KusH5MPwvXLSY3LwZIvHixZXNG3/0wKfUbN/5s7z55tuoLVRatGgqHdq3Z9WycsUqef/DrrgLQrk4smDubEmZKhVyGfyZZ9++/dKgcVOFX7V6VenT6xO/8A1SVv4pmf7l74vBg2XatBmsWsaNGik7d/0s4ydMxFOojBg2RIoXL+YD35/8X7t2Xa79eYNU0HpixY4lyZMlxX3U8DWLKeahvylHqhos3Phb+PuXTJa1I7uDDqGSp357Kdi8mwe+NsJp9bEty2VZz5Z4CpUM+UpJ1f7T0MdM/zu5c50s+aihAslcpKJU7jHhkfe/B/fuypjKmRU++3+7FSc98Al4fqcacm7fdm1y/TErJGmWlxy6RY6/HX+2T/1ctn0zDDUFyRsjlspz2XIZ9BFj6T+vQ1U5d3AncsSQ5jO3S9xkKT3jT8ifV+Tr2jm1zLMp00vjqZv9wl/5WTv5dc0iTas3fpUkz5gNEmXGv9O7t8qC9+so/fPUbSOFW36ElFA5smGZ/NC3Ne5FYsaJJw3Hr5EEz6X2wT809IGMKp9B88R9Npm0mLsL94bzkfHf4h92/N049lPZtWAC6giVqgNmgLbbZPt00idUqvSeIpkKlvaB74BS+Lb//zvwtSK9eOnP+iLqfwH4yqoA/UGBgPyh1+qU8ff7vwqSXv4Z/S+ICilVUsw5OghxAgvbPtNU19XddpTif6cCCbl7jw/4YyTTcB+DlXsnDCT4BFVOmEWVALSA9xi9TZsYz6lBh3O9UhAlButmNc6vzYyyAfgkQigU0nNSocLrHvovW7JQ0qZLRwJ5QkhIiBQoVAy0NpPAjq1bJFasZzz0nz13rvTtP1AVmaFQxkqUKqkDgaX/zVs3pXDh4h5mrVr5vSRPngL1kzmhsnbNennv/Q9wGypJkiSRVVBYn3rqKQ983uw/8Is0aNgYuR/KS9mzy+yZ33jgs5btO3+SVm+2QjoUhOZN5T0qpA7/e/TsJYsXL1X4uXLmlIlfj0f9MVHKwL/2x3UpHlxa4VPZXbn8eyiv8QjWE/6K/P1y+LC8Uae+wi9Xpozs2LlTrl65KkmSJpWVP3wnMZ8mbEN/bYMf+X+v8wegy1oP/EKFCsnY0SMVf/a/xyH/exdPkvVQSBny1msnhVpQkTfBjf/2aUOgsA3Ge0CovFimlpT5cDjaZfrfyZ0/yqJuDVQ5y1ysglSCQmpwxM8j6n+3/4DCVxdKIuDHTZxcWszZ5YEPosvcjtXl/L4dSv96UEiTZc5uWB1N+HuWTpV1Iz5SDlXq9bVkLlzevBxxzIH83Q+5KeOqv6jw2SeazdwhcZOm8ow/N69dlom10T5H/hpMWCNJ0r/gg/+De/fkq9ovy72QG6g0SFotPCCx4if0SMWZPf+She/XVuLnrdcWLwdojwN/zRed5eDKOQo/9cuvSfUv5krQU0974HMUnP12Wbl8/IDiXXvYYkn5Yh4f+FHJnwJ2LpePHpSZqI+4ZileSc7u2SohwDFOwqTSYiaU8pgxfehP+IHxF0QIzD+m30E6+P9R9f/HNf4F9I//Ef3LqKPO6OT+USGLKMJYOXVg4tzrCrfv3MWwzgkMcuqpgzeIYQGMaEH4NeRxFUQ9TGZO3OEeeThKOzGO1Gsq73WSZH4CsgHP7nfrJx3+2XOwkFaqAiKRMDGkfr060rVLFx/6z54zR/oPGETCSYWyZWXgwAGgppf+tJx2gAWVdK1YsaJ81r8v0r30nzRtqgwZOtxwAGBWr/hOkkIhtfxneVpgCZ8M7t+nj1SpXEH5Z9n2SY9esuTbb5X/H3b5QOrXr+fDfyqkb6pCGiQtmzeTDu+29fD/+u1bUrdufTl9+gybJa3felNav9PaA5949fq0tyxcRKUVFtamsLCivLbHNoC/FDUoQTsAK1269JIyRfII5a9Bo8ayb/9BMyc58teyRXN5t11bpVNU8t/p/fdl9Zp1hKqhcOFCMmb0CMUfKCB46a9IaRxT2EgGL/2jK/97l0yV9aM+1v6Xrz6UoBbdTFX2iqov7N8hc9+rjhg84I2wbNeRkq10DSdHqJzcuUGWdGuIZ1jci1SSKrSQOvhrJjQxsv63fEAbSZ7lZXn19UawACZw6nV+AJL9f/XgD+TAD7MUfvby9aT0+186GQz+8zvCQrp/m/KfFtJkz9NC6s0SGXwCOLZpuXzXq4WWzxpcXcoBRw0O/J1zx8jmCf0VPmWkORTSeEmfQxYDP+QaFOY6r2p5tjdHlYZS6r2Bpg48E/7+5XNk7ZedtdtlKlJeKvf6CulG/jn+nd27RS2kLJS3Xhu8HMBC6sC/CyV2Zuvy8ufZ44iLIfkbvScFmqD/OPBZ5tDq+bJiYAelV6qcBaRa/28kZqw4miUs/r+fPiJ3b12HJZhKKxroZ/yd076yXPx1twFBAGhMPlhuCzqWW41ywWfGwPiLOQ7k/CvyHxH9HZJrMqpEePT93y1/gfnXyK+S2l6c/heg/39X/tRCanhCVnA449Udg3t3pCa5IvTWPPPKJXstrww2jKdead+svSU1A+pG51MAyIsBmOZaznE0LDFvDL3BHZ9RkSqqTOE98zkV84m3DIznxeRFCu6fRPjnz52T8liyJz0Uf/w2btxIatWsLrGeiSXrN2yQzwZ+gVhOL6Eyc9ZMeTFbVh/6/3HldykZXEbpzYreeestWF3Lyb3792XVytUydhysZJjoLP1pAU2BJXvmJf3XYMm+Y6f3PfDJ0x4ffyRFihaREFij5syZD7izFX6c+PFk1fIfJH7cuD78375jh7RshSV71NmyWTN5VxVKL//37d8njRo38/B/4oSxki9/Pg//f796RSpVqyG3btxSmSpWpLA0Rz0ZMqaTp2LElNNnTsuB/ftl+uy5cuL4CRnyxSApXSZY8/qTv4WLFkvPT/uwOc5LV6gsXjgf9WVEjDbTg79SBhnd8tcJFtI1VEipIEC+CxcuKGNHwRL5GOV/9+LJsgEWUtI/OayKWYrDcg74ofcfSsjvF+XKsYNy5sBORYj9L0Hq9FIXCl9sKo76QiNy4qcNsrRrA9QRKglTZZAXSlSJsv9lr9hQEqfJqPjPbVdZLhzaLc/EiS+vVG0qyaFMJkrzvMSAxfzPc8fl50UT5cyuzR75qzZwlqTPVcwDn/1/ARTms1BI2anrj8WSfUYopC75Q9OVL7z46/+3/oCF8w1YOE0Gea1RZ8laqqo8xFaBwxu/k22wELvHn5YzfpJ4SWDxR32Efxvlv4JCquMP2Ye/nDWaS47KTSRm7DhyfNsa2QALrGlHqNQatlRSvZTHh/9n1UJahw2UvHXbSWG1VnvHv0uHdsmcd0FbVEL5qzFotqTJVVjhE6eHWLZf0Lk2LMXbFX7C1OmkaKsekgTbF2InSCTXz5+Uq6eOyCEoxid++lFyVWsmRdv1JTitE6ggKIGIlBxcPkvWfNlJHkL+WCHxbzBxnSRKB94Exl/DZIf/RqZASMgC6RiYfyhK3vEfT0oXI14cKZ7c+dff+MM+Hbb/BfQfUsWMf6AZVUCHSJ4bRDAwBR1Pb3HRu7B5NBUXJ54Kqeb0lGUCAge2IKsWOZnxwzEQhimKrQPPZDdlmBBd+Ebw2QVYm7ftfEZ4AuGfu3ABe0grK/rx4saTm7ewhKhctDTCk0P/plBUO3d8zyRrCdLM0L9f/89k9tx5WtKS12Z57rkUkiFDBtm2dYeyauWKZViyh0XJKbt27Vp5Dwop6R8vfmzdJ4oH0w5W7+L/oAH9pXyFsrZqTx20WrZ48y2F3wKKZIcO7bx5nLuJE6fI8BFc9ubWgKTYTzpLEmOLgIElsnHjFunStUuk8E2bRb6EQlqmdLAHPkE4LdabGyG3pEiR4g5kkVdfeUWmTZms+EdH/jp2ft8opA7+BblkPwqWOqWZp9oI4RtGuPLxFvRlV4kI/t7FU2AhpaLE/uSlP7UPA9b2GZEkGbIKl7MTpc6I7MxvSpzauV6WdG1oupLGui7av2xOW1eQVB80S9LmKoIKgqBkVZSLh/Y4tTEPbv3AZy2vNe4EZbGjD3y2ZP57NeTsge2KRT0opMkyOxbSKPA3jTbjz7oR3WTf0ml+4cdPnkoSpc0sp3dtQnqoNJ8FhRQWUsv/EGwp+OqNnOFZ4Af/V6u3kOJtexMdxd+Of2f2bMGSPRRSVJqvQVspoPt5Lc1M9p2zRsmWr2GpBf3jJEom9SeslrjPJjVtRtZrZ4/L971bCZfcNfiBb3gXKq9Way7F22BlI4Lx9w7GhfHVuPUBDULdKbPnkdrDljjPiECw+HtvNNp7+Qv099RGcOB/YPwn2UHnx9j/3fIfoL8jzQH5+8f1P1VIdVTRzmAGH+8o4xHdCMch5vUMVrgLuXsfEexeZmrUumxfczISCm/NFSMSnxz43jRzp0Vsefyat3yTZqE41Zp6dFa2KYSBYMs7GU1pJjDi/y/8s3qoCUv2QLhmjRpSMP9r8mnfPnLrprEUGvyD5KNuH0rdOrWRT4dFhzeGSqTQ3bt3pH//QbJoyWIf+r+cI4d8NqCvTJ46TebNW6D0XL92lSRKlMTD/7VrsWQPBYzsHdCntxw/dUomjMdSL3Jb+Nxb+jm2CuTLl5dNDQd/9+7d0qRpS+08xkLaXnNZLrOuhw8eyFut35EdO2DlA0+rVK4o/fo6ygAqJfw/rv4ug774Ur7//gcf+CigGbJmzSrly5WV6tWrSbJkyRip+VSkUJ6/Vv46Y1/s6tVrNUfPnt2lZnUudTuZopD/Ll26yvKVq0x+YFyieHEZPvTLCOnvDz5hufEn3SKDv/fbb2T9UBwoIw6a18mPJyo8z6ZMJwlTZ5BsJWtI+gKlgOtTWh9pa+Gf+XmjLP6wHqx9BrIXvmmLwte6YyCHoV11WPfS5i6i9OeWgMPrl8jhdUuElkqT32mN0/9T5cgvBZt1kTQ5C4eDz3Ys7FRLTu/dpvU3+gpWvPTPk+p4Zoge/R/cvY39tJ9ga8AMT0k2MMWLuaR8t1Hy87xxsvfbaVpny7l7QJ8k2n7C5x7XCXVyKfyXKzWUDAXLyPIB7XTvqRv/4u/0kldrtNRWsSJFz2no+f3bZR62HjC/2c+L7RMO/sSD2SjPi7vWk9O7tyj9s5aqKeW6DffIH3OFYpVix2wcrJszJhx80j82+JotuIa8WP4NSZopu5ZlWywMA8mMf1Ruf9v4vbY3uNPn8lKFBtoSbbJtP8sigtw2V8NlBy2NM8JiJUOrU4Bu/P3BD4u/bWUAPigRoL8Vj4D8/X/vf46B1Bk5nB/vCGMiwj57codPuGWX7JnHO/J47xkHQ0UoNuDEwAYcM2258zq9T8dJpwKA0U7prk8rR0VI8JzARxxP9DObBnd+e8/fJwT+uQvYQ1oBCilCrZo1pMcnH8Ma8VCOHjkm5y+fl1SwBmXMlMEcMrL0IfU4e/ih/8XLl+TI4d/kwcMHsAq+KgkTxv9b9L8HGTlw6KDcvnUH+zXTSOrUqb3yEQl8KlNgrxMcRv4N/j+490DOnD8jJ4+dwtaDe5IiRQp5LuVzkgwHk7QhEeBv4d+9exfbGMrC2npD8d+0YZ0kiA9aBOQvWv0v9MFDuX7pjIRcvSw3r17Ai0YMiZ8itSRInkZiJ4RVOwr6GwH4+/y3/T8E8nz5+EEsuz6UlFhWjxXv2WjxPxx8jCdXTx2WGxfOSpxkz+GQE7chxHTJtKlWZddp9qMe/25cOS/XTv8mN69dlfiw6MZLmlISpEwDiWRHjhw+PRtwG8I9ZwXlrQUH5JkECcAHp8MFxt/A/ANRsOLgFajA/BvQPx6t/uW1kFLKMPBQ6DgMadDXWs+TjfX+Ujlwks1tqNy+c98ruHYg00Q+oH4AUAUSr9oKi2laDd62Ac8NX/dgcE3Hq4V4BnmCZfMMfPOmzqu+m2uiKWbfLvXV6gmDfw6HmiriUBPpVKtWdenR4+MA/R+B/H3//XLp1o20FKlRo5r06tkDkkfZC8hfoP9BCv7Hxp9f1y6UlQPehTyHSvaK9aU0LKQMgfGX81Fg/gnMv46Sop0CFzwG9I/Ho38ZhZT0JoVdwTfK9eS6dWX33Jo9pA7DjHpI/hkGOldm9mEoR3CPGw1TlS2jT7pOhDwshJcy/dUKTF57dUeZe50en1j4XLKvWNEcjqgNC+knn9DtDykboL/KhxWyvyB/x44e1/2sV69eVTrO+Gaq5Mhh9jEG5M9KlyNf6KjmVdH7bHP8XfoH+r/Ted3CppJoaWweTHLU9Ocp/AWd6kjIn5eUNXVGLMOJ/JyeMVNrC4y/oA0oSqIG5h9Dh0ckf0rTvzD+BugPGSTt/5/S39dCqqMPL3am9kT4jdJUzerNH3Ibh5q4jArJsYvnNtX+KgQQlOOcDZa+5texNNlE/Jox0aTavJoMYQ7CZn0LyzQ9AJ/0P3ueh5rcCunHKsekm46vAfqrCPFiZcqf/NGl1NAhw+QsDontx2l8m6dE8RLY+zkkIH+B/vc/Nf78ee6kbPy6L7YYnMEhs91myEQfyFSwLJzhT8JzYPw1qrxneAjMP5gr6GWCioAdK5U6gfk3MP4/yvE/NPQhVmqo1JnO51YabXe0cfaX8fbe/tq81kLKZ9Op7SslnqFVKiynvClj4tR3PuOpzOpavFESeNUatKyNc8N32u6UMXWa65MO/zwU0vIVK4EYQbqHtGePjwL0p6xTzjyCErX8HfjlkNRrAHdHKOR0E8mdJ7eMGTkcbpHimr4TkD8PRe3Nk97//qn4XzqyT2a3KQ82mZ7AMTntqwWkSr9p+oWowPhrRgfT1wPzT2D+RU8J6B8+85/V+/TVVYcR74z674z/LgupA0J/LDhW7Y53PVuoYX5DsIfUM92b8c4Z95zBD6m6KwfVYhzER5xwwWTOf5pRf5x7FnHi6bHEvKGZM74cS60OwGze9zbzxJIezUOjTDxrflLg//HnNRn85VClQ56ceaR6DX5G9MnB/1Hx/+zZczJ2zAQVqOdSJpPcuXJJ3rw4BBMrNuKsmFm5s7+eBCfDkyd/j4r+JGCg/z+68e/6hVOyfeoQHX8TpkglqbLnl1Svvgbn+nE5kILcgfFXOy27bGD+0YEs0P8eXf97UvSPvzP+uxRSdj5vcIYknwgqkNpHEavWIufB5DVXtZDyliZPdTBHVdNYpTyVYcDjwSZmMzWaO31inUhzLcIzWsfIh6hTSyG716pr6o9BszEbyBCAH6B/QP4C/S8w/ujAGRh/A/OPMzOa+TEw/wb0j3+q/mXdPoVTG90apxFjn2u4/E6qWbLnEEiXTq7leqZTkVRFAeMkTeCqOZqu4qnP9hxMJvp9dceCymiv2sp7uI3SNN9404wA/AD9A/IX6H+B8ce88DvXwPgbmH8C868eTAvoH/9M/SuIW0g9Zk+jzbnURCh7TKbih0CF0OqLGuG62DRVSJkJcwE9ZlCvZSmjcLoK2DinoLF9amYvHNSD9qniSeOn2X9qmqvFNM7UyWc1hfMxAD9A/4D8BfpfYPwJjL86pQTmn8D8G1bNcWRCFQmqDOaZ6oMTpXpEQP/4z+pfYZbsPawgXxDcz+57k+qT7ESF3LmLO+Pwnm8h+ECymRiZDq1S2U4tlW9q+KHuaE/vmdGTeaxwODA1k7lnGgvyKSx8U45WkQB8HYAC9A/IX6D/BcYfKuY6Xjoja2D8Dcw/gflXO0VA/wAZ1OCIEUKthxwj/nv6lyqkbiuoM3Rh+CKrEFQP1IsZ1BDlpDj6oEnTvIhxO8Y3qiOuiijyEXH+x63HzslkawXVmmnaYm1MAGlQll81wQVlCAspTGcUfmMwXQuQjFRGQUwn3fzgGoBvCBagv4pVQP7YfbydJND/HCuA0iQw/igZeAmMv4H5JzD/BvSP/6D+ZSyk1PM4S2MQ8tziyQxMvIk6sBzDbXwW0qMR2jV0Z+4zOTgZmmCSHYVRkSZ8o4R6NAdmRRb7eVDTSmdCVc2CiihXqE2tvA/AJxVAjwD9jbA55KBoMATkz9Ah0P8oCxAOvrAGxh/QITD+BuafwPxLI1hA/8C4qDqhJYWZRB3KmHHzMehfQcYLqZmgzNWC5BPvGTho+/xoLC8m2psYchcKKYI23+CgeD3EgB9DBzwmmvxkvOPECXGEgXgHSa3EH3zkM1ZRbw5HjbaN0YQAfJAjQH+VCYpUQP4C/S8w/piRMjD+BuYfztCB+Tegf/zT9C/IpPpGMYql6adG03NdI4h25fDeuh3jM5Y6kVlIN3lU32Qsb1RhMrXrlVGI4z0TOXxyf4MaMBjLNJPo5HApXYhxJWk6LwQRgG/ooPQAkdQqFKC/IYoKlPNKQxELyJ/TjwL9LzD+BMbfwPwTmH8D+gcXWzk5/gf0L+v2SWcham/+AjnizNS0ukWUjUU9p+xRhIE/nNp0UR11UA8KG5iqeoFdYnZlMGn+4GuKb06j7ZoGBuArbQL0D8hfoP8Fxp/A+ItNXYH5JzD/BvQPl85kbv9J+pefJXunvaqE8p7NDR+MohM+XhVSh+k6EUJJ1H05uNoyoao4ol5EGAVXSaKgrMLKg1YGtIHv5ABA1ur1sOiNd7UlAF+JEaA/pCMgf+gtps8E+p8ZUgLjjzPwOj86TnAwNt1Fx47A+GvoYSTGkRvPqBqYf+yqY2D+NUY3l/bhiQjMv39n/nWW7M0ohCslzBXQLV1RzpONtL+u/FRIzXdfzTIojZ5WeD3dmlqoWkNRgVVOWYdPfWAn0syGAguAUyuMx1ZZ9clv86BKKiGAweQA/AD9A/Jn+7AzfQT6X2D8CYy/mG8C809g/oUMcDxk8NEnAvrHf0P/8lpILTPsr2GR36vJ4j8jFVK1yFDRZNCfsHm9z9Z640d7VEXYpLMapz6nSlU3dQmGd06anW9RksTUoD+8OELniTTPAfh8jwN9SCJf7T1Af5AkIH+UD2//u3HrlvYgT/+Dn9OH6Guxnn5ann7maZUjpVmg/ymdzNAUGH/+qePvjZshZq4IM/49A3nmX6D/+/Z/CrWRZlwD8y/0+YD+8Sj1Lxxq4muiOxhxM2LHeKvl4de51V+k2JymtHkyjvEpxC5GmQxaFxuvPnnVbOXUYOv15HBFEBgnN0x8CletOxgmGKX5nXRFw5YLwH+c9D93/qw0bNRU6d+4YQNp2bIZhMHhpSMVjxJ+4ybNZM+efZI2XRpZtmQJFOdHz/932rSXzZu3SPx4cWTTxh8hWcSHISB/7v6XM1d+v/QvV6a0fD5oIOhl5OBR8t8NX60Zj4H/lt1m1LLjyH+H/w+wLJQ7L+iMUKliRRkwoM8TM/7Vb9BQzl+4JDlyZJeRw4eCAo+3/+XMDTq72G35X64s5fmzxw7f4AcwznBj4XsiHjP+d2/dlNvXfzfgtOs6/Rc0if1sEnk6djw0EXGB+deRExAmkvHn3u2bcuXoQblx6azcvHJJYsR8ShKmyiDPps4oidJkBpuj1n+unTslf5w9KtcvnJF7t0Pk2VTpJGHKjJIkw/N4B4gZKfz/+fEXK/ZmdtdeiY4RQTBiGjbRxtpf+CGl2yc8Um/kbgB+dpSd7KFnQzkTwBY+45Zr8kFgcCgc32tBxqkJ3dbJX00J00ItjBQtYH4dWAH4hoSPi/6nT5+Ryq9XB80fSv16daXrhx9Ei/4hN2/JipWrwetQeeGFF+Tll1+KFv/rNWgkBw7+AmUxrmzeuAGwGB4t/998q61s27ZNq939007UH5A/b9/yUiNn7nxK/bD0Dw4OliGDv9C+Huh//17/e/jAKqRBUrhwQRkzaoRHGh3iP3L5/3fG31OnTsrOnbsgEkFSqMBrkjLlc397/C9VppxcvfK7ZMiQTpYsWuj0Q6/8PWr8c+bM63f+CQ4uKUO+/OKxw/9vz397F02SDaM/9pl/7Se62cefjhNPUr+cX3K/8Y6kzVnYS/5HPP5a+aNCd3j9Mh1HkmR8UZ7LllNh2tHY24BHO/5b+IrW39A/rp09IT/0ayOXD+8x7UXzws6/GfOVkkItP5JkmbKH03/uhtyWX1bMlgP4u/jrPsU/7Pib4oVXpOjbPSTNq4UA45+Fv7bnEehfaiH1YbbnwXPjlYEI7mxOGsmokPLXfJmMRKO+C5UUb1nmyVTivrflNQUPwAulvLGevJrAeBNMvFM3orUjAU4A/uOlv1FIqyk/60Eh/bDrB/oSHRX9jxw+IrXeqKfMa9m8mbz7bju993Iaj3gIy//6jkIaLz4U0h+tQmq6JKVKZevf5P9bb78DhXS7wt+za0dA/iLof6dOnkT/IsfQ12/fljp1Gyr9S5cqJYO/gEIa6H//9vgDV3ySSy2kVEgLyVhHITUdw9Ce9P+njH+z582V/v0+0/F39KihUqRwkb89/pcKLie//35V0nsUUosnEebE8GjxP3XqFHRCMzeFQJ7feKOBgikVbBXSxwuffCRG5KUGPIQd/wyfkfoY8N+7ZLKsG9k9WvCzl39DSnce7DTU0uXRjL8W/ytHf5FZrcvo+Ju3Xjsp1KKbI+ePB38i8yjof/HgzzKnfVUQBeu20HfIKk+ggkv9B4B4W2fEMkkJRZtwGfh76dfdMqddZX2ImP8mc5kPhsqLZWv/Y/r/o5h/LbnCLdkb5pgricXgE8cBwYfaJo+96qEmp4yhmLcuvcNF+YM8bATjPAH1crLDFYmwmDoFzBubceGqkyHTyGAU9IxPeFCGI85TrycDbzzVBeCTVm46KXUYET36h9y+I/MXLlDr5vOwdBaEVYQVRkX/X6GQ1qlTT+lPhfQ9KKTR4X/d+o3l4MEDkiBePNn043oAevT8b0WFdDsUUQjUnp+hmAbkz9NhIup/ISEhUrBQMZWe4NKlZOgXn5suixjlK4VMOyhvPNUF+h/7Cuih5FHKOBen/4U+fIAl+4IaWbhIQRk9ciTy/nPHvzlz50m/AZ+h/4fKyJEjpFiRwn+b/4sWL5Hr165JgoQJpXq1aiASDQxcZXv8+FMhLVCoKGCFSnDp0jIE8vyfhB/d8fdRjn+7F0+WDaO6q6xlKlROXihFQwNWNB8+lJtXL8uZXT/K8W3rkP4QRwyCpMS7A+TlKk2ULiq/dgCnTOOejx659mTgTfT6/2Usd896uzRyx5C89drCotj1P8b/f4f+Fw79LPPaV5HMxSpLxgJlJHHazBI3GVYK7t+XK8cOybZpX8ol4EYaxUueShpP2iBPx4pj+gmwvUiFFOU5/7xQHHUULCuJ02WVOIkSy9WTv8nWqYPk8qE9mk7+N5y0TpKkzYJnUhbhEdH/v61/hVFIrTgBQc+t50bxdj+RGBhDTVYnQd0+aU57oTCa3Z5eojnUYxaWcwI7glEzEeHUZ+NYizopZg4HLvqMAx8DFhsDPUXLOfWZnwD8fwr9Dx9xFFJMMC1aNpUOtJBGg/91G0AhPfCLxEsQF/s7NzwW/lMh3Y4le8rf7p93BOQvGv3vJg6EFCpSTGlWuhQsSkMwgbv4Geh/pMBfH3+oDOTOY17yimDJfvQoKqQgLRVWUhs05rj7Txn/ZkMhpYWU4++oEcOlKBRSb/jr+GvZaMjfo8b/dsgtKVC4uIIPhsV/yODPQXczJ/2T6c8x6+/Of3uhkK6HhZQhHxTAgrBIanDR/+f5X8nGsZ8qf597MY/UGbbkscnfZShvM98uo+NI3vptpXALKKTED436p8o/2/fw7h2076HEfDq2oZ/nauT/zo0/Fa+bl84pPrWGLpBUObB/2Rkv/zx/Sn6aNUJy1X5bEkHR1HgUtfL38N5dmdW2olw5fkhpUbDZ+5K3/nv/7/SfMAqphw5umfSQ1vfGSKwjt56k8Aopicr3W7LNiBbL8A9bR8FE3Ki0mSq0PudZLamI4D5UfRPASMzBmIHDhGGXo4e66tAMrsuTBv/atT/l8uXLSoGMGTNIzKdiRov+586dk5u3eOpUJHOmTCAsBzpD/3PnzoMHtFKYYOmfKHFiiRs7tuGjwxtL+rt378qpU6dRxvD/8OFfpVu37sq56tWrSdOGXO5Fbv45ZTOwvdgIzmfL//pQSLmHNF78OLIFS/Z8izuJfWs//bxbLl+5Ilmff15ezfWqJEr4rAXt82vhY1OPnDxxSg788gvKn5Yc2bLJKzlflWcTJZRWb8FCunW7wuSSvRu+W/5Onzwld7EtJeipIMmUMZM2++TxE/Lz7t04jHFB2/D881kkT57cEiMG35CInlf+L+LABuFfuHhRrl39XZI/l0IyZcoEemeUhLAKkQykv4V/4dwFuYWT7U/jxG+69GmjLf9Hjx7VPhMrVixJlzath/+s9/CR3+To8eNy+cJFuYlJOH2G9MAlo2RIn15igZdu+Jb//vpfCPY9FShcDNgJLEqYwGlR8hPc+POeOPLvUfR/WrVOYhvBMeBz8sRJSRA/gaRJk1py584lCRIk0Nb4g3/9xg25dP6i8jt58mRKe8rr5n9tRX0n5M7tu5IqdSop8Fp+SZE8eYTjz+9/XJPffvtNjvx2RG5BQX8BvM+aNas8B77a4A8+8X8AOfoV5Q7sxyGImzck5yuvSnYc5nkG3gqokDJPES7Zjx4ZIXwuN1+E3B0Bvw//ekRig98vZH1Bsr7wvOLENviDfxJL1ffhESVu/HiSMtVz8uD+A/nll0Mqx+RO1udfkJy5c8J7wjOQB9/xl+PLpcuXtGa2cdGiRTJt+gxt4yfdukmevLkJ1hN4Wj1t+nTK+bD8v4Ll+Tt37njysj7KX1zsXUyIfhmZ/BEz5r8IOT54CH0Kv3/8/rukSOHbp/zhz3Jh5S8EY18BvGARPhXSwVRIkTEs/mysHf+0Hj6jzL59B+QExoLzFzhWhkqyZMkkdaqUkjtXbokJnrK1YfF3j39Xr1yVP67/qfCJGPti6pQpow1ficHGhQmR4b9nKRRSWkgBj0vkBaEAEn8+2/GXytSEmjlACEaKtP3+OMY/jNHA5uaVi3Lnxh+8xeGbjPIU5CVssPDv/HlVQn6/rM2MkyiZxE2YRO7fvyvXzh3Xelnu0tEDsvIzY6jIXqG+5K7VCnWjcsC18Gl9tPAZrXYop82s4/6dELl64ldV3m5cOiNJ0r0giTNmg8UxM6a0p7QqLYeLm/4sy/g7OOR1/sBO+fPiGbn9xxWJnSCJxE2STJJjD2ciHFAy+ZjTyF9Y+JrBdbH4b5nQV36eO1ZhFG/XV3K+3swv/LD0t/J3cOVsWf15J605Y+FyUqXXRK0ruvCjkj9WrFiF4b+FT/pTBEy+v45/dOB7FFJTvQHme7VviK4cnlvPjadIyJ37uLemSwcz/bESA6RAcXZYR5Twy6aazkqS2JymUqZwscBrZeWJPyOjUJC0LncJ3j/Z8IePGCFfT5oMUgbJzBlT5aWXsuu9EbeI6V+zVl05evQ3PTy0EUvjpC3LkP65cucxdVD6XfRv0rihdO7UWfPhguCl//FjJ6VajZom2sPViOGz465a8Z1RAJxShF+3QRP5BUv28eLGk2+XLpKWb7aWY8eOIcXL/yRJEmMP4yAoIpwMw/M/5NZt+aj7J7JmzZpw8tevTx9ZtHQJLKRQRFHrHlhIKZ0m+MpfjdpvyNEjxyQ+9rNu2rhOBg76XGbMnIustoTBP3OWLLIQe+s0HlEb1m+UESNHya9QyiOS/zdbNJe2bVrjBcIMmoTfoFFj2bf/F5X/n3dulxhPgQEu+vuT/6tYaitVpjxAB0n5cqVlEE8L4/7riRNl9pw5cvHipQj73+eDBkj5stzDZYMv/oa9pv/dCrkJC2lx1BUkwcHcc/c5Cnn5b0Zb1MQo5FFaoOaI8Cf/mcfmxIM+R9T/v132rfT/bKDcuBGi+TS7C379us6BOz/wV69eIx07f6jlevXsIS9BEWzdup1cvXolHPxBgwaBJsHIi4pYF+h/DxaLUWNGy+Qp0xR/gxtboBmkWbOm0q5NG7xI4FSsH/hUotu27ygnTpzQMqQy8Y8HLw+Tvpogb9RvyMr0UNPoUaOQEn78u3j5onz6aR/5ceMW5LQcM/BBZOkPua5cuWI4+LegeNGyzfG3fLky0qhRQ3n7nTaqULvpnyPHS8rTFM9BKXLBX7RgifTq3QcQvf3PH3zL8wwZ08uShfaAki//O3Z+H31yHeoy+Fv4mTJnloXz5yheEfF//Yb1MnLUGDkERTwi+C1bNJW2bd+Rp2KAD0ojX/gmzsw/t/GCVbAwl+xFSgXjBUvlOWL5t/gfPPirDBg4UHbt2o2SXvpb/BEp3T/6CNuVOBZGDL9T5y5mfNJc5H0hHGgbjhKPb/7bu2QSLKSfAEYoLKTcswmF1IGPH70L+fOafF0bCin7MIafNt8eh+JJl1gPZQOsq3uWTNV8ZT8cLtlK18J9+PGXZX/o1xoHlpZAKQySyr0nY2m7rPxx+oh806Kkwo+y/zvwm0/fKfGTpVT4Yce/Q6sXysqBUGg5d9kxRxEKkvT5ikvpD4ZI/CQp/I5/XHLYPn2obJ82GHXb4OI/6kuSKavUGbpUnokb3y98v/x34G/+up/snD1K8S/2Tm95tXpLACGk6Ok/J7etlyWfNNLxJ9VLeaTWsEXOWKoAnAbz3j/9DayI5S9K+lMytHrkxK+Vf47/pm42QTPghxmceP1x7lEqsvEfCimOuWslrAzB0Md9o9H+Lp6smmiGlNuqkCLFlajkZuNgcQt1aKUZtI1ORk97caOvpayDkd7WMac7uEAgGvBBBB6g0rpdiU8a/HXr10uHDniTAim6f/yRvFG7hpk0I6H/jRvXpUixkkrz4NJcrhrkQ/9Xc5vT1S6yKosb1HsDp+y7+KX/OVgKKlSsgmaAN+H4bzuNb42rlv8gyVMkNzLg8J+n7A/CQsrwYvYXoZyae3dJ8pzWnjUrVkicOFg2cSXevXNbmjR7E1aUQx75ixcvtlqD0TDUauRMCwHmblpI1RoQXv6q13pDjsEaFQ8n/jt0eFf694eyp8HIv+3UhK/1aO3YWzdqrIz/Gm+0Hvl/CCvac7DqXNActo58efPJqJHDJHacWEr/LwYPkWnTpmvygnlzJEuWzCYrru6W88nK/8ZNmzAJv6to0QMCeUT6N27WQnbv3qtjhR20ngOtL8BqawJqRL4WmMQ7dKCVIjz+HuC4uYU9pIVgIWUIDi4JixIONWkZ1oNIh6z++Y8MTLf013s+4yaK/v/gwQPp/D4m73XrLQgWVP7fssqpA5/bL/zB54tJx/fhHQLwO77XQebOmy+nT5924LPtxMEg0BF8bt6siaKEFLkCS1bb9u+q1d7kYGx4+LlgYZz41Xi8YPBjHsjp9L9jx49Jo8aNfeSP8nTz5k2FycN7N+GOh/DtoSYDgVcTdu3eI++0bQcl8pYTEx4+idOyZQvp0O4dH/g3YR0uUrw4cAyStLAm//77H4DNehyciZSDP5ffR48crjBIUoYflq/AQcaPlB5u/DHV6D9TDzI6iRlxQGkxFVI/40/HTkYh1Ypd8DNkxCl7VWI91Sg8k89cR44eIxMmfO1Emf6X0vYph/9MzJ8vD1xIDZfYcbFnz9P/kIHtc8kfLaS6JxrxwaXxgoVDegwOGuHgE8SF8xekZu06yjuL/3PPYfxCIldBTPlQadqkqXTs1CFS+B07fSBrVq81AEH/woUKq4eFyODbNAK0/T8s/f3Jv+ZB4b2LjULKduqezeYfAT5pgz/I30Psgdww8mPZ950Zg1LnLCQ1P+eLttYgFw/tkrnY+8in1LkKS81B80wKilvCET6V2q/qvKL4x02cTJrPxMt1zJhwbXRapjQqiMwMBqaWc+CbeO+V1baYuVPiJcX+TNxb/ENDH8hKWA9/XYWzDVqPSYwZJ748CLnukf/YCZNJ3RHfSoKUaUxhF/+3fD1Ads4cZeIB/+nYCQAnhVqB74XcQIUG57cW7JdY8Z/1gc+UyOh/G5bvma3LyvWL53T8rT5olqTNXQTFHCyICG85TrjoT5gWx51zRsumr/rrc65ab0kRnLi3aVHBd48/1BUVGH//Anw2zx3c9H9U8D0WUm2gL3p40haDTubO3Ri9922RRhnH+F4isuRD1IAXK+rtGJPMwEECUVC9wV0ZU/D27ZTyYbRpkhbzyqyJtEm+NT158LmMXZoWMoRqVavCitIjSvrv2LFDWrZqrWXe79wRVhOcNnXR//q160gDZUHks2fOSV1YcEj/evWpkBpLkz/6P3zwUB5gFiD/f8VScf36DVBLkDRv3gwWJANPgaosBGG5npYMX/5zD+kvBw954NP36ZstW+jy+KEjh4WWBSoThN+9+0dSq1ZNvWe9lLI5UDb69euv8pcMltQRw4dJ9pdeEu4Z+2b6TBmFic0t/7t/3hmh/KmF9LejrNqO2dgL214KFnxNl9fOY9lw3YYNMmbMON2LauV/DGDMmb9QGjesK6VLl5HUqdPA8TZxFdl/4ID06tUb1lNaekR69fxEqlevipbHkNVrVkNx6gJYQdK3Ty95/fXKpqnIF5H8jx0/QeGzrhnTp6mFnPRv2KQ5lmbvSr169aRAgYKwRCcVbivgnsU1a9dKj56fOooJlmEXzpNMGTOhFHovRjCPommZjJTbmMC5xEkqBweXlKGwKLHvPe7+N3s2TnUPGOjB/6NuXaVC+XKS6NmEcg8T6NFjx2XM2HGwNq2FtXsnMXAk2Tv+rF69DnLzPlprQ6i8iiXzt99uJVkyZ9J54bfDR2X8hAlSqnSwtGjaFBmBGfDv1auPLFy0WOFzeZwW1uzZs8EKF0N52L1nT0deRT7q9iFObtfxgf/Bhx9BqVuFqmCVypdXBvTrg2Xm5FB0f5c+ffvJWijaZpSMAYW0gIzGkr2b/vew1F+rTl05eRweD9Ce8uXKSaeOHSQV3C3dh7K+cdNm6fbRxw4vg2T27OmSHdsI7Ph7/fpNKVyslMK32PfGGMF6uDVk/fof5b3OnZFuRu0FC+ZKlkxZPPiTDPdBZyt/8yDXA2CppmgMHzYELymF9J51U/7Zxqdh9bfw2f/t+M/tKKzLSk21GrVhpTan7JdiK0Bk8jca1tG5CxZKwwb1pQx4ROU6plruRA5on+qj/CAte/fsLtWqV490/uEWlILOC1apYMrzl5HCJ/7jvvoa48dYbX+FcmXlQ7wAJk6SRPHnFpC9+/bJzFlzsAUiC7YFtYoUfkeMY5RZBraZ3grGjBoWYf+z9FehRH7SH03SP94z2PHHcNIr/5b+PGVv9pCGShq4dcrwWrCWenDvjtyCH81jW36Q61fOq/zFSZRUqg2cqW6LtG4AI29ntCqNJXKzt7HxlM2SIFV6bYsb/oFl38iaYV0hUZD5Rh3ltSbwzKItBYcfgP+OYnTl+C8yu00FpIRK3rrYQtD0/XD4x8AWNDd8Ynlo9XxZNfBdrTFmnHhSpvOXkrlweXkq5jNy849Lsnlcbzm4eoHCz1LidSn/8TgPfNZFd1PjqmbTenmp0m+qZICbJipvHP9uYTXi17ULZe+3U6T+mBVwhxXfI//h6A9ceDCRjQn547JcOLxbtk/5Qi7iUBPxT/nya1Lzy4VatwegttzLtXD6DzrP/E415NyB7VpvxR7j5fkilZT+4eCjUm9N/1v6jyqklAUlPIhCAdZAyfa5NRF6daUpdfQZmfEbgsHSEsikIR5vxhQ4VsesYYN2Di1OJRT/eA8GmDaxDIdGHc70yo5oNgCxJjzw2WYmEA8kpiHiCYRf+fWqqqSlTZNWli1bAjpETv8pU6fK4KFDlf7Tpk6SV19+xUPSsPQ/cwp+SKtVVbrXr1dHunaBhTQa9He7fWrRvJk51EQOgkemuH/+14WF9NDBg2AzlhjLl5VBAwb48H/jxs2wWHXQ9lSr9rr0/rQXa9W/+/ceSKWq1dSSgQiZPXO6vPiid+BhXO8+/WU+JjYzCASJun2KQP6q1aojx3475oE/a8Y0yf7ii+Hwv4F9V/Hjx0czjPxxn19STFRPqcJNqN5A/I+fOK7bGyj/3IM3CYoQaXLx0kUpXa6SDmR134DyD+UrKvlv264DlJKNCmDntq26f438P3vmrKTGpB02WPrTc0Lv3v0U7jtvvy2toZwZKvrvf2pRKlxUSR0MhcCcSmbt7ISmpMU/KvmLjP9u+eOewypVqmPvKy2IIpMnTsAevVzh6M/EnfAnmzd3Xr/9nxN/x84fKCk4/lWpUlk+7dVdno6JvX5ovh1/uEfzJhSVBHFjI28M2QtFp2GDJsr/tGnSyJzZMyRenLg+8K/h5a1i5UqqEHKbyZo1K3VvJ6lyDHsMq9XgsqZIEsjD9+ibsXDa1uJ//959uEarKyeOnUAc/HrqoSYs87nGv+nfzJDPB0NZQrsroD8MHNDfBz7p/xNwb94S++8gW0WLFcFho2EernD/bNFiJbUNvHAVpU7tWqjO2/+GDh0ukyZPRVwoXmh7SY2qtIKZVoSVvzlzeMoeH0VAe0ZhibloEVh++MA/R/6jy//g0uWN26d06WXp4gVOLf7lj3tHuVWHe+QdAhJ1BCN/tERXr15H+Z8He4onfz1B62MOd7Dyr1tQcKiJvChVEl4jsIfUYOEfPhPbtmsvHH9Y6IdlS3XfsYX/V/HnS8DaNesMKli4LELrtLr8ihi+gQFsjAAZ0B5OR01/dfs0ojuKUz00/NfigG/iKAFY7ob1s/wn4yVWgsThxp+9S6YYpRbgCjTtLPkbYXXOoZzl/5x2lWBN5ZYGkUaTN0qi1Bn1nhdLf8K/ykNNcPtE/6z56nNPazeF75b/sPJ379YNmdqsmO5PZdvrjV0pyTJjmxrbYOUPL92LuzWUUz9t0JbxYFbK7Hm0DYR/4ZefZG4HruYFycuVGkjJDoM8JHWPP9RCwsLXCl30P7hirqz+4j2t2wOfgwxCJijJpd8fLLFhYbXBjT/ha1Vh5p8jaxfI8gHtFVTS9Nmk7pjvsG0iFqogjvhxwTdCwEimgSD/S/oP9nKy5eGDIumOdkcYIVXGsO+7wu07d1Ws+UamNWs6yyKGBZTQpryrmNKQyczJB2jKoCULmxjza4GZ8ropnYBsQFbbrZ50+P369scyJJYvQLL1a1dJokSJcR+KAW6crFq9Sp7B4Yfp06bIU7BcMHD5cu3qtUrt7Vu36KcgI6I/rZGV4Bif9K/XwC7Zo5Io6H8Y1szateuh74TCQtrco5BqA9DOiPhPhfQXVUiD5JupUJZfeRmgMEgDHr+nQEtE/gI42YvnAq/lk3HjxlLaVP5+BUy6mqKrDH79Zca0qQqf5W3gdoB6DRt54NNCGpH81cCSPffZsnwTWGrf/4CDrxOiwF8BRCL/wcHl5AqsQ0mSJJV1q5Z75L9sBQzmUGhfeCGrzJszE8CM/Ldp3VbO43BJXhyg6v4xTseSHngzL1y8lPAjBAULFJCxY7EExYRo9D8e2KpctQbyBkk1WGJ79/7UKYsfrcPSzMCnhbRgUbtkbw41Pe7+t3jJUlhye6E1QVKaJ6GHfM7GmfAX6L8aE79VSFl41YrvXXuXIx5/Phs4CBav2Qqfbq6Cy5RygOPHBX8itmcMHzGapJTpUyfLy6+8ogI+e9ZcWBM/0/ItmtPTRHtTHvms/E+fMQv7foEXZNY6xnfTv2r1GniBOaXyv3L1ckmeLKmpwwWf8v8mD+ptp0UlVH7auR0vQ4iF/N28eV0tpCzErQJrV6/EAZpYHvhs9LatW6UV5Itw27drgxWJ5rhHIzX4jr/q9olbVwB/NLabFIZCavufKYKEaMgf8S9ZGo7xcdgvAw7wLVlMCynLMvDXP3xNdrKElT/jaP+KJEmaFMreikjnH/OC5Vj8S5XAtiVaSCOH375jJ1mPFREGvpCVDi75t+e/PngZ/H75ctQEPPFGVKRIUXwtagCrRvh7+EdFf4+FlKS1qDrwKX+MNJBD4YqonJTDPtFn4nH/pHf8vX39D/mq1staPgH2djb+ZitWC7AP3mkyDxjNaBWsaKV5BUv+X8zR8sTKEwCf/L987BecRi+Luh7iFHl73dNq8jiV6YOv/P324zL5vs/bCj9X9eZSpE0fv/J3bt9Wmd8Rq2cAVPitHpIbJ9ptuAgr5py2lfUxSYZs0nA8PuDyN/WP/VBI137RyYO/Ngz0SgjLcZn3h0iaV3hgkQR3BQd/YklCueef388ck+nNi2oZlqo7+ntJ9vwrnvlPi/CCwmHl34BhreAlCRzJ/MNk5gwLX6M0xbbZl/4mHVcU/nfhq4XUDZAN8oJ17t2RmtkVobfmmVfrh5SVKFFxQ76CDkoPb0nNACSQrsgCSXQA6sfaDZDMvDGo4VOy+YOKTJ18ZjnEORXzibcMjOflSYb/7bffSfdPuFk9SMaNHoHT0FhGA9mMcsO9TUEyZcrXkuvVnLhDB4Vicf3WbcmXNw+sc+PIlgjpfwoKKb/URDrXqwuFlI7x8S8q+h/B4QM6xme5FlRIO2DCiwb/69ZvIAdxApgFN29Yh9P28XDvy/8iRUvIdShhGXBifOkio4iT/z9u2iLt2r2rbWvVsgXu2yh8rUx7IOsJxYnivDirAslDmb3YdxgR/jVr1tFT1YQ/f+4seT7L86iKVI4af4Ljkv7mzZvlPE54n78ArwY3zN49tmETlAA+J4CSsGmTeZOn/Pfo1UsWLV6qTf7Xxg0SB3vhTsPaWaVKNWfQC5UdeImI+cwzchwWuOqOBa5dm7elVatW4frfQSj3/BTrhYvn5fy5i1Do7ygN7tx/iOXa9dr/ypYro4ehIut/umRfCBM4ECsdHCxf6iEQbaZeHkf/GzlilEzAMimRGjb0SylZvITCjy79wQLgKrBaQiF9H0v2oC8/E/kFJv7ojD/vtG4jm7f8S+EXLljA86LHrfhW/jkokT8H9u8HV4Ok5ycfSQ1uIwHwocNHyKRJU7QVY8eMkEIF0S+1p3nHvyOH8eJWt77GFuU+Qu7hRKM5/j24d0/y5Cug8IlHxQoVcG/k7z6sQBrMoIj9wrsgY5cU3/kLseyeMZPWqXtIi5XSctlfzC6zYeVH7T7489Q+t6eQ//V1n/gHCt/f+DtnHrZQ9B+o+I9CW+mHlED/Dv9LBuOgC5fscRBqMfpxZPJH/InqhYsXZNPmLXIO+znPnz+PfbWwniOQrvSawH22cbAvVz10aLxJVYYAP0v/m7fvYA9pUZX/UqVxyh7yHBX84cNHy1cTv0YdQZIIFm+uKhQpVBAeMeBVAGOJcgYNJWfIfyt/DoHIVA/86MifP/qz4r8q/xb+3sW0bn6sbcgDBbBgcy6rwwPEw/ty8/dLcvXIQdk6DcvNv8IHJvBIh68EVf98DooToqE/4a8a9J4cXDWfhJUag2br/kiL/78mDZDts3AwD8iX7TZSspWqjlworQTxxZ9+SGe/jUOVSM4DN1RFuKc1ivl/5+wRsmXiQKUtlb5U2XOb+tEfaPOFViEP8PcQHjmO/multjtrcA0p122Eh/53b/4pY+lJALCI/wvB1eUlWEpTZs2t/kJZKLr6xxV4Cji5fR1k875ch5uni/BReuHIPoMu6i761idQhlv7xT+s/nP32h8yr8PrQqWUNCnctIvkbYCX2DD0/7v8Z6VW/v8b8hcWPmSGJFDxAMXtDX4ZVBBABd7iT+88Nxrtvb1WNDAAAEAASURBVDjxxu0TuYcIEM2U5A/u+RUDrcXJzCzgPsZyxNoy3iq9dUQHPmpgFbalTzj8kydOyOvVuTQYKu3atpFWLVvKsRNHoaxgCcuhUZvWWJZt3Uonz0qVqyE6FM9vyTv40+ChoS1hip4+w0+HIj+CmaywZE/BjoL+h4/8KrXfqK+VqELavl20+G8/HYrqZfdPO4wIEbgrlAp2lvpwgEI/Oei0fd68+dIH+0fZvq4fdsYeVlhLPTLilb9qoBVdtlAM1Q8p6/aDf42asJAeO6qQN0NpjBcXy7UMUeB/A/v2Bg8dgq0B1uqjxPKLP61Wm6F4Wvh0Ft4De0yJP09gc0l/wcJF8mnvvgqal6/GjZPXYB3+dtkyeBPoqWXHjx+jbos0E9p39PhvUDK/lC3/gkKl/c2Lf9j+Vw4n7T8fCOuM9mFUZ0q4bvDyScf49lBTqWBnidPJ6aEdnxEA/1H0/87YZ7cKB5IYuFyeLWtWvY+K/mHhq0KKQyQcf9RaD1k09DbV6dWDgxdtfknoKrYNhAuR8P/d9m2lZfMWin8X7B9djoN3eIAiiL2dL2ULN/5dunxZypSFogn4haHcuT8degpW7CrVaMUOEyKBz5xT4GEhV+5XcBcErwQ8wFhKkaKFdzAse2H5z5dOvvCQ/+zjH+LgIuXPKwh8MEEtpP2whxQZRo4ciiV7buMA31V2/hr/1aIJhZQvlksWQsGJRP5uYOvB4CHDdLtNVPzn1onNm9ahwcTCyiieXPNPCPazFtQ90TjUFEyL/6BI4RP7y5evCC3WN3GYjk21808SuMPLCZdyJUsU1/3VCRNgifYfOP/t/XayrOOSPf7lrWsc0RMvDQ4P793GXvsWJeTm5XNKuhqwcHK/qTuc3bNNFrxv5ptsZWpLWXxNiAR5+OCeTKqfD8vpV+RpjJUt5+ySmLFio6gSy4f+lBnuIVU/pMiRt24b/dQm4Tgcc90w1oRVn3fEZzfnaZWeDFHIX7o8JaTagBk+8LdO/ly2z0C7bXDqoLuntLmKSpaiFSUl/LCy6eFCFP3v6Mbl8l1vjAFaOFRqDVkkqV7K7wM/7PhzD9uSlnzUSM7thztClHyxdE3hV5qCsFc9XIgCftjxLyL6++DmoaGHqq6bMC14RPBVIdWqXcDdoKwg2F93mr33puE03V1uUKZ4m66peSh7yMQXIiJMfvLWXElcPDnwvWnmTovg1jZPX6qcGiwUp1pTj44KNoUwEGx5J6MXBiP+f8Kn6aBwMQwisA4UK15URgwbigkclgwcPjAnem+ZJexvvsES/mrpzP10oN04HKAoiDd8yyV/9D+l37LnFz2CcECmjneyIh8joT8tpLXrGgtp8+bcQwoLaTToXx/L6Qfg+ih+AmvlMBy0XGYbg3Wp74oYFzNwh+HI39cTJ8nwkaNUfnp2/xgHnmpQHMLJX+PGzWQPDiBQvnbxlL2TKyz+NaGQ/nb0mLrn2bLxR4WieVBCa/WD/0Pw4p027eVfW7ZqtYSf/7X8ODyTURInTgqSIQYCPhn7eG/BQoruA6V4p9bHuu1eOE6eH3TEgbPGjeSDLh/KypWrJS7cBN2ARailboFoK58N/BxLynMV/00b16OdtCZjL+rFS1IXn/mkMkX4rLdM6VKSKlUq468SEfTpOWniZIVfHKewRwwz7k+c5ilr3f2PbnIKYA8pezotpEO+dCbwx9j/24COmzZToQ6VFd8vk+dwkCcq+hNhHT+cjMR/te4h5aGmIPn4o67wRIHJFIha2ijRFDON1vL0w5snj11uCxW+0BH3qODTJ23+/Jh8kLF1m7byL1jtWGbhgjnwP5tFcTENNPDpvcD6d+UBobFY4bDj3+5de+AxoqWWoX/ZKlVwsEGxwIV3yizbMxiHAKQqV6os6bDnlfdU5NSjBvLzINMgvng4ACz+9B9cpWp1rbsBDi5+iH3irNrNfwtl9lxjISV83UMKmbD9z8IPS3+2Wdsbpv/rthXIKH3jcqVDcQNci7+F/xBbU+hJYjNersgBtoUvZDyQxj5F10IsO3nKFHgsQJ/Cwx7nZdbiGBY+5b8QLP7sf3T7ZA/pKUlRPiL8OR4OHjIUVnfzosQxzY1/kqRJsJVhhGSH32Mk8L+2LSz8qOQvIvhKI5KTtWpjLWc0UgFGRP+9cNlECykJxCVy44ie5UwrtW7c/jR7rGz+uq/yP1/DDtgripc5/PPIP8pPbVZY/jx3EmVjCE+iPxM/oZzcCVdFH8HfNCrKWbW5FG/XJ1L8r+iSvXE7Zx31R0X/RV3ry+mffgTcUHmpfD2JnyKNC4ZBxeJP3hKzBClSS/bydbWtSjdk4L99S7+RnXBQfx3Kt6GAQ9KH+MX4SxyKYUsAE33wR01R0X/fYij/8PnKejMXqSiVeo7HHSoFXCvgFia9Gyzr2VyOb1+rLKUC/XrfydhiR3dbJtdfhc++Y9qtEA3cCOBrRqUI7gBO6Ydf2/9Yw2OB7xhI0ThXcBruiQn7HEnCLThbJrk0GLr53jMOzA3FBsAY2ABIIfDNiwzEXvnkVIBHp5+RDk5wKkKC5wQqIPNELVM0OMV97p1iTwL8Dz7sKitWrFIFlMpJhw6ddb9T/z69pVuPT5T+3Fc1ddo3MnHyFKXtj+vXSsIECSKlv/mWPZddHsLiWFe6QTkyjImc/nTcXRtL9uRhc7gW6vguT0U6DPXwCjdh+F+vPvaQwpl8XCy7eb9l7zDS4X/J0mXld+w9SwcLqS7Zk+nIshhL3Tw9zkDvAY3hN9Wf/FXGwafTp85ood0/bY8Qf7WQHqXbJ1hcNq5TwYxK/nbs/Am+U43VmQ7Tv8Ie13RwaxNW/tX6BhyI/+7dUIo5eoI+9FRQrERJuYGJtVyZMjKgf1/Jm78Q0h6qq6XOnbpIJkzEi+bPlTcaNFS3WNnhHmvWzG9YXMP4r76CsjBW74sVLQqvA5/CS0EiH/oTf27FIPwSJYvLcFh0tQLU4a//3YJrokJFcQgE7SwVzFPJXzz2/teta3f57ocf0K4g7IHm3swcf6v/r163Bv5zP1T86dWgRg1YA5VWoHkY+WO8xb8cDpgZdz5Bsn3rRt2LHRX/leiGlSqLlEmOP7PwMqg+gpnBSecNXQmVq1RJ26O+KKHMWPjnzsKVWqUqWiBHjhfVi8JfgU84N/68IYVLlFD5K8etGWoJR5Uu/E+dgSX2dWOJrY9tOd26drHiyNYisMGcpeHFgoeasIeUE9QI7CHVJXubRet0svPeKRbR+FsKh5quwktIhkwu36Uu+ps2iuzY+TP61JsKPyUc4X81fqykT58hnPyZPmUs2rryEQl8s4e0uPKflmPj9gnA/cD3IAL8Lf3/uHZNdu/ZK3v37pN169bDq8hhh6aiFt+F6J9PxXzK7/ijdCF9eBOJ/Fn8/cFn3F+d//aoH9LuWh1PtfPb8f7gH930vXzXB4fkwPJsZWtJ2S7YRuLw3+L/87zx8uN4s5IT3OlzealifVkxoJ38umYREdO9j7Q2slhE/OdnNme+VVrHX7XYanvQPJKFvFMasTaHkUhYN+RDdUtF+asy4BvJkLcEM5gsNr8t6xSLCD4LcR/+5WMHsNS+R07v2iSH18KjBsopfLS9/Mcj5YWS7Bt4cPGfZSOj/42LZ2Vyw9cUh3gpUkoL+FP1N/+FwuvAikHvKlyikSJrTrjami0x4fvUH/6W/lHB17LRwN8f/z34W3q66P8o4XstpMQcwEh0tlkDOwZbElFg45xkcxsq9EPqERynOKtBr9W8eqJMgYAVhMU0JuMfNw+44aNxeHbeIEw2rYPtJFhTrylNxvJ9TevRRGZAPtw/qfBnzpgtAz/HSVHQYe7cGVKH+9JA4I2YjLmMvXzVKvkcJ9ZnzJoFn5l7JFOmTLIAVhuSjyEi+lNxqYIle9Zb33H7FB3689OhterU1wGcvi7fha/L6PC/HpQsHjzSpWwsk/vjvyqknMgyZsBhCOwhRdv4t3X7NnnrrTZERprBl+R7HToofD5b+aPbozx5CwAfE0fH+BHhb90+xcey+iZ8NcoQy1gKIpK/YcNH4UMFEzXvkMGDJRjKpRs+Yd3FYUAezLLyr/4ztT1G/t/riBO4mORobRkCxa9ZsxbwFvCiTP9mCpTVYLWSLoGrpupwm8M6GuHA1QedOnnkv0HjxupeivzfsAaH3BJDGUU+N/23bt0mb7Z+R1EqQQsp9mhG1v/Ml5qwPIsSepJ7+BDcgQoUIIf+j7r/jYP3gdGjx2kbP8Pp8goVyin86MgfC9nxZ83aNfIeDvJRxqmQ1sSyq+U/m8/gT/7bdXhPftywUeEvXbxQ9woS/+jCHz1mgowbO0EJPxz0KlEMe3AJi3U48ndg/wF8EKGJwi+EA0J0jm4Dre38ihPbmDhxEnNQ5y/AJ/43r9MPaUnlUwVszRg00CiTFj7rPnXqFFyMwUKK8Vc9aaivYSQwEbzVH/IYN1RI+zrfsuep8CJFsZz7N/lfskw5vFiaJfulWLKPSP5GYC/xV19PUvhDhwyWkniBCtv/7mBPaIFCRUBXthMveVj5sPznc1j55xaU1wrTuitSrFhRGQUXVhHBd+PPRvjj/xZY8ukr1sKfO3cmvuSVFaBR2g/8a1Bor12/rvDRBHhmeEaSJU+BOyLgBAWsaDv1Mt4/fOUT8lv4rDgs/rTamT2kMSQPluwL4tvxBMHglv9jW5bDYtdSAaeHwlet//Rw8G9duYDl+bxKVy5tV+07TSbU4r5MkWRZXpR641aGg+8efyh/l7FkPwt7SBnyYcm+YEtYb6PA/+e542XjhN6arxwUZSrMWgRwH8X4wy9RkUaqWIM4zxerIhW744tLKldsafTofxtfgJpQ61UP/9uuhKtCh7We/o+Gr4N7rP3w+0r6J874otQcPB9fi0pEQEp/4kYe/VX4/vgfDj4q9sd/hf0fgA+cgZaHsB6wYaJcGVy33tzeO/vpUCUYUDOssnQ0sR68bF3soHpk2luPTdIYUk07MZ7wUqIU81blKeSOMvdPNvx9+w9KQ3zph7Ss9noVWbx0GZYcc8kkuD9ZgtPKn/T4VCpVqiDffbdc6e/5sg3yR0Z/v3tIHbawHIM/+p+G/9JKVV7X9Jr4dGhPWGlNRuSOhP918YnRXw4cUgvpFp5oZeUGgNbFSyks2XMi41LfEiz1WfinTp7AnjscKEGeNFji/HbJQgxSlAtvh962dYe0eqe1QRrxVAYjwr9GDbOHlM7LvdZaFEJwN8nCp/z36TdAuJeVr0tz58zAZx1f8IFP2f5+xQ84HMbB14RdaAPr0AD5nzYVrn6GQOGD/FeFC54lS7+VNu+8LW+/1Qp87KXP1au+LovAVwZ+tap06dKow3RvvkCcOn0WSn0c3Z/qxl/7Fujfp09/mTcfyjyCXbLXh0j6X2FYSLktJHPmzLDQ8vSsCW78LS3N2oXJ4Q++pzCqsGXCwv/hezhl7/aRRufKlVOmTPraAMTVwDSPUcFfiyX797CHlIV69eghNWpW9fCfNUQEf8jg4bq1gnm6dvlAVwh4zxAd+Itwcrwn/Jgyb+1ateA3lxYpPLnkf+y48TJ67HjNoxbS0VBIXeMfXyx/xcEnBnXRxhP8CNGBT8y4ZE+3T5zQ1I0aTv274bMuflr0dfW4QF/DdcwqCAH4GX+XLfsO+5Z7KPx+fXvj61CVnLb89fGX/dj4IXUOJ7IxfuSvb/8BeMmez1T0qZnePqUxhhbf/bACnyr2OvDf5WyDYRallWWyi/5WnjM58qzV+YHvQ2wXTFbJYHiBg3c4xDZx0mR9pv/jYnDB5UkPA18d40MuGZjEz8Zy/7A//KML3/Z/2x5Tsxf/vUuhkI7AOAz5MxbSrh74LKMB+G+bOkS2fjNYx59sZWpK2a6USZvByYaf7/u2liMbvtWIV6s1lz1wvM9swe8OkBxVmuDOFIqI/vym+9QmhTRXDnw6lJbWqPA/vnWVfPtJMyVJ+vyl5PV+0zz0jwp/kxGtcfU/Np6tdON/D6tBY6u/qPgnz/qKWnsdVJhdg+Lkc+8r/yd2bpAl3eojR5AkSJZKmk7HSpwW8sLfDMf3P8EBPuE/iwNa3GsaL2lyNAh5mNdP/3NAmqqcB60WMY8K//8UfKOQWow8vz7sMLF+ojRB472JIbfvgXAkhNd4bVPtL8spfRnhBENAhz9ghyGlTUU88lo3DDavpqKiIMzSZrJDjAIJwCf97967L/leM53b0qwzHGg3bdJYLsC/JZcfGUgy2uEGfjZA/Rqat32Ksje46X8Ge6Yqwc8puUUltltXOC/GvYZI6H8XJ4Tzoz0MadKlkaXwe2ndTtn2mV9f/vNQ0y8HuGTPZfL1CsnTNof/JbnUR4UU32On5cotf/VhbaLViWX41Rl+fcbKH62jHTq+D6uXOdVO+Lt+3o7y/vGvUQt+SLFkz72bm7GHlBVFJX8T4c9x2DB+AlCkBxz318aJawsfUXLtzz+lQcPG8Bt7xsGNny/lco437MFSYOOmLRBhKE0efTN1irzy8iuyctUKeb8LFBsGFgISq5YvwxevnvNEtWnLvZdbtH5+kjFTlszapzQDLur6CnS29Ofp9WHYQ2qDm/8mj0lp3LgFnH/v1lapYvD8C4D/+Prf7dshcHBeE6fHzReuPoUT+hrVqzhUQZsUf3AfhykWYGm8dk1YPhFt28xfhtX4EEAnKqQIPWEhrYUXJG8+X/ljHov/qVMnVVEj/bltY8HcediHi2/dKwRkdOBT/q7gC0gHDhxUf5IWPr+1zpPklv90N5U8eXJP+/689qdUq1lLt5+wKvP5SCzZ48GOf99BAezWHUoESuXJnQd7TIfBbVMcPCO44LNNx44flxuwiL6irtIMHaiQFoaFlHWWLwe/vliyt+0zv6HYvgJPGo5CykNN3bCH1MK3eQ28IPh73SEt3nxbH6tXqyaf9qJy6h2TtUm2aZqLuBiaOo8e+NwLfuXqFcmYIYOesveku/AnfPapoehTrKjHJ12xNxxWMQYH/+t//gFXbk20T1n47pe8iOA3wccjdu/dg/ZwK4JRdFmtm/5u/H/BZ0OzZMkgTz8Ti9k88C3+dC3G/cosM3nyRMmNg06azQ/+7yEvX5Ts+Mv9w6qQokBE8Il/VOOPxd/+uuGrH1J8/pPt47fszR5SX/k/f2AHTnpjKw/NjWgdXT9lxQEbDWHgn9yxXhZjzyg34z1UKhqStJq/Dz5MEykclouI/qH378moShmRw7hJajRxAz6XHDNS/EMf3JHpb5XBZ0iP6kvW632nSqYCpdACttdhifP7EB5Fjm9bIxkLlcXcE1PTeblz45rc+v0Svnv/vIf+pJcNlw7vk9ltK+IxFA7zsZ8TFmINDv6HsKyfPEsOSZzO//h3B66xZsMX6/VzJ7XYK3BPVYJ7UZ3Alm6fMVy2Th6k8OMmSi51+EWp59JqjsfFfzd8Kx9W/tz4/8fg89OhasY3vAMxKAq+wcbZX6bae/trS1gLKZ/ZqSmWtkb6/1JYiGE5E0xcDABlnHWtwDTTDnZt3GtZG+eGzw7Jgt4aWZYhAD9I3oSD823bzBI0e/Xc2bMkGyx0pFYdnHjnt9XJE9L/+++WSsrUqZHN0NLS/yhOn9+5E6IkZhxP4Hb+4EPlTzlMaC1bNPehP786Q6ff/uhft35j5zOgoepAm18eSoo3wJhowFP4ctErr3JJwxe+7ovkHlKc0tyyERZSBOZgW3ToxE0pTPJUSPV0LiykDBb+2rXrYQ3DARbTq6Q/rDj58+eV3/+4JlOmTpNvv/1e8WedlL893EOq5c3VLX81a9EPKRVS0xYLPzL52759J3xCwgIL+DztyxeCUqVKwlF+Uigs+6V33wFy6eJFH/nXJXunFYR/D19OyfdaYcWZ0YS/acM6bLR/SrjUV6JksObmhftUV/zwnQd/UmIcvt40eiz2kILXpFGjhvWlBJROfpN98+at+PIR3B6hrO1/umSvCmnk/W8uLKp90X5ygjxv2qSRpEyZEs9BcDIfE1baknqPi9OHyRXmtuGv939zIImHKkw9dd+og0M7FSRjxozyB5RA8mcc9swegrKw6+dtyMWcvvBtHayhJyyktbCH1I2/5jelwo0//DLPuAlfaa3kQ4f27dVdGunOz4ryO/UrV6+RpUu+hcUe/jQXLTQ16RgWJF98OVimfcMJDZ/uTJsaLymfYCk3C3yLnpD+OJR2+NdfHchUSAtj7y/3kJJOBhO+RDVr2QpL0HwRgCseWP75paas+GrUswkTytmz54Rum5ZhRWTzv7Zgyb0ePEyAXg58c6iphMLnt+wHwkIadvzVJXvHJ21dHFzUPaQOfDaOcA39g3RlohT2cNtQv15d9e6Q6FnuUX6I7SGJcXgrkwe+5dulS5dAryue8Yd1vsGXIiBKWo7QPcxe+YsH/5fp0qZRMNu2Y1UDfYpl4uPFgHLn7VMHpHe/fnLpwmWFb1qKQ027cFqZCgTKsJwJvvLHLz/17dNPk/ghC/bVFJBn0ifGU09J2dKmn1n86TXk7NmzUveNWlIUe7PTp0uHDx3E0u/ac9xZoLwP0u1GGzeskRgxoFyhdn/wqZCuXrvOM/4ZC+nIcPLHxln40Rl/LP6W/274/Jb9OlhIiV9SOJPPjK8Ykf6h+OJXCBQ07uk8g1PeVv5otavHLxVhP6OpB/TUG4MRv7rEU/W38IUic7TroaiLpa742pgjf274xMTOP6yB488cfKnp0uG9Wn+G/MGSFUvw/FQoAfFQDx3ah8X/FKyPi3G4yYZcNVtJVriXSpgqHb7CFCLXzh6XM3s2ya75E4WfAW0xa6fETcIXdgP/5LZVsvSTZvr5U1pmk2V+SZ6FMvjn+dNyeu+/ZNeCcajjpLappFp7G/vgz20GdFmVKkd+/UJUwlQZJH7SlPhk6hW59Nt+HAobg3ZcJ4LaxHpjVygMC//0T1Dku+HwF3Ak/TPA0muc+zuvNihm+z8r4LhfqDn3wPvSXyt3LpT0/zX9C7gTTQaHxfpj2R023vXMWz8hxH7LnmlW8vTXPLDmGPgjVPKGpyH5wH9aQH+cexZx4rlUSWbRZk1C879tOWPJGJvX/OLRJ8o8sOYnCf64cVRExoFsQdh/mFhWr1ouT4GOpN2Y8ePhRH68kitxksTqINuQ25f+OXPn16UKpTEY4Zf+ThESnRbTerCc+qP/v7Ztg6++Ni7+G7ZZ/q/C0nVyfNJSC5NlaFC9Bvh0KE7ZGwvpOr/wSzrueDLAsrJkkVnKs/C5764rDsPQ3U54/vvCZ4bdmLjc8Hlv5a9GrdqwkOKUPZbsdQ+pyYliPsKGWE+CVtWli3H3ExF8fnr0wsXLcvS3o8iP/W5cXnTwt/Cb4WAUv8BD+nPZvvenvTxgmjRvqZMg81bTtJ6mPAGiHrqlqQErEv2g+so/0pGH9G9Qv77MgFN2wqeyOnw4LaSmAot/2P7Hzz42xX7WffsOGHgEZqZQffa46dKB2HDZFz7y/43+P2rMGCjZZrmeEHUs4E004a9ejSV77CHlRNwLW0f4qVYtq+g6RNP6wuNP7wI9P+2Nz3+uJECFGBH8DLDYmz3N2kql5hW4CmoFp/W/HTuq8Blp5Z/3/I77CTi+Z8XGMT4m8zDj36nTp/Bt9C66dK81O00Oiz/r48FD/ZqaA0X9kBYtqeNvxfKwkGJlxA2f/NdT9upeKhQKLVZBPrAWUv/9f+z4r2T0GLzwhKG/wcd7QInNtPxv0x6n5DdvJvLh4Gs9YejPT7gO+ZKfKEUC/n+AVYHlK4xfSX/0L1SogFyAH1Z104bxj/3aDd/f/MMvZTVp3lz2Y7uToqIlnP6PiN27tuFq4BMmX+oPY/uEP/hangCRfSj2jpfCPtfI4OunQ1evRX5TqHARWkhhBSbEMPxnnQrToXhU448y26GypT/x378UfkhHfOyksFJWaOBr+02EdukkGbNJpV4TJHGazIpTRPC3z8Dy/uQvNA+LV/1suqTPUxIVR6//n971oyz6EMolmuM0yBlSGPEQyuTP+o35sPB3zhoJf6TYfuIaf2zz3fizlhYzf5I4SVN49I9jW1di2b95pPhTIU6VI69UHzhLXVe54fM79VRITaPBLDaegBxSuuGX6zJMspXGl9GQbvWfX9YskJWfvRslfOJm5a/t8tMAYMH4ANP4iOC7+W/hh+3/nvY7CDwu+QsL36WQGhzs1dLRPrNdJCDRZiAzVD/kPf6oi/OqFlLecqRXB6NEVUmISCdA4Lmxm9lMjeZOn5SuzluBppsL+8hD1KmlcK9vutoYU38MUIxxGlhdAL7S/1/4dORbrduCbjjlCEsSv63NAYf0370Xy8BNWiAlVN3H9MPpe+Up0rwLbnB1kTufjlHh6W/4Rv666d8NByDqYRKMiP+nz5yW+fMWYL/jt/pVFiNByjnnizkpfODbJfs4CeLBQrpes4fl/+vYP3nq1Fndy7hw3pxw/A+FVWkM9uWNh2XL4s/W06o3BA6wv4J7qB9/NIdVqAy68WfLrPzV5wErbh+ApXPLpg1IiZ788Zvd4zFpT54y1Qc+HqRSxfKw0nXXz5/u3AFFFHE/67YBQjaB8Efi5WE8XiLYcQYNHIjlVm7+N/CnTp0M1zPYb4bwKSx+1Wvi1HiY/ncGztoH4EtDP278UflvuEfrTRxp3qyZWple4xevAL9Y8WLq9kkrZAwyh+c/U0Plzt17+MgCLC3rN2Iih2LKip3+Z5SAx9P/9+3bi09WfiYHDh7ykT/CT5s+rTRu0EDdkvkbfzZu2CRt332PmOFQU3cs+4NefGJHCSP/Gu8H/9Vw8zMIhwbpfN4t/xb/yhUrwnF9WezXLAYorgBi3rx+Uz7+pCcOqhkZsqk5crwkw3BIp3S5ClrGvWQflv73sbw5afJkmQSZCsEet7DjX5JEibGfszy2GFTVVREL48bN67DmldJm2iV7m2bxP3uOp/kra3SjRg2kS6dOEfLf9v+fd+2VmTNnaT+6iQNCVv7S4yXR4/mCNQJ/jj+tsY1ks+PCywNfb3zHH6eIlCwDX7d0LQZeENdbIexT44H/N+HoX6lyBenZHX0Knjy27/hJaamn7J3KIpt/7sJTzNeg64YNPxp5Rhkr/3vQLy180mr6jOnyLfbgHzywLxz9iX++/Hmw1/sd/ZqaohYJ/A+6dIUrt1WEpuNPSRwsHO5sm7HwH/X8t2/ZdByiwZzgEwglVOImSqb7GOlsPhtOlacrGAw6A2mH/iormtN3/L/820GZ1QaHDYF/nMRJpdnMnT7L45b/qAZBO5wHupW/P86dkP3LvpGDK+YYa6ur/zWfQetmSkf/8B1/qRSuG/qhnIczeit/7v6fLk9xeb5EJXmpbF0Jivm0B/4fcDy/bdqXcmzLKlhQ0Zfwz/ZZtjNW7PiSq947kqtGS3kmTnzltRv/X36YLoc3LBNuWSB9QKhw8LMUqyQFm3WRxOmzqPy78T+0ZiEU0vYOHQz93fC5xTVs/2+PQ1EEZvtf2P7vD38F4PQ/N3wH8F8a/9z4+xv//hZ8ayE1aFkSEE8010C0bfX5DZffSTVL9koiEMp5U0Ca1owqQ5VRrJo1kCQGpqe+/2PvKgCtKp7+PEK6u7tBsClJ6TBpUBFBCQsMDEJQEBAVETEI6RIFDJQOQQywaVC6Ox5S7/v9Zs+ee+599yH6B8XPXXj3nLM7u7M7OzM7ZzaOrQKYWb+lyzqgLow2BDSICO8Lh4kK/Dr8UBGgkKO/5S9lKzDQaUwpbVy/CdPch7DJKafkyZNX+ebv4r9Dx47Ib5u3YCPQcazxzIxzEwvpOtq/Cz/lbxemdLdiLSQnR/LkziO5cuUEr1BmQCUlFEjyL5I/nh/JL1RxKUkaHFmWK2d2yZ0LX8pJxK41DbL9fzn0D9cAc7p9N45rSpcurXDJSu6cubGuMMkf4ueGsLX4Chm9+NwYlgmnKGj4k/Tn9DdpcOjwYXwCNTP+skn2HPAAJUqsxV3O9gf1sqn836t/D2HJCtvOpQikPc8iTYKp3b9T/x0FD3CzJ73fMZCxtGnTSfZsWVCfbP/v6R/Z/1wGsPiNnmj3ebmxTTf84bQPUgGAl0P+IvET0bnTp+XQduj5nVvUm8np87RZIZNp0rJaCdof5BnmObFvt5w6wsP800iqLDklffbckjiZt05bmxLd/jh7+pQc270VeQ/DkN4ria9KIWmz5wHuXJI0eaq/rf3/1vE/hktI/UGITIPADjZqHPdM9gzTYLwCBn5smhqkzMxOx4CA7AjhFr/J5sV5GY3vU4FD+FEOP8lHwxMvxCjLQLF4zaZxpjQ+c/zREgjg8Dv6O/5z8ucpBGNwG11hfp3+UZqoIqWGNvQgbbwoHQSc/nXjz58Zf8/hhX9ihxpyeOtmHX/avLcc6zjzgacizQwnf07+wBMR+idiyt5XRZ7mDj4H76Mke1Gxv5/GHb1zNGSRB2t31DBlumdQ0shVlzYualyqwYsHtV6pGq1yRBwhFMjcM40qk0/6w0cvmHywRB1+pZCjP7jE8d8/Ln9dn3gCO6cP+vKv78CcKVEhZrSR3ITkv2rVKnIfzpClInDy7/QfGcfpf4gDiXAFjX/nsIP9W3zl6Jvxr2nVCtxUQxr2GfuP6x9nf3iq9l9gf6lBGvSCelUPcboyveF8VQKhFE8eglIRfjC+UZ0ceAiDPxqe/I9b877EONxbL6hKF12bANcEDD/Iy68q4Ad5cGUK0xmFayKmawYOVTRGYcx66eaCX4ffEMzRX9nK8R/FJyQkl1v+zAkIB4zgAq1Pf8olvdh/IP8NGteTF/u8gDo7+YcgO/3nsa7T/1fG+LcSO8h3rVklO75bKqex/tKqliZDZkm2Ete58dfZHxdtfxgPKfU8Rwkac/YWV2UsXi8imKFC8KUmnENqLUI7h+4pEFuMhTXJSNSBCbHIx4GSRqgi1zrZW1OIl6JwZmQzPhNuQmEglMPvEdzRH7zgMYVhD3KHxylqCxk+cvzHke2yyd9j2M3O45hsMF2hko6ohOTfJDEPN/Z0aNcOd8YkNdyNX7VsnfyTHk7/Ga4iLZz+NxLir2HzHkkaBqsKL9X4O/v59rJx2adatqV//d4jpGDlOgbZZcbP4h3////g/xhzCqnykvfDhilb4WpZF89edDCVGcxzKDEWO24ZlAf1x4wb5zHgJVKDk4kGnoand4gB4ogD8d4go4VEww844xUNQXhmtK2MJjj8IIejv/IEWcrxn5M/p3+MpnT6140/GGjBBpdm/P3xwxGyf9NqnNOaVLIWKyu5rr5JMuQu5MYfN/7+6fEXPIn5MjCniqiRU2PpBX4TiA5AhG6DB+Mzln1iJtINjNqbjOWNdpgpXX8ZhTjeM5G14voydWAxlmkm0YPAs5bhFaWx4T9MdvgNfUgZR3/yF7jC8Z8nNBSokPw7+XP6x+lf1ZRu/HHjr7M//m77C+tHjf4x4xIlMX4giDdS0QCkkZdQ8HfZm1JpRgLemIXmKwTxczJVa2GnmAMgJi0afk0JhzTWlqmgw6+0cfR3/Ofkz+kfndSEDqeKjAxO/7rxx42/kApnf9i3cV9F/N32V5Qpe68uaoTynlWKH4yhEz9eDVJP6elACA1oVosF1n+p4YhyAWcMXG22orIKU+1kRW3wexBAyFJDJ8yF4gN1cfiVGI7+4A7Hf07+PJ1hdVac0z9G8Tr968Yfqkj808HYqEsdO9z4C+EgWcyPpZA+O/vjctpf3pS94UKf/vrIH6vETYT3ZCPt1YcW/VKT/WYtk/nSEZoy9xifVqi+jQDCDg4sI6w8iAnSzIICJjLQtMVue2ssh8EbCP46/DD+QWNHf8d/Tv6c/nH6N8KscOOPG3+d/QFz6sqzv0IeUmvc2WvIvot3Z0CiA9JDqh5RGpoMeomEDT1b72kU68l7K7Hvb155XpFqbukUFO+8NGvvIqeewenwO/ora4T4jSxhiKKvv+Ac8hfSCRJuvTn+U0o5+TNqRRmJzKOs4vQP6OH0L/wpbvxx46+nG5z9ocrxf7H/sKlJV4+oojU/JK5HWY2wVMbVRvOKYCGDT+ZgfA5iAUE1APg1cXomtr62eyXYcn2IQASR0rjFAee81TkW7NjXKIX30rUZCuDFOvy+ogBFTHD0J00c/0GMnPwZvaL6BdJBVYRgJMTqERPj9I/Tv2784TgLeVDvsht/nf1hZ57IF9APl8r+woy94S7lNirg6IH6mvwYHmysveIcUh77xPoBmKsB+NlRKvnz/oJ6JsAs4DMLJAwMzDgcfK8ZGcfMOkLYa+gJCV7QzLi3MLh6uBx+Q0JHf8d/Tv6c/nH6140/bvyFHqCZQnvB2R9XrP2lHtKQOYn+8h/8G/biBYOFpJFMg5RX82VAYyzqtAa4wZqOLCx4b/MrEjzQUDXePUIFYDWB0CaYMqBuWTai9Vv3uHH4Hf0d/1GGPAnhtKKTvzCdYyhj9IjTP0bHKjWc/nXjD4TDjb8hreDrCmd/0MjyrC9rl11a+yvelL3phlBnEHtYHCvEjkkgcA1pqAOZOVSW3uGHDlDC+HC2LJTLFQT4RSI8pl4GNTS9I/TNhiak2QGWMAwsk2WbW70aBDbGL87hd/RX1nD8Z2RC5UdlyMmf0z9O/7rxB2OmG399g8HZH5xlMp8wutz2V4RBGjLefMsudKPjVgBCbU19aaAR6CXosU/+CKejHH68fZ6+0ejdMJn5vEBFYLw6iPDKs3FqPNBgJQTSiPc8ijX46Y5HpDfrb8szV+Z0+EEp8x9kUhprh3l09ghmaa2Pjv4eyQxPOv4D3zj5c/rH6V83/rjx19kfl8n+ijBIfTswaJN45krkxVgsnt3iJ8Y3SDmu0742b968Zx7+eZ/P1oFfI7x4Gpl8Vk8qrlwHZxytxhhFKpJZgilL7VAvD9Mig8Pv6O/4z8kftYXTP07/cuTgnxt/zBgLoTAE8S5u/DWEcPYHLKy/2f7yDVJj3qEj4gXrIQpA+Lf+jZ8r9vezuLeuS4/T9WK5HoOCGpjMa12aVJJmsKBkWEhTKFMSIS7k5eSORwoNj2c1ZQVz8N7hNwTy6KIXSyNHf8d/kDd9w3PyZ0Zip3+c/nXjD1/W3Pjr7A9rKfwT9hcM0vCj52HlGY9l6MbUK8qvD6ppRqWdUoMUKYFEVfd83cBOEx43o29gBNCWe4CWCv5rCctgpFcdXAkZDF5OLwr4UTA3UClkINHhB20c/R3/Oflz+sfpXzf+6LCKAVKHSm+g9IbN0LQk4t34q7aFkstYFZ6tYS4BE0NTnf3xv9tfvofUmHuW9HwKvTHau7De4EN4j2iyORg/ZETyrYvTpfTF0MeZCD5glmcWCrMAG4KF0YTkIlqTK6yjreAgG93JRmZMpE0KL8nhd/R3/BdN/s7GHpMDv66VfZtWS6LEiSRdjvySMX8xSZkh679K/jYu+UQWv/Gsjq91nh0uOctW0HtqFqd/nP5z+s/pv2j6j1ZGKIRbDc7++GfsLzVIOXtnpsADpmegf8xt4DeQplapPsMcxDWW55DqcMBI/HmeOS4CtQZjiAnMnRqnmt3s5NK62Fl3LYWmqZqz+qv7cXQBEPMTBy6mAQa1j8nhd/QHY+kZUJeO/+bOmScnT52Q9OnSS7WqN//r+O/gto0yb+AjsnfdDxQgiibEx74Exkjp+q3kmqadJH3OfCpapNyVLH/r5k6XuYMe1X6o1/NtKXRzQ7bK/Dn9c8n53+lfsJYbf4yIufHX0MHZHx4dIBv/i/2FtWTU3PEDY2lB+iEY4flPg1Ee3KnfT/u+TS1ZyyAg3lGoydTQNPn9onkDOPV4aiRdv4BhJ+vAwsggMpNfdQJffWwAiB1WGe3wgwiO/uQE/F06/qtY+WY5fiJWSpcsKRMnjkXZXvgX8N+vy+fKp73uBUWUMWzNDZ+QTBpipFSdZlK922A82UhebZ4rS/7WzYNBCgObVa3f4y0pAIPUyT/I4XcZby4d/5PQ+pKCYvV7JsozhlWc/g351hz9rcpw/Ofk7+L0T7wpe1+HGf0SsmfsWKTKJwClt+aZv/YcUmZUoxI3tCvp37QGpylKAaDROKnGnDRAE0GJmukFOjYYm0hvcMdnFGTK5DPzIc4rmE+8ZWA8fxx+M3A4+l9a/qsAg/QEDdJSJWXCOBikYOx/A/9t+3axzHy6lZEP/OYvX0NK1W8jWYuUkfNnfpd9m9fIL7Mnytav5kuJui1gkA76V8jf4Z2b5bcV81Rf5L+ppmTIXcjJv9N/Tv9jLFXNBF5w46+qadURah8YA4FGBe6c/UFr60qwv9QgZXdoJ/k3tOgQ+IpHa4a3+IsKo6khAHPsEyD9vMzJdMTFqFjwAX+EwS8MZ7OtyuYhsBf8MvwcgRsLZGHBWFqkLZuFI0Jx8YJ7hx+EsDRRYjn6/wX+q3hzFRikJ6UUDNKJ42GQMlCxKUmvXP6b+nA9TNP/yMpKidrwgD46UBInTRIuf0hbM2eqHN2zXW5q09WTISNF5BwVJ73hQyD8C9rv5N/pX6f/KLxWR4Eaf0H/GUMgIPu8dfJ/xev/f4P+U4NUWStg/AVZzWNdy8LBJP/ewpDRY0/j2CcyJ+4Zr4EDNR7oISUzW5EgvLqyefXwh9LMnWbBra2e8bKaNIvFKxZl4U6tApui2BXhfxk/e2LDhk3y26+/yd59eyX25EnJkzevFCiQT/LlzS/JkyfzCRyk/+HDh2T/gYOSLFlSSZM6naz4eoXs2rFLrr3+WilTqhSWZiaSn3/5Rb5dtUrSpkkjN914g+TKnQtlRaf/6VO/y8ZfN8vGDRvlAMrNmTO7FCpYWOuRJHFi7bsgfvYn+3b3nt1yGktBUqZIIVmzZEFc/P7fsX0HPpRwVpLAwMqZI3cY/x0/cVx2796r/Jcnb25JdtVVsm//Afnhxx9k06ZfJW/ePFKqZAnJkydPgDcNDuLfsmWLnD17TlmL/Hf7Xc2U1woVLCSDBvbXOhLa8l+2rFlBr9Qar9FIDPLfwYMH5cjRowYeU6mkf45s2RJsv7I08PL6V/l/68qlMuupFuwaSZU+s9w76VtsZALNzeS2V0H2m7YCv+aO7T+8faOcP3dekoMHUmfKFpX+hLbtJ5Jzp2PlyK6tGps8XQZJkT5LuPyDIMf27ZCDW8ALv66WJFcll0wFS0rmAiUkWZp0yBfCH9n+c2fPyokDuwFhtAzraPGnypJDEiVK6qUoek0M0t+UzDTmxIjMqwJEb38k/mj8Z/E7/QNKJCD/Tv+D1UAex39G8syvkz+lg9M/EAzo36hrSEMaHhKEEPlsYqMmnPQ+HaogIckLSSHj8KIehwWgibAAyTdbfVjcsHOUT71IPOqg4MOwdD6gIG2ETTA7SvmkwUbzwd7z+h/CP3LkaJkydZrs2bNXSaI/oGeQ/oMGviS1a99i+pmE8uj/xBPdZc7ceZIxQ0ZJlSqFbNuxQ2lHkM6dOkrixDHy+htvgomMYZA6VSoZMeIdKVG8mMFlaY6nlTBaH0d5NMZ0/A/0f758eeWVwYOkcCFMtQbwq/UE4OYtWsvatWslZeqUsnzpElO2dmio/6vVrCWHDh6SPPnyyEczPgjD//rQYTJy1GiNmzp1orw3aqx88vnsePz37NPdpWmTJn77Lf7qNWrLoUMHzSNQKuoI/ORjmjPc0fsy6VkL9Ay0379H3GOPPSHzFy3w8VesWEGGvzk0Hv0tftLrf+X/j3vcI79hKp7hhpaPyo1tu/n4NdKvK24C8nf65DF559biij9/hVrS4HlDR9O4EP1N5UPyt3nZZ/Jpn/s1utrD/aV0ozYWRE7s3yvzX+0q275ejKahcQwB/LWeHCLFat0BeC8yov37Nv4kUzrVR05zDrGFI/3r9h4hhSrWiSgzUD6L/A/JvyWvT1/Xftf/jv/Dxj9VFgH9E9R/qrQi9E9IuSSs/8LLxJMt38nfBeUv3CAF4TkGkGYaPKvdPsa7cizxgM1tnPAcUjuOUBnqQKqJfED5SNSzQvG6rLiYpsXAqAG+IH5UDs/eG5QBM/hMUco3Br8xiPjLQcnhB7FIV/zdfU9beAJ/At0M0Uj/7FmzyZ69ezz6E1CkXdu28vBDXcLo37Xr4zJ/4WJTkELhh/1tiopPf/RXg/r1pF//F3z87P+PPvpUnu3ZI6z/M2bKIAdg5LGPGbiP++23hsmNN92oKDTO6//mLVvJmjVrYRTDIF0GgzQKfjVIDxyQfPnzyayZMEhZLOGA/7UhQ2XUe+8p/uLFS8ja1etwb/kvhJ/8N3bcaClbpgzRa93Ifw0aNZbt8MCaSPxGwY/SFJ671QcOgkF6izHwo/F/165PyoKFC3z60yB9a9iwy8r/I5uVldgj+4EjRlq+vUAyFSjq4bfNSlj+Jj94i+zH+tKkKVLLAzPXIAOlDGQg6XiDH20/acB7xH05sr+snDRM05sN+0yyFCml97t+WSmzureRM6eO+e1nuWdjT4a1//oWD0mFe58ETHz537fhZ5naqW48/OyYBj3ekYJVGmgf4dHpH/SF6SfDtE7/uvHHjb8QCl//U39RNSWs/4wyMXAA00e9XED/Ufc4/fPn9a8xSH3CekQ3tFTam5gAQOA2BB26s58ONf2m3ax9Y59t54Z1KEcw3TIfKicMDY0pwjATXkr0qgWE4HkXjDL3Dn+bu++VM2fPSMvmzeSmm8pLliyZMKUJz/T58zJ/wSLp2bu3nDgeq/Sf+cF0yQ+DjoH079rtCVmwYCFIHyevDBoklSpXlFcHD5Ep06YpDA3ED96fBk9pInnksW6y+pfVkhJxXyxZJImJAz0SC0OjZq06chJrLvncovld0qljR0mXNi2WD+yXfi8NkAXzFyn+ooWLyJTJE0z9gIF9yNCsVSs1Iukh/XIJDFImBDsbj9VrwosJ72teeFtnwUMa7P9XXx8q740eo/jZshuxtKDXc89Irly55QDy9OnTTxZ/sVgbXbdObRnwUj9AhfCfjzuHKWvEsFDwX5XqNXQNaYkSxWX82PcQaYKtEulr229MNVtdA/EY6LqQdPWQVKxQUYYPf90Q3SsriJ/K83/h/3Po/+H1C3jtPy8PzNogVyVP6ePXsi8gf0uH95AfPhytYHePXibpcBxUJP1Zbdt+3n/Q7U7Z+dPXuIuTTrN/A48kEU61T+xQA0sANitsoSqNpPIDPSR15lxYx3pGtn6zSD7v10XOxB5X+rd4a45kxjR+ZPu5NONM7Ami0bB+4UxZPPQZLbNuDx771MCri5P/aPxHomlfWSZz+teNPxeQ/0j5U+YJCrsRQ0/mzINJdvLn5I+uCjs2hJgmIf0T7iH1GMuMjMwSCLbUQJTeanwoMfYUziGFWyg0eRcqLQTlja+M8IKtqrl6nhabiKsZk02qhdVkKNMYbFZiDvNMYIff0n/Hjp2SM1dOX1l4VDL2Dej/wYczpHefF3SFRMeOD8iDHdqDlob+j3oGKen67YrlkjRZMlm3fp00a9ZSYapWqSqvv/aq0n/MuAky+JXXtLMXL14gGdKl0VLGT5goA19+RfFXr1FdXsPUPIO+XwD/uXPnpGWbe2QdPKBkhyGvvCzVqlcFPEXZhOYtMWW/mlP2qWQ5DMdo/V+tZh1dDpAXa2M/mvkhYEI88dqQ12X0e2O1vEwZM8rnsz9GW65SniKGg4cOSY0atfz0BfM/D8NPmCD/VapcBcc+ncCmplIycdy4P81/NEjnL1zo468AD+nbw4YqftM2Q3/b/kj80drPHBqYKYL/j+zaJuPuqeCX32XOdp/+JhOy4Eaz6jUc/8YlH8tnfR/Ucus+N1yKVGmosJo3ivydR58Or58XPRAj+W+oLg1fBI0A/N0HI2TZW701W+Hqt0rdp+FB9YLFv+vnr2R6V0zXI0c+5G2EvAxB+ltYTQD+9fOnyZyBOIcUod5zbwkN3WD/h9pl2kk4y3+8Z7Blmmt4+zUdhdhj6CysZozS/kj6O/zh9CXdHP0NTysP4cfylOM/6iEnf8HxjzxyIf33/8r+4adDdRqHkoBglad5Mr82zl6DcME4xlsPKe8NUa1LE8+gquJCGvOZYOL07HJE2KOdmGaqxKHF5rVxoXoq66oUh0pkXgaHn0bdhem/bdtWTEnfgQ1KIo0bN5Ln+/QG8xtaGg/pIkmfMYMsWjBHPWr0QtIbSYg2rVrK44934/grs2d/Jt2fflbpPvuTWdiwRCM4Rh7s3FmWL1+h8e++86bceIOZkg/1VpzMmPmx9O79vJZ5V5O7pMcz3RXe9n9TTNnrGtKU8JB+AQ8pAvNrtxMLbqrDoOT6VK5HpYeUwfb/kNffkFHwkFKqH3vkEWl7z92aX4FwR55se187+e77H5T/vvtmBTx6ibV8lhLJfxXVID1pjn0aT4MUJXk0M2WaX4vf1BS/Hv/36fuifPb5ZwAyLahYoZIMxjQ/23Q5+H/Xz98YIw/402bPJ/eMWR7W/r0bfpGd338RD3/Rao0ldZZccmTvdhnb5iZt4rV3PSCVOvRQ2JP7d8uMp1uiXTFyzZ33S4k6LbTh+zevlkkP1sZLToyUv+9Jua75Qxo/od3Ncmjbr3p/3+SVkjIjNnKhJNI/KP8zn2gq279fptTpNHuLCLyrhnaWkuH9v34+ziEd8LCWW8/zkPIhIfobqis4fuLjt/xPOJYS2f+MjeS/P9P/Dr+hH+no6O/4L1L+nfxRu1hd99/SPwEPqadi9WLVLckSjA888zZKiLXfsmea1bx6NQ8sTVeF4YZvyYk4mmMw5z/NoBfvnlm8eJ7YZDwU5mtOLNvaAASjYWphzRWPYVHmgSX/F/Gv/mWt/PjTj9ixvkf27t4jv2PXOul/DrvHFy9erPSvXauWDBrwEuhm6P/Y45yyXwAjL5989MEHSv8TJ49LpUpVlbb3teW6085KZk7/P9btcSX6NGwcKlqkiMI0aHirbNfNUDGyauUK3dkdSf+dSK/boJHmrViBG3wwfc1S2WWoWfOWbWQt6m88pIsQbdKC/V8NG48OYk0q6zprxnRmNPnRlCFDsYZ05Fg8x8kbb7wuVSpVVN4J8t8TT3WXz/EFJrIbPaSZMmXy8fMmyH+VKleVEzipoGRJc+wTq3kl89/uNd/K+4/crrVMkyOv3EuDFO207f/543GycMhThmCIt/3fqN84eCmrafyou8rJySMHJHuJctJkyEdKm7X8QhIPpEfIe11Vadx/gsKu/myCLHjlSYW5fdD7kqtseZxzek7erJ+P5NVuLVr9Ng8/6oHlEPpPK4VTFVZ/I8dh7BKw1Qh42/MWDaN/ZP/rwfgDUA/A18Ma0kI312eVDCKLkI1VLP9N+Vdiu/Yr/0XqHzf+GPlTgQnIvwqqUixc/0XK35Wu/7QdTv7/FfovYJBSg4eC1eN+DCLYp2Q+Bo4d6hniPf7MBCvWDGKXvZF6QOoBo2R2ZWFmMwGGgdmZzUfDzl6KKROIQhOufhY5DzeK4mFdAGPwm/ITcdpemQ7wrBBdLg6/bP5tswwYOFhWrPjKkhgkj05/7gx/GZ46djTpb9eQcq3klAnjlf5nz5yW62/A9C9gunR+UDq0b6f9u3z5F9KpszFOJuKw+FJlSsl5GLvXXH+DpnOqfOH8OX5nBvv/1KlYualCZU3LjWOjPv1oVlj/2yn7FGlSwUO6WPs3sv9rYhPRgQOHjIf0Q3hIA/3/Gjyko+khRZgyaYIULwEDB/Unm1j+69nreZk56yPlxrlzPpPMWTLrvYIQCsCW/ypWwpQ91t2WLl1CzyElf1/J/Hd0704Z2/om2xTpMndbWPvXzXvfNywNEGkTJ436jhEeNM8wDwbfmgVcmxsnHT/aJImSJodXsrOsXzBD6ZgIBOowc4MkxdrUBYOfkNVzJqv8PfDROkmSPJUc3fmbjLvX9HFC/Gdw89fghwTLna9+KDlK3RBGfyIM9v9afKl2mg2QAABAAElEQVRp/qCHNU49pJWxqSnQ/07/OP1LXvJDAvqP6TqmePovmCco/5H8d6XLv+N/x/9BXr6Q/v3H+d8e+xTPbAxanL4kh27iwXtJZspeRRRyG5guZjoHEh0oKPgsgSaBIZVfnqUcjEn9vjYphLowmtA2EN54V8PjTbrDz13re/ftkabNW+tUtpIVBKxZqwbOvMwu6dKlVXrGxp7CdPZ7uI8Trgkd+vorhoSgf9fHn8Rax0V6jNOUieMV/iw2plx3Q3mFf6hzJ+lwPw1SkS+WLZfOXcy06cTxYzCdXVqOHjsilavU0PLycyodhmJC/X/1Ndehj2NCO+kD/d+8RWCXvT9lH97/XEYQmrKfjpK4qcrw3xBsalKDFBV9f/pUKYzzQyP5r0ev3jJr1sda13lzP5UsmXBuJnhPvfIR/Gem7E9ImdJcQ2rWphqi2d8ri//Onzsrw+vlV0Hhpx4fmIFNTTjT1Zc/tO/s2dNK/6/GDJJV04Zj01ucNH5hrOQrz9MC4uSXTyfKwtfg9URoMvQT3TU/4o7Schoec+6S50Ykrvfkus/x992MjUu/SdZiZaTp0E81z57V9NLCKwr8abPlleK17kI8OccIvK2LKkTWDF1H+S5WqwmWGQTPh9XitO5W/mmQWk+tmbKvH9b/zGH5PyH+I34dtkx11JhOqP9ZHuEtfrYiPFxZ/c+6ufaDCOgo1//gBMhWpP5z/O/k/0rQfzFcQmq0VUilhoYJCDCTzShBeY4E9TPZNDVIqf3I9Bh8kF1zGYb3wUNxXkYSgzAMtiwi48BIxY+XVpRloFi8wmicZtFnoDMlEMDhl3dHjpA3hr0FYsRI5ZsrSf8Xnpe0aXnoOIOh945tO6RB41vxFCNVqtwsrw95xac/p+znz1ugh8ZPmgSDFPTnju3rr4dBChp36dxR2sMgZVgKg/QhGKTsl4kT4CEtYXZHl73mBsTEYPd9Cn/9J+EtfnoeTmAnPpcBsP/z4RzRmTO4KUlBtP9btmojq3kOaUrjIWVaZP9XwLrOWOzk1132PPYp0P9cQzoSRjdbPH0aDNLChcLwE1mvXn1kxqxZWjI9pDyAn/HR+M9sasIa0tLep0O9+lzJ/De65fU4/3OntrvF2/Nw7FMJpTfpz3Za+ftyVH/5dvIwRknDF8bAwKyh8rf/t7XYIV8L8Xhx6dJPshUvK9MeaiDpchWUkvVayLJ3X5Rr72gv17d6VN69q5TS/7rmnaRCu2cUwVGuQ219o95nLVZWDVXVCRH4AWD6ljcJ0J91C/Y/p+znYOkA49Ug5bFPgf5nQYqLZfrBi7sE+Fkki7mS+9+1P3KYc/1/qeTP8b+T/0ul/yKm7D3tTA7TEHwO3kdJ9qJisTaRqlmZXec5MNTRMGW6Z1DSyMUop5E6uKjBizi1Xjk0GmVhcgFCgQx+pjHelIdbPnrB5MNI5PArhVq1biO//LxG6b9owTxJnz6DoWyA/l9//Y20f6Cj0rHqzTRIXwWMoT/XhC7A2tASJYvL5AnjQFcapOfgIcUGFzx1xvFNHToYg5Qe0i5dHoEdcF4mjR8vJUuV0Lfwxo3vlK3YOEX4r5YvkxT4KlFk/2/Ztk0a3Yo1jqiXemlRB9PDps/b4CzVH3/8UfH/sOpblGs4QwvF/alTp+Sm8pX1xSlPvtw4GJ/TyHyRQv7zPLx/KAzSMcgUIx9MmyyFChWMx3894SGdOZMGaYzM96bsDRYgwP8gb1bEt+yP89OhXEMK49uGi+W/w0eOyLHjx7V4Fp0UNMmKJQJBHMH2R+JnRlJGf1iAFy6E/5Pn28vmLz5DUXFyfcuH5aa28HaiEG1aQP6+HDVAVsEgJYaGfd/DlD08pACKg5f1ndtL47zQE+rdTJ+nEM4afUmuhdFZtPrtMvmBWpIuRz6p3nWAzHiyOYuWhs+PkALl65rPE54/J8Pq5Ff8ydNlknbv/xAVP5FZ/vMbqJVkiSaN8cH22zWkfHGu22M41pA2Ugjb/07/GEo6/etxVkD/RfK/5bFLLX+GXx1+HVkc/eONPyqhpMtf0H+e+vf05r/b/lGDNOgF9VSXEkYbqjQyhFKhCqXooEAGIxFNCD8YX4WdaUpowHHg43/cmvdVxuHeekG1HLo2WBoTIMDIy68Kca7PG4a0GKKlly4R0zUDhZ2dgRoxvynapP1H8TdsdKts275TUqVMocclRaN/3xf7ybRp09ULVgVT9q8Pedmn/2M4wH3h/AVSvFQxGKQTQUtO7Z6V628sr/TtBA/pg/ffpzQ2Bil3U8fIhPHwkOI77+yGzg8/JkuXLNUOGYwjn265pUa8/h87Zry88uprWk6L5k2ke/cntBzb/493f0rmzFmg+BctmCsZsesfD37/r/ruB7n3vvvZ8/CQhg7GN2wQI0Nw7BOXJbD909+fIkXwRahI/uvdmx5STtmfl3lzZ+O81qyKIBr/1alXX/bgU6RZs2eVebM/8cq6eP7r2hWeZxj6Khd4WatQvry8/eYbXjmXh//1OCWcDcpOSZmOnw5daT4diueg/H05qp+snPKG0r9hn7FS4MYavvx91ONu/dpTupx58QnRHLIDRzTdOXCq5Ly6goxsdo2cOrxPStRuJqvnTkWh+NjC5FWSgjvpPfmb3LG27P91jabdhY1R2Utco/UJ4jeuTaBnRS9S/tfO+0Cn7Nn/3NRkD8a3/W/xR+N/ReP0j5mFIjGoQ3n5E/R3+pcEu3j5d+MfVYCRTmUzJ39O/jA2kyeMhxSDh1oJiPBvPZ3Ey8UE5mM4pZuaPGbDYGsK9K4EQLCwJhmwHLDU6PQrBSjEU3IZ9NaUyRhz56Vz0EIcN+Ew8N63SP/j+B/El5e+XLZCifLh+1OlYMGCpI5P/7U4+5M72C39q95cFcYbPKRqQMTIY4/TQ7pQdFPTRO6gjsMh+zBIdQ1pjHTmpqb7aQiKLFm2TNeQ8p5nc5aCh5RzmJ98/Kk806OnIi1Xrqy8+/ZwSYpvyTOwe44eO45Pg7aS7Tu3AyZGRo58V66/BoYKS/X6f9DgV2DkTkJcnPTo8azcdcftuDPpPLD+kUe7yuKlNHpFzFrVDxVWEYAtdJf9qDGaPn3aFCmkU/YGv5aD9vZ8nh7Sj7Xc+Z9jDSkN0gT47/72HeSbb7/T9E8wzZ8HG7H+DP+Z813x6VC0gfgrVijvHYx/efnfHFb/FXCKFK7aUOo8+To2JyUDWRHjyd9yekgnDVVaccpeNzUpqWNk5dRhsnxEP601FtJo+zt9gkPvkySVhTiY/qePxiANAf2YNkceuXvccnYZ4Bgnsm4+DEccz8SonGVulNv6TZDEyVKG4feUEo6H2iSnY49JtmLlNL9+XQY5Q8VppRTXekzZfz7QrF+uz2OfKjc0CMlgoQx4MIFRDCYZ5QTab/F7SA2gojKNCBUXws+UP9P/Dr8hq6M/2RPc4/jP1z9O/tQog4B4+oWiorfUMtH1H1P+v+ifGHMKKVttg1W5fLaqE032ooOpFsIzYxUm9jR22SMo+QwNdVw/jwEvEQYqLVEHekN47xAnZCAOpDINcCYotCmNtwQBnPGKhiCC+BWxATXFeEX+F/EPf/ddHKH0tpI0T4E80gbneVatUgVG5Wn58suv5EV4R4P01yn71wf79DdT9jRIS8BDOl7pfwaHnt9wvTdlj+/Zt8cue9L/i2VfwkCFUYA+mggPaWl4SNmNnOJvfOsdsg0GJ/ufh8B3fLC95M6dW37d/Kv0H/CybNiwAfli5PrrrpWRI7DmNaL/ly5dJl0ewsHnKI9HP/WAx7TcNeVkPz4VOgoH3i/E0VSaiL7Olz/wpSbAk+GG4NOhI8e8p/jfh0FauEhBhafhbdvfEx5SnbIH/83DGaFZuIbUcKtfNvGT/4bC46pLAJDCNav33Xu3nruaNHFSrUbJkiWwNCF5gvxnDP1F6BeDv5J+yx5eycvM/7t//Fqmq5fUCFOu0jdKkRp3wegrg3onkp0/rpAVYwbKmZMntO0N/V32bLjIrl++lveR38pfYRyQX+e5t7T/f/tqvnz83L3afmSW0vVbSrXHBmo+ijTlD8oG56HeKbtWfw2IGEmHzUoV2veULIVKSvK0GeTorq1ycNt6Wfv5+7Jt1WK5+ta2UqVzX4XVrkA1qHgPbvzF7xm2ZOPimbJqynDFVbH9M5Ln2iqIxSPgiTtj7kKSKEVy7X/CayTwW/oDDHFsI1Kd/jGEI018KpM2pBGTnP61/G8p5MYfyxyGR0gXypSqcU+k/ovjr2s/mcCo1Ivtf+hkjBJgH2Up/SE7hYcEosOBvKfgwfiMImNiEkiv+ozC9K2Qil+51pSuv4yi0iMgElkrKkCOE5ywJzzvbdDs+uMVZRMCVyb/V/HzrMw77rhLdu3Zq6QmWXS85RNvEFq2aCYTJ01Rmle7uYrusjcp8JByDSl22RcvXkymYpc9s505Y3bZM28XGqRcQ4oMy7CGtJM1SHnsEzb8MJD+X379tXTt+rh+bjMSv+ntGMmAY6HeGT5MihUtonVhTtv/586dRzvulC1bt4b1v0VQFfVeufJbHMV00jdINc3Dz0+H2mOfPphKD2lh035WThkqRnrg2KdZM3HsE+LmzjFT9hZ/JP8dPnxY6jdsrO3RBqL9gaJk0EB8yx5HaDEwPpL/Hu1mvmWvAGhtxYoV5U18qUlFAhks/RPCb/J5OBWxd28TAtdI/LvxOc8Zz94jZ/EteVZOl+vghjiVJZgBIWO+YtKwz2hJmzOfkojyd/Z0rAxvWMQA4Lfm44NxGH4zrTDXlr7VuJipCNJueeI1XWsaif/ojt/k0z4dMHW/+oL4mVj21nvl5i4v+PhZ312rV2G3fmO/Doxj5fWijQgl8Y7xTfEJ0iz8BCmfAeP0D6iizAaCePxv+9/pX2Uncgr+ufHHjb/gAgiHsz9ABKgNVRdUpAiqc/XHuzfRYb9Mjhz/Lqh/MSBRFxkpZO5ogSCeplKvQzQYL87fZW9K5Vihos1qkbl10IvIr20ioJnDCUs1adHwa0oAFs9mtAmjzn8dPw+lfwleyKVLluiRJ5b+/A5923vvlXvubi033mQOiq9atYrusrdEtd9cp0E6Ged3sjPPYHMLp+xJ5M6dzDmkhFcPaReuIRWZMAEeUmz4YbD03759mzzTs5f8gPWekaEavLa9ej4nGTNnNBkCALb/9+zdJ4/BqP159WoVBNvJNPz69OktdzVpLtu3b9dlCR9+MNUvh/hf55eaRo3W9tMgNbvsQ0iIo+8L/WXa9Omab9GieZIhfXoFsPgj+f8Ylhp8/PEnMvX96bJ582bAKqTmGYSzXGvjXFQG2/4g/z/xZHeZMxeH8HuB7R/y2it/G/8f37dTFg/rIdtXLZMzp46bmpuKYoNVarm+9cNyDXbMJ8JUfGT73+96u+z+5RvUHF+3mviNpMqc3WtFjHz0bGvZ8s1C9Yy0GblY0sMzGa3953FSw8opw+DVfCsefmZIkSGzFKtxuxSr3VSyFsRpAAH9s2vtKpmuBmmI3iEcvAPNkWT5nDGtRyzC4fqoi9M/Pl2UUN6P6WM8OP3r6w1Ln0j+D41/If4zsB7TGWb0ywnxphv/nPw5+8fqZStfvAb1T5Qpew9UBwEL7sUFLlbuAlF6qwYpExH4jkkNSItY3zY1jgMGACjZ3kXh+ODJNPOaQYh3rK75NcWasqzVzVQTr2Dmx4tw+A1BSf/du3eph5HEyp0nl+TKmesfof8JfAN+0+ZNcvToccmUIaPkL5gf09spTC/+Qf+fO39eduzYqQZgmrRpsCyglCTDelTX/wHe5+3F8j8mR47s2SYHcaRTkmQpJGP+opJaP+f598nf8YN75Mj2TRJ75CCM22ySKmN2nFMK3lRlwMY4+bdUMN3q9B/HEqf/jWS48c9XdxQTEy5W/wHOvGB4VPyD8cfJH8l7ufWPN2WvPUmKG/2vj/wJj/KebKS9+tDmW/Z66C56msl86bbKwxSOWHKBvo3j3hqnLCOsPDQcaWZBARMZaFrBeW6N5TB4A8Ffhx8vAY7+jv8gC07+nP5x+tcOa57h4cYfN/46+wPm1JVnf4U8pNa4s9eQfRfvzoBEB6SHVD2iNDQZ9BIJG3q23tMo1oPaxiadxXjleUWquatTcNb3igSrb3CjZxA6/I7+jv98iaE4mODkz5ooTv8Yj4fTv5CM8Lc3N/6AJG78pXw4++Pvsr+wqYlmcjDYwcpGWysPV+9Wr9pJVq0zv8lnDsZnJwYMRb94E6dn4utru4fLlgs4AxGIIDIatzjgnLfGuwoxYZTCe+naDAXwYh3+IBOBKEoXxjn6g40c/xm5UvkCa1AUEZz8UUKsHjEUcfrH6V83/nCchTyod9mNv87+uEz2F2bsDXcpt1EBRw8cr8iP4cHG2ivOIeWxT3gk33I1AL+ewkHuvL+hgAlQ+nxmgYTBkTBx/Mg1MzKOmXlvHnANPemD/mhm3AVgPVwOvyGho7/jPyd/Tv84/evGHzf+Qg/QpKC94OyPK9b+Ug+pNf3UzvMf/BuNvtCPhaSTkgYpr+bLoMZY5KHW3MhkTUeWFby3+RUHHmio0k9hoAKwmsB4E7zSTdmI1m/dA4/D7+jv+I8y5EmIkz+nf5z+DRtz3PhD/WBCaKTFMx7c+EsyhKji84qzP0AYyzXWLvNsO0RfCvsr3pS96YZQZ5Blw+JYIXZMAoFrSEMdyMyhsvQOP3SAEsaHs2WhXK4g4Bu9fgDby6ANxQS9+joUP7ypVsEShoFlsmxzq1eDwMZ4aYRx+JU0jv6GJ5R/lIcc/zn5c/rH6V8MEvhQhBlM6ODgyOPGHzf+mvFBecPZHyHzSsfOS2N/RRikIePNt+xCNzpuByDU1jRvU6YyrKEe++SP8F5N7T5732j0bpjMAr1ARWi8OojwENk4NZ5osBICacSLU4C8tzm64xHpzfrb8syVOc1qU9bPGK3eDQEcfkMm/Fpaa4SjPwni04RcxGUmjv+c/Dn9A7mAQDj9a+jAMcuNP278dfYHB0m1HgI/HDkv3v6KMEh9O1AL9GySQOHBW5MaCRPfIOWgzvdLiq2KrtaZ+bzPZxPAb4iW5z2rJxMRXAdnHK1mMGQtaBgwo5bD50AZTA8Gh9/R3/Gfkz+nf5z+5VjAMUPHDfzouBEYOxhPY5sAbvwBLUAHN/46++Pvsr98g1QFMWjF+ffGa2nEmJKK4AP7NyYev7G/n8WvdV16kq0X7x6ZDYMzr3VpsnSjLFm4hTSFMiUR4kJWNnc8UmnweGRTVjAH7x1+QyCPLnqxNHL0d/xHBevkz+kfp3/tYObGHzf+8mXF2R//rP0FgzT86HlYeXQ8asd4N3yIGnxQTTUifUoNUqQEEtXc5OsmdprwuB19AyWA9r8HaHgB+XCjr2Usg5GhWhAyGLycXhTwo2BuoFLkgUSHH7Rx9Hf85+TP6R+nf934o8MqBkgdKr2B0hs23fgLQjj7w9DgH7C/fA9pmAWpJl3ojcneBY1BvQ8YfTbNHIwfMiL51sHpUr6L08eZCJ3N8sxCcRZgQ7AwmpBcRG5yhRmaVnCQjXxjaGYibVJ4SQ6/o7/jPyd/Tv84/evGHzf+OvvjSra/1CDl7J2ZAg+YngGrztwGfgNpIW8kzEHEx/IcUvPqhSsiPM8cF4Fag9GaoPaqxqlmNzsZtS7emzxRMWciY87qLw1RswCVJRAHLqYBBrWPiWkoWM8Acvgd/Q2rkGuCwfFfYAkMZMfJH/jE6R9fpTr968YfN/7q65yzPzBwXlb7C2vJaM7FD2rkBaODEeYtQytGKycQTv1+2vdtasmazrzw0TCDKnqTP5BNDUkmE5IPsJRhSwZNKKZYZCa/boqi68cGgAR9qw4/COPoDyKQdxz/OfkDHzj9A0PT6V/jnrADh9GTbvxx4y9HCmd//HP2V7wpe3ZIyOwL2DM2UjssAKW35pm/9hxSFqJGJW5oV/L9wgq8KUoBIAFIV4OBBmgi3WxBG5OOTZaXSG9wx2cUZMrkM/MhziuYT7xlYDx/HH4z8Dj6O/5z8kd9YHSK6gejIKhUcEdN4/SP079u/KF/yo2/qhac/QGt+HfbX2qQUh2rkvZvEMFAFyOtGd7iLyqMpoYAzLFPgPTzMifTERejwyIf8EcY/IL7zbYqm4fAXvDL8HMEbiyQhcXAokXaslk4IhQXL7h3+EEISxMllqO/4z8nf1QVqo/0xlMo1BlWhwTUDqJUhEJQ5o6GrYqUB+Dn5TOC0z9O/7rxB4Lgxh9fm1C9uPEnbPxRg9QoTFKHzBIePPVqTcjwRO/JwpDQsadx7BOVM+4Zr4GKmsV7gJYlTcfo+5gHoMOCl89AaRabH1fj5TBpFotXLFARCYFtisPv6A8KWP5x/Ke0MNJDziBBnPwpHTwDMkQbc6csY/kHV6d/SC1DG6tlPbEy/OT0rxt/3Pjr7B9oCeoFDVZ/eorCaA+mMCJi/Im6hjSkYbQ8zcdS4oVIQJGT3qdDFTSEWQdCvxw4SuOwADRRHKZINBLQPixuODhoPb1IPHp6zrTBLxwFIcE/6gmFmAPQvYr6ZQbKZ5zD7+jv+M/Jn9M/Tv+68ccMlv5YiRs3/jr74x+yv0IeUrIlDD+dWTIsahiTlmBCIWCPmts44TmkLEPl3BqSmsgHFukZkHA1KC6mIejbNgQhiF/XgNKnbZWGAdRHRaHlmkgatvTKajkO/2Wl/66du6RV63tUb7Vu3ULa3XcfKO/o7/jv8srf+bNn5Pj+3RR4qhLlP3MTI4mTXSWpMmTG+yleci8g/2dOnZLYgwdQQJwkTp5cUqXP4pWH3vuz+gdrjQ7v3CxHdm6Tw7t+1aqkyZJTUufII5nzF8czPuiBunB8V9eq3ofrv5Noz+Htm+TIjq1yOvaEpMycVdKijMyFS0vSpMnQlovXf1M71ZUTKC9L8bLSqM8Yoyf/AD89vgxO//6F/nfjjxFEcM+VpP8PHjkiu/fsk334O3PmjKRNm1YyZEwnefPmkqRJrjIOrIuwPw4eOCivvTkS0hEn5W+8TurXqWnai36HWIX0zxXW/kj999LLQ+VE7EnJli2zdOrQ7qLb/0/YX8Yg9QWLqsmE8KjAU+DWwgav9tOh2mFGzaE7bT+aWMKHdSgpqFvmQyXZPBpDrWktVbsMNVSUnykYZe5VzTr8lt6G6oak+DUDJW/+HP2379ghDRrdquW0aN5Uuj/1ZKhMvQv1t1FVoWcgC8HaTv6T+LUZwc4Ow2keLmf/z5k3T06ePCnp06eXalWreNhtGy8//n+6/f8U/n2/rpEpHWoZQifQ/1mKlZXSDVpLiVvukhgOPuA3n83wtHXlIpn1dCttQoGK9aR+73f/NP8z875NP8vSN3vJzp++itr/SVOklqLVG0u1Lv1QjySKj+a65f/Yg3tlxZiX5ZfZExPEX7BiHancoYeky5XPwDD7BfTfqKbl5OTh/ZI+d0FpM2oJ2v3f0X+7fv4aRv2v2tfFat4piUHz/1L7yYQh7rL3/0z//7Zlm3w461Ot0T2tmkjGjBm0bm+PGi8nTpyQsmVKSc1qlf/y+KOFBRvLxiMcPXpMZn78maxZt8FEBH4NeIzkyZ1D7rytoWTLkvkP8e/ff0BeHfo2hsc4ubpUSWnR9PYLyl+wShZfpP6x8q/pvmLC02W0f3r0HSjnzp6VFClTynNPPapU+Tvx+80McGhC+MM9pH4H2iL8CENHlhIZFDQEH3sK55ByGj0weW5T7ZVFqH3JCC9oBXFvrlaV2FTEA9YeA2VhNRUFxWCxuFH2iFEkDv/lpP+O7TukfqPG2lstmjWTp7s//p+if6XKVeQ4FGupUqVk4rhxjv/+Jvnb9+tamfzgLb6OUG0RIf/2JStzviJy55CP5KqUqY1K8FTDtpWL1SCl/ilEg7QXDFLl5JCKM94eDiWhENQ/W76aJx/1uMfkSgA/FyPxVOX7p34vydPDcwtoVU24HtuzXSY8cIucPXlcEdh4Plj9Z+4E9RshBSvVvSj9N5IG6aH9kiEPDdLFwMfSQniDeNh+tsmGYP3+qP0WVvNGtN808u/Xv7Nf6Cgbl3ysRsYDM9dKspSp/lPtt339T9E/iP/jz+fLl1+uUPr36fmUJE6cWA4dPCSDhgxXjmzcoI7cdNN1l5T/9h88rMbj+XN4YyNvA7utk+V7e73r9kZyzTVl/hD/Xs8gJZ9fXaqENG96B+5Mqb7oXCH8b9uK6qHx4fLXo+8AGKTnYJCmkB5PPcbmXLn2Fz8dag8G14rihwonGGxH2ivT7L29WnjrIeUzyUK1bEvU8+/YgYhhPhPAOIjTs+sRYY92YpqphznOyeS1cUH8KE8LDJVoynX4Lxf9Y2Nj5f0PPtTjEQoXLSIVyt+EDvnv0L+iGqQnpTTemieMp0FKxv3vtJ/yxdYaOf775G/fJnhIH4SHFCFNjrxSse1Tvh45deSg7N+0WlZ/NknTWb+iVRtLnWeH4c7TJLDAtny7RA1StqBgpfow+N75U/qHU+zj21XD9PpxLbUAyriuaUcYgQXk/Llz6qXbtXqlrJo6XE4dPiD3TV0lKeyyAODngDn9sdtl95qVWq/MBYvLjXc/KdmLl5MkyVNi6n+LHNy8Rn6YMVL2b/gJ9Rsp+WmQIi9ZzLQkOv3XzJkqvx87LMlSp5MSdZoB9r+jfz/r2wEG6Sfa9x1mrNUXkf9S+68k/UOvIo253DlySOcH71U+X/H1Spn16Wdg3Bh5/JGO6jXVzoIc/q/jP03Pwa+9KYcOHdYi06RJLXVrV5dC+fJL0quSyD7UZcfO3bJk2XI5cuS40CC9tlwZg/4C+E+fPi1Lv/hKzkHw8uTOLsWLFb2g/HkF+pcrhf+Wr/gWnumTkipVcqmIsdrobVvN/53+l3L8C3hIvSFGL9691jkYz4hgmm1U6Bprv2XPKNtyvZoH5tZVUbgBb8IQxQ86nP80g168e2bx4nlihvGQmq85sWxrAxAs9N5inpjT4VfCeHQwdCFlHf0N7/xV/qtUuaqcwJR9yZIlZeL4sR6bWb6zV8d/l1r+jIe0JoqNkaxYJ9nkdWOAGIqb3z1rv5dpDzcwxEfUAzPWSVJ4y1TZQEtsgYf0I0zZU60UqFxPGvYeocxwsfrnp1mjZMkbPVSmimJquNaTQ6L2/9nTp2T9wg+lSJXGYfj3bV4No7q24k8HT2bzYZ/KVZjej4cf9duC5QWpM2eXTAVK6Il1Tv+xj6Pr/9kvPKgeUnZMhxmrYZCmcfrfiMTfqv9P40uNvV8chH4SqValotSuWU3xjx0/Tdau3yDJkieT3k9307H7r+pfyj//2/F/O2bs3nxnjMalxLR0t4cflBQpknvtRkUAa+X/x1/WSOYM6SUnjOVLhV+LN0gsMlwDtwH8bvy9sP0RMEgNDe0vCUc6+gER7EAbR2ZQyxgABtb8qoeUt3R56gGjVLXKQn5R9JVzZzzBPG7x04y1HZxwNknIIudRpubCfcira8pPxGlDVpDB4Y9K/19+WS2/bdmCBd+7qNclU+bMKpjlypWVq666SkmXEP337Noj59hvJK5P/zjJkCEDlEwKdPcf03/fvn3yM+qwYeMGyZ8nn5S5urTkyJFTjh07KsePY/oSyLNny4qyEqN65hWDldqLfMePHBNJmlgK5s+HjyHEydat2+W777+TAwcOSKHCReSacqUlXdr02oaE+p84fvrpZ9mzd4/s27tfUqdOLQUKFpCCBfJLlixZgB78RRYCHwXx//bbFjmPKQ/Lf3fc2VR5rVChAvLywJe0psH2Z8uaVVKnxYAY4P/du3fLGbxxp0iRQrJkxRRuFP6nYo2LOydJEieV7Dlz+LLGRln+P3/urPz26xbFnyZNKixUz6r4f/zhO1mLtVOHDx+WrFmySukypaVIoUKaMZr8HTl8FP2wSTZu3Ij1sLFSpHAhKVq0qGTPnjVe+4P4bf+fOBGLftlLYvntz5+vAEGVPy6H/O/9bS2MuVu0/CxFy0mzN2iQhvBb+Z/SqZ6u8ST9mwydBeP1Wp+WWzll/0xLpX+BSpyyh0GKMmyI1v9Ms/Sf/fz9svmL2Ur/Zm9+IlmLXO233+LX4hLQfz/Nek8WD3tW8Vd6sLeUu6M9Sr94/Jb+xHXqyD45+/upePi5fjV5ugxh/OdpRtNMyrHHf6dPHJN9G3+SPeu+h2c1vWQvea1kyltUzmIDWeyhfQqfIn0meJpS+PzP6v4OWTpxAHoED2lzwBOVLCme9wm9wwd/Wyfp4THOWqScpMuZV+uXEH7K1d7138mRXVt1QxYRZsxbRNLlLSzpsueRRImTaB0s/W37j+2DPJ2ETkDp5O/FQ56QnT9/q7BNsFQjaarUYe1PDq9xqkzZNJ2dyfbHwqt+6vhRlfl0OfNrWmT/n8Ra39+x2YxL/FKjLZx+BkLtf4X18B/btVnOwhiLSZRIMuQurPr38NaNoMfXwrqmSJtBMuYrJjmvhoeK41gU+T/7e6wc3LpeDvy6Hnl2SMY8hSVT/mKgZSE4EfDxzitw/DsLffQ7Ttax+m/jpl9l8rQZanW0anqnFMifR/tnwOCh4KmzUqhgfqzFvE3bnzhJYow7yUD3v8b/lv7zFy+TBQsXaZ/UqFpZbqleJer4ZzofvwH+x0MY/oNYWkB+4gZHU76pXbpUqTCDkYwpGkH5s/gJb9tPHLHQp1t27ISe3iopUyaTghhjcubIrus4jx7jOAeZAX8m1TE3hP/wkaPIexLlJpJs0MNM2bN3n5CmRzH+5ciVQwoXzCepUZcL4T969LicOYelkxjjiYv1Y1nJsPGTeS/UfuLjLA7tgUyZMsi58+dl27Ydsgl1OI8G58mVXQoVyC9JuD6fhaL0yPaTRNT/u2Ez/Ap748ChI5IvTy4pkD+v4j+K8f7smXMqS+nSpdMyWBKDb5CGqm0S0GKkKkYvIvwSD95LNlP2WkXUSymiKV7dcdwQ7hBtPl/HmhscfnkWJQYTGgjqFSBzAJLQNhDeeFfD4026w88dvpb+a9euk5cGDJTvv/sB9AeF/G4J0f/ZZ7pL0yZ32e5QZR6kf9lrrrek16ulf+tWLeXxbl3D0tgjQfwU7lGjRsvQoW/Gw9+saVM1BocOG4Y8MTJu7Gi5+mpMpwT6v2WrNkJjOlWqlPLxrA+lXfuOsmnzJu1/sikD04YNfR1rg8rhKRw/DcqBg16W5cu+jIffNrhSpQry4osvSIb0FBCEAP7qNWrJwYMHTbz3a9tv8QcTBw3sL3Vq1fbpz7QWLVvLmtVrJWWalLJ8ydKo/F+jZh3Fkw+CO+uD6VH5/yB2iFcHHPE3athAnun+lDzYsYv8+NNPgSqY9rdu3Rx9003jVaxAq99haLw5bLiMHjMW8aH+Z3mk/7333C1dunSE7Y+NOBeQv0lTpsiAAYNUTVjEP3xnDIJI+jPd4v9f5H8fprIne1P2WYpdLc3fwMYJNMFjAVsNmdi+uhzcshHP5+XOVz6UHKVv9PFv+Q5T9k+11ApxbaYxSFmGab8BZFY8R2n/+480xnT7KoW/c/B0yVWmfDz8F2r/inGD5JtxQxT/Tfd0kxtaeWu6LhK/bSTr+1mfDrIJxnFkyIj1s63eXQQIX9D99gfpv+WbhTLr2TaaneWxUuwnep9vbPmYfNLzXnVCVGj3jFzftJNCWFzLR/WX76YM0/5v/tYcLFF4U9YvgCGigWUZRVP1of5SptHd8fDHnTstc19+VH79cr6cwfKHIH4C86Uzfc58Uq/3KMlcgCcWkKqhMGfgw7Jh/gdh/BdKDeH3OE/K3tpWqnTqGzb+LBv5oqyaMlyztRyxAIZwUQvu9/+8wd1k9edTFH/bSd/CqM2u8KxvcPyZ2L4GeG698GXggZlrZOmwXvLDzJGAVc43v6hWhgJFpeXbC+PJ/9r502XugEcMnNd+lg+7R/JcV1VqPfGapMyQxW9iJH4/watdUP8ySmsB/MH+tzRnOu+19011/fb/0fj7xbKv5BOsGQ0P8ekfwg9Ijy2LFMovbe+GLCL8VfzIKB9+NFu+/vY7Ladi+RukYT2uMw+Nf0wI4cfdBeyPZ3r1M8C+/GvlpBycJ03v5L4JExKi/8/Q8ROnTAdQ2EArGdKllbq1asik6ZAR4K9ycwU8VwOcITjLG/TKMKFRmihxjDzxaBd5861RcuzkiTDGTwT76R7o9cKgXZD/TK3M71sj3pOt2/iyGC7/qTFT9HT3RxNs/6lTv0vf/q9olQrkzSM1q98so8ZNVgM1WH56tOX+tq0kEzarkf7s7WD4/fTvMmrMZNm2fTuiTfss/W+9tR7WF6+UPZ4zo9/zz2pW2/8xXELq5fHLJAJTDJAxGYLBEIzXiMCPTVODlODsdPSJGbD5XhGJxovzMlIYCMNgy2IlqJisYOpbgVeOwjDdZNE8ZAF9dPh9+u/CW8oddzXVTTikMHuWXjWG3Xv28mVJO7stDJFHH31Y470ojbf0v/ra60Fr00vMQ0VJtmgOg7J79ycvSP8BAwfLhEmTtIe1UMUSvf/HjR0lZcpcza738dMgXb12reIvWaKYrIXQW/zB/k8Do3TenM8lRaoUfvuZ/uWXX8kDnTqH4c+YMSOOKDslJ4+fVDxsWdZsWeSdt4ZLPnhhg/gbNb5NtuFkgWjtD+K3/Ddo0EuYqoJSDPB/s5atZO2aNTCcU8nyL5Zo41QmPGITf7WaNHwPSN58+eSjGR/47Q/y/yGk16gBYxcVbFC/LrwO5+TzOXOj0r9S5Qry5htDfVwH4U3u/NAjsmbNWj+OfZkqdUo5CY+nkb84KVuunIwe8Q52KidOUP4mTZmqLznB9v8Eg5TNUeJdBvnft8nzkAJFVuymp4c0iJ/0X411lPMH4wXJw9/+gzVyVaq02jb2qXpIOWWPShaAQdqg57t+/1+M/pn7Umff8CrTqI3Q4GJgu23/X6j9q2dPkgWvPgHoGKyDzSP3jF6GjOz9P6//Zvdp7xukHhuxKvCoFZTWI5aE8Z/ymqaaH24A4jS3lX/iT5IiFYzDY2gLnxDwQ/mvfP+zck1zGKRW/pG0bGQ/+Q5GKOmfpUgZ2Yv1rprHy2fpz/S74LHMVuKaUDpgzpyKlbcaF4mHP0myZDgp4EAY/obPj0Jf4SUsgH/h60/LL5+MC+v/hPCzIWVuvVeqdu7L2nkhBm14Ub6b/Ka2s+U7MEjzwyBF8GmJAucNfEzWzZ2m8nbvhFVYQmE8VwpD+vAGYQIM0kOeQVqx/TPw2D4Thf6m5C5zzECt/AYP1LyXH5P182BcK2bTU1zGceYUDHVv/EuOI82aDPlE0mbPpbSJxM/ni+E/raz+RNe/TDK1xA3b9wfj71IYpJ/CIPXzsAB2RFT5D4OCUVVA7mvTQuH/Cv9z/CH9ly5bIZ/OWaBok8OL2fMZvIRHxc/K2RC9/c/0ehFtCed/6t/SpbGpqckdSDF2jLYk0P98XrnqB/lgJmZtAu2nt/M8aGh6NdT+KpUrwmlRLYz/Xxr8uhw5elQxpMcM25FjkEVLf5Rv6gV7CF74Hk93leTweFr+Y8m2/98aOUa2btkRj/9SpUyOXfbWeRS//SdxNFTfl15RPClAx9M4MouboXT8CeAHgOTMmV0e6nhfPPzM88rQt+TI4WPx8BOjIQ4uCHzq3/uZsP73PaQKEZHBZCF1GcILSygq9vfTSOLbCchHbXcenQtKMTelWslAKtJTigtLN2uj8KDUJYwhlgIQQoFYgkljPJ/0h2leMPnAiQ6/Uoj0f+ftUXjTGq6kotfu6ace12l20v80+uqnn3+WyTAuCmPK9oH294N20el/FGe72bQdO3dKsxYY1NEJeuwTDFKGaPTfvPFXuaNJU8XP/n++13NSv15dSXJVUvn662+la7fHdcG17eNxY9/DsSBXa/1tBzdvRe/iGh8/zz69v11bnaJfj+n/rt2ekO2YVuCL07PPdZcmd96l+S3/rfhqBQzSLtIM9bitcUM1OFOlxtQF6r8HRvkrr74mn82Zg+c4adCggfR/AZ4UJuofpu/jzuuGFdv+KtWqw8A/KSWKF5fx494DnAm2/YkSwbsI+lr85P9mLdCGNeswZZFCli1dHJX/jSf2kOSHQTpzBt+yWYdw/udu1eowXJlik2lcP/7Yo1ISm6xSY0H/DkwXTZn2vhw9fAhe46G+/PXu/YLMmDED7YmTYlig37tnDylZAt4nTENu2LBBevTspXVkO55++klp1hQe8wj8TCNiekj798daMSt/qNCP369EyuWTv/2baZDS8xyHjUKZ5Zq7HiAVUJ047C7fJ3tWr5Kda79FlYzqq919iBSrfqfffvLftpWLZEZ3TNmjfwpil32DXu/+Kf3z44dYQzq8p4dXpDS8f6UbtoYXD+s80dF/1P79G3+USR2xSQn4ASy5y1WS61s+LDnL3ATPCKaDtfYXp//OwHvCJRzaByhrQrtqcuLwXkwZF5JWOPYpyH+GXwxlzp05LaNb34gp+f3aDrahwn1PSTIY7kd2bpFPe7WTA1vWkbBaHxpY1zbp6NeN8TRIV3nGHAthO2o8OhDT93l0p/+C156S31ZQpmKkaI1bpfYzw/Te6v8zp2Pl7UZFpUD5WvCg3osXjDKSHNPabMxZGKvc1PUlvLB8TgFjrO3Eb0CfpEod4qdMxp2l1UHsIp/37ySbl84G952X9tN/UU9lsP1q9MdALpGXThY+Lx+BNkyBUY38Ld+dL5ny0SAljUL0n/9yN1kzdypQxknbSTBI1UMaf/yhh/TQlg2K3/Jfxfu6S55rq6gReWzfLvnty3ny9diXpfPn23z5Xwcv75wBD6OvsCIpeSqp2W0wTn8Af+DYqtjD++SLt/vKugV4OQX+wlUaSb3n3kYd4+NHpFfvyyd/ljZB/PTo7cGSKoYzmLqfOI16yxhw12EnO8f/2XPmYXnPAZ2eb4npevWBgf5ZoLfoZftfx/8tWL719giu5Ue/YelYtqzZpPYtVaVokQKSmH3+J+yPE5hut/3P5WBvjRjH5kiZUsWlhRqkZLj49D+LDY19+70iZ87S/omRUiWLy22N6kgqvOTt3b9PRoyeqGOG5b8qWF9b95bqLNpv/4CXaZBys6Thv3JXl5J6dW4RLs3atm27jB43RX4/xfLjpDaM2aqVKmrdEKHB5DuvSyjOQC+wFMrfwFffwHmsZ7F8ICV22T/q8z+Tg/i5XKDvS6/5+ImnYb3acv11ZXV6/YcfV8v0Dz8GLtP+Lg/cp4aph17zLf5imXw2dxGLlsTo43tawZtbOD/oclaWLF0hCxctNfjJ8Aj9n3/Gbz95XA3SoBeUyEwwGfTRe42OSDFJ3q/JE34wvjaWTaYCIBwrwf+49d8zmOy/BeCBAxovmg8kRl5+1YlzrR4baDEsDrTG2h7GMgO7g8JIpsSF6PSC3/8w/k5dHpEvwCQkyGezP5YcXJv4P9J/B88hbXir0rlVsyby1FNPKd2j0b9Hrz4yc+Ysxd+166Nyzz1twvAvXLxYHnmkK8YHig+n7EeaKXv2HjqS/d+sdSsYpOuRHid169SWgQMwrRLo/6WYiu/cBUodkY0bN5Y+fXppuu1/Y0xj3Q7XqyAysv2nYk/JrbfdoYcpk/++/moZ1ttgUbyHP5L/Kt1cRU7As1qydEmZPG4MsBLThfmvOTyka7B0gt7IL5cu8fIYJrX8X61mbfWQ6pT9jA+j4ufSgRq31Pbbz6mV90aPwktGRtQgnP9PYJ1fqtRpABsnv6z+RVriYwasap5cuWTKlMmSCseA8Nni5+BSDwY5N2zRk7tg7lxJAY9VZPspxpMnT5V+WAYSkj8YpN99o3S4XPLHDUGcslddFuh/Q382xeiCpDjqiVP1WQqWMHQOyP/WVVhD2t14SHXKHueQ2vabci6sf7hZaVKHGnJ051blf9t+Gsj5rq8CA6Qqdu/XMQaRcj0JjMqiJlb/zcPU7Fp4xDSegyX0XzJswslVtiL+ykvhag3hicuJhD+n/0Y1vVq9i+ohHQmDNAH8az6HFxmGFvHnL19TGjw/Wr0utv0nDu2V0c2vU/yEqdjhaRikXZS6KFKbQWNuJTykbH9ynCJw74RvJEnSJExVusTCyzmqSVmlf4p0maTdVEypBvT/eXgGj8NISwOPX0L0n9P/IVk/H3IA/X/7gPclZ7kKRB+1/z+Dt3fTko8UX2iXPZqgDB5Ofyv/yzllTy8v6N/qXXpIi6P08P5fMOgxWT1vCgpKJPfqlH22qPiNQbrO4APhmw2bLVkLl4mH/zTWvbKvWa8zJ4/K2LY3y8mD+1T/NXtrrvDUBe04rTf6H3Sa8WxLvEh9gTxx8DbPkhxY54vbMP5jpkj5T6j/bfu1ELLnJRp/N2A9Oo0mVr0dpuILF8yv7ez9wiA5jWlcGmmtWuAFkXUnEBtxifCPHjsJay03m3K9ohPDk5gDazeLFCog119zNQ7HxwsP0i4W/759OBj/9bdU/5XBBtbmPIcUIZr+Wb7iG/lk9hzFnwvrLDt3uM9rIRsYh939R2TAq3gp8/DfDA+pTtkz2aP/S1hnSw8pYQoWyC/339Naxz+rf3/EsrVJUz9U/EXhQLqnTbOA/k24/3v2GaBrwlNiBvG57o8l2P6TGAf7vjRY8fOnzi01pFolLEkK2F/T4QFehaV/7LoG9WpJ5fKYOdWWgvvOn5U+/V+FZxVGM9LbY1q/QP782n6NAOGmfjBLfvjhZ5MHdOnXFwZpgP+MhxSZtZYo2L9FlOLh9SIC8zGcwluSSgpLgrI1BXpXAiBYWJPMHiEs/qCA2TgaIYqcnMMAEC4CZ04vReEMZdkRVCMGlvcOv6EV6f/ww11lMQwgkufVwYMw3Vvdo5TtHsD+Sfqbc0hvY6eInkP61JMJ0r9iJRhvMHCIdPGi+ZIeRqHpKYP/LBZQ31KrrhzEAMZ+G0sPaenS6ETUy+v/5lh/uRbeRRYyduxoeFA9Rc905OFmoetuMoPVTTfeIO++9ZbC/hn+69G7l8yahSlg4P1k5geSJ09eH7+piqEp627OIY2VUpjG0XNIEfdH/NdcPaRrda3rMp2yj0//6jXqyAF4QPPDyJxFg9RrfxD/ARqkMFxVCSD9tVdekRrVqv4h/pdeGiiTYEQyDAYf1KxR3SNPeP+/O3K0vDEUihNhwvgxmKoq5XVFqP28m/XRp9IfG7pIfz6z/VyKwPvLJX++QQpcmLgy9AngJ2qLP33uAlK/7yjJyA0mjPSYjlP2M3XKPk4K6bFPZpf9n9E/x3Zvg0eui+xeuzKs/UH85e64X8q3exIzAcbot/gJc/rUSRyq31PWfDYZT6hcFPmj57DKQy9Imqy5FORi9B/PIT3Fg/FzFZLWOIc0If43O9I/AuYYafTieBjS1QBrZMnq38/7dZYNi2eyulLhfq4h7Yy7kP5dNrI/jDnj9azU/lkp1+RBhbX0J+z73XC81c94SUFkp09/8zcoeV0Rlf8sfmZaM3cKDOeuyk61ur0qJWo3UTISh+V/y3+fvvCA7rJnWocP12GXfaoE22/xr4CXdyXXkIL+LUbMg4e0uJYbHH+IfzU8pInAZ75BGgX/eF23vJ5NlXK3d5DKD/b8Q/y/Lv1EPu0LugF/2Tvays0dOTODXiE/sCRP/nno/wdd70RanFTChxKuxcxAZPv/SP8ggx/sLSTIlBOF/4L4TVUM1b2aRcX/yWfzZPmXX6PQGOnT4wnwfhI5eOCQvPw6aSzwGNaTG6+/xq/KpcQfC4N3CjZTrVuPtePAT4TcL6EkNI+SG5uCmt91mzFMAfFH+Pcd2K9nm5JwV8P50KLJbVp3Uxx+Wbinf94aNRYbhrdp/9OTSo9qpPyNeG+CbOaGVJRXBcup6tfiWIxyPPoPePkNOUwPKZ7vv7c1NkNhDGJQVBjnYOj1hHFP/Ny4+shDmNH08F+o/3u+MBCbiOghTYEp+8cUP4uNbH/syVPShx5S4OeygJ7PdpOrkib18ZOm/OjAuIlYwoJaVK50o9SvjaVpKIv4t2Nmbvg772md0qdLI08+3oVZNL9ecbtz124ZirWxTKD+0TWkAf6LMaeQIt0PtgRG8J6BRAu7aCx/THQoMRY7DRlYSY8vtN/OQ+FRqLVEj0vYcO8QD2QgDqR6nayFRMMPOOOVCEGYUkN1ZIrDb+jPjUQjR4zCDs04HHeRSR54oL1UrHiTGlx/lf47MX1Qv9Gt2gHNmzXFQuknDMU9NrD05xqYm6tU1y4tAeNt8nis+dJEA2jxP/XU0/L53Hna/1xDejWm7E1QaGneso1uCGKnfvHFYuxQxC7DAAT7vyKPYoLX0ngXP4ja/7FYJ7lk6RdYbL1Np+qPYkf6WbydkVfWrl+Paf/tyn/T4D0sWqQIYi2WEG9xeqlypZt1+qWUnkPKqSLTHnth1SL5r2mrVrIORjXfUpcvW6wQtv2EJf/rlP2hA5Ivbz4YpPCgRcF/4NAhGJNmyp4bub7A9D9mRliAAdf7+Pg7dOokX634WkusUP5GKGV4VCFvtv3EHwdvzPad2+WXn7k8Ik569nhW7ryDXoFQ2Wz/PyV/+/Glpkkdayt+fpGp6VC+QKB2mL6NPXoIZ4BukR9xLJPdXJMEntJ7x62QFNg9bvUPj33iLnu2iVOjdXuN0L76s/rn/Plzsv375VizOgVTsXOx9vJEGP2BQDIXKiF3DP5QkmE9oMWvHOXpP543+sucabJp8Udy/MBu5Eeqr//i1Mt6x+D3JQs8baahuFyA/iOblMPO8cCXmsgLXpFB/FM618XO+p+1/9vPWG+MN5QbxP/zx+Nk0evd2QypiDWk1zbpZNjAw69T9pzuRvmN+42VfDfU8OvIPET9aT9sPlz0kca3nYrp7gxZtRnaRkCQ/3QX78ol2F2+QU7s2ynHD+6WOLykMpzYv0s3kLG0ql1elDKN70mw/Z/xYPzFmE4EYnpIk6Hv/2j8+XLEi/ItDFLWtQU8pDpl79OfNYhTg3gN+ogVbzt5JT7tmj0q/09sXxOnC6xX/C3enqcbsf4I/6pJQ2XZqAGKPy02cGUvfo3iBDvrVX/xcO7337H5a66WXaTm7VL3qaGGjh7UxeifYP8H6X8px98hb7yr0/c5sEP84Y73K/2//uY7mTELp1KArk880smcP+rxf6T+C/If224Yilfypne5AP8TZseuXUJv5S9r1vueOsYTPw0gGlod2rWWvHlyK/9dqP379luDFGuQcTA+v9SUkPwNGPwGvKDHtKq9sIY1OWeWyFjAzeaS/kuWfCmfz1ukkVVurij1bqkWZv/olD12oDNjD3gy9egqQAfb/yy8nYLlATzk3hqXf9T/PfsM1F33qTFl/ywPxk+A/jplP+AVxZ8ubWp5qttDij2If8fuPfLm8JHaHVeXKSnNYOBb/D/+hBms983GRr543Na4Xlj7rf33XJ/+uq6W/f8CNjWRTFb/Ig4jsi0SdybVq4d3SSA6HMh7Ch6Mzygio3wpUl5RmJoAvNEOM6XrL6MQx3smsqFkACo9TtgTnvc2aHb98YqyCYErk//L+A/gUOCGt92OTSvwUiJY+mfEkQ5ly5aRqlWqqLcsDb73q11CGhvIBOnP44kiPx3qdYPmtD8bNmyUJk2bK/1r1qiuHlqL3yADJDp00MuvyrgJEzVq3DjssocHNNj/XK+6DhuCyBzfr/rWFk928IWeXsMD+PawNUgtEGF4sPGYMePk3REjdBOTz38KxNZ6IkUWQ4ZpUydLERikCfEfD8bnQcM0SCdOGKsEi9Z+Fs948p/ussdmIiqFZV8sRQKRIUEZ2uDnZqVDhw5iUxN22cNDGg0/21gdbWX4M/hJH073h9FfS4nffsawco881Enua3ffFSN/apA+UEtrp5uaaJB6hA/S/7MXaZzAEEIof3c3ua41pqn0SWTbt4tlxtOYCgMhCuIc0vo930FKeP/b9kejAogEmwAAQABJREFUfzT9Q0P+8NZNsm3VF7J2wfuyd90PHjaR65t3lpvue9rHH0b/QP8fg/G184cV2KT0qWxeNlvrRMbKigPzuSkoMRkT/6Ph91SjjAgYpK2xhpSBKCL13/BbS2Cdphk8u3A9Y5T2b172uXz6fDskxYjZZd8xDP9yriGFQUoEzYZ9hunp0p7eIFYT6F1ci01mxH/fpJV67FKw/b/hi1dfvP28HN7+q+ZlmlZYs7PmiAB+Limr9lA/ubrx3Qm2/3NM2W+wBumHOBifxz4hRGu/lf/lo+AhnWxO92j+znzJjGOZSOZg/4d22cfJfZNXScqM2bRcW7blv0lYQ3rAM0gfgEHMZSMWJpL+Fv88LAfg+lQz0qGuF2g/eZFr5HNfU0VufWmiX7bF71FL44M/F2q/Eiegf4g/sv0XO/7ym/G9+g5SglfBNG/d2nhBQZg4ebr8hBdxbpLpifNHg/1/KfFHaz8Pyl+/YZOs+vFnPbqI9SF+HjX0RNdO3jpuQ3T9jWi/GqRvvKP8V7Y01pA2vSNB/uvx/EuwE9HTqEg/rIu0IUj/Vd//JNM/MMtKqtxMGlX3BNron4H45jydOAz0HEbTPz1gXPL4LHo7+dWli+n/57xPh2qeJ+khRa20s4Eo0P+nsH6274BXFT8N9o73Q95U/kL21x4cl/gaaMJwNWiiX68i3fC8cMlymTN/kQrQLTWrCI/gCrafeYj2xYGvy3HvK3X9nn+asSpzWiUIO/vCSCFzRwsE8TiVBEgIjFn9XfamVIPIqxYbR6SRgeVpLRLxJjzVpEXDrykBYDyzcOYPJJlHRsCp/B/Fv2P7ThmMqd35ixZFpX8meMu4G7t4yWIXRX9O2TdohCl7ELsFPKTcZa9Ej6D/9z/8KHffy7U0MdKwQV154cW+UfG/8sprMmbseC1i3Bjv2CeUyMCeo0Gq6y9pzC3zpoWDnQwYHoXEHer5aMxhyt3yEfv/3XdHybBhwzCFY/iP3s8yOKczc6bMuu6NOBYuWox1lqs138RJ46RUiRKINfhVRAL8zyl7nsNZCm/NPBjfBJQS0X7GW/5r3qKlrF6HTU1oA6e2g4H4yf/VsTb0IAzOvPnzml32iDdpSPTwH4DBSuOSKbVr1ZRBnDbXkDB+vnNew1MSvPZ3fLCDl8fPGSZ/ps6CI7SukfJYAhHZftbJq5kpwD5foP2XQv7240tNkzpiDSnwZS1WDh5SLrC3IdT+Peu+k2kPNdKEbCWuxe5kGqdG/mmQ8lv2DAX1HNJ3PRoj4hLoHxqnX094Tb4ZC08DAmlJo0+77yL1z7ZVS2Vm9xaal1VqgtMEshYtq4WF9C+pwNJtiJGRzcrqRiW7hpQppi8Ja9pP78qwuvk0E9e9tpv6fdT2/7pirnzcs62SpEI7rCFt1jkM/3JO2ePYJwY15rj+MqL/dbobBinln5uSUmbJ7sv/jh+Wy4dPNNX8rF3ydJkl7w1V9UMAifHFKsbthwd5s34OFDv9Oz6PqXDjdWNaJP+phxRrSBk64NOh3KXOENl+VtEGa1SzvOZvY1NTwfj6bwGn7HHsEzuw7UR6SLGGVAvgb6gw9ZBiI5ge+zQLp1h4SRfCPxOb67atMvqsRO3mkjp7TkNjlGxLV5YMjL+ps+WUknWaByC0MuY5gv5MuRD+QM4w+bfxvGo9Avgt/x3DbNTwd0bp+j8CnTsXh1mj45o1KXZ/p4SHkOEwvi/P/gegpE1vnB5JMQ3cFYfX22Bw4OkSyJ/X4Hj05ykt42Ac2/5/oF0bzETl0SokhJ9fmxrCb9mj/WXgDWxx1/+1dy2AX07n//wKhW6u5daFDXNpwmqjkltKDXMvjMxtjN2YzZAVJXOb+2Uol0gjuU1MM1LIpWQstlSmkvKPRUn1+38+z3Oe9z3v91L5rdK259Tvfc/lOed5z3Oe85zney7P4Qyp0iRvIfQspJ9/EeVwLexzrhX6XYjxsEL7T8AM4v1/GCk4uWTfDUv2dIZ/0JVQSDHLWlO/Xrikr65OaBoKi/L/Aiy/8156HlCye+mlEJZSpf35Q2ExlvvXbYRDTVBIS53hX4DDhP2xB5RF0WboyX3wwx3Aqfz/ALPGvxOFFLPGVNKP+F4sDofXnnoaN1u9IPl74DDWnt9pX5H/BuLw1r9ojxXVGtAP1igEBx5o/wpL9rF8YUL6CV7ulNHL40UhjY0hjAgiUSMXbR/gglwIBx/gtIElVhKNYZQILF/xRwgJsyz71ZnHEzY6xy+EKKX//2Fj9RuvTwoTYbPymWeeDW/j5gyjf6tWW4URDw4Pa9WrL3mXRf/3YV+sO5bsSXs5ZY89pAUX6T9zxszQrScVg5qw5x7fhv3Layu2f//+A/DLEUokCqRCKntEE/7TPaSw4cnlbswuVmp/zhpSmZMZ0hEoS7DWhPlYSt1jz70kDz/r+muuDh0776mMl/Bf39/8JjzEw1eIu3foXWEHnKCXj9WHPLVaqEvHTuFfmCHl1aH3QiHVeEGpjxiR0r8XDjW9iRlSLrPLkj0JDzijPwN7xMNSolSPeKAifjnUhLqS/3v2OBAWAfqtEP4DunUXM1/8wPEvPY+9QRgwSvCzkmty/zM7pOS7jWn2CTOk9JfSn4dEbj+qHVJqYLtxI1zfORE+yiHMkHIPKZfsQXiesu+OQ03STkxdSfVf+Mm88PvDdhL8JOgJUMYab4ybYTQGqOGr0P4p/vtO57L6JMlxAE6ob9sFhwgR4kdW4n+mZEv2W8DsE0/ZxwJL5e8dvXcP8+fMwjfUhtNHTccy5lrIXaz/33D6+6lBZwq+PbCHdLfMDqniH0OzT5whheuF2UUacM+cfmgYjYNTb2IfKL/5RBwIWg+G6aW9UP8RZx8Z3seWB04SyCz20WeGejgUlfLfZNrmvAx2E+E6nXYR9lliz5zUqlz+81BTtmTPGVLMUFarv9HfDmYRrtct2EPaBjOk8dtN/j1xyeky287vPkFmeaFUg1al4w8PNXHJnjOjnCGlWx7+P1/1i/DGH7EyhH8HDbw7tNwdcqoEP0vRsqSFYqnl+AXIHrGM5eFnk6fyh6hWFP8crLZc8bubDKO+iVca2KLzAgvRQKx7B+uOv5T+hlHeVeqvh4Y4A1mL/awHhva7tVtm/T+cOxd7SG02kGafqHyRquX0v+iSy8VqDet/cd9fySG1UvqPewnXpz42SvDT7BNP2af0N4WU2wouvvDc2PSkXE7WC+NsZ0OYcLrg3J8VyS2QeJTU/4KYx+6yN/4nXIo/U0hRRBvoAyefeGzEnOOf/aEqpKR/W2zD6w2aRHThhRd5PSzqhwjOknfvui8ylut/fQfgkJucNcJsqSikkTvwypbsUb5WROsvwfIoogZAfGXvDFpnSLkcRptxBOOPHmOerFqkgv70kw8WqrAMK5d+4GE5uqFAIvCgaMXivSkrBXiDQU7Hv0L0Hzd2XDjtDM58aKMPH3Yvbuvh3km66vSnCYoeB2EPKejfqxdmSEsUUqM/bZK1b/8daf+tttwiPPYIFD5mKmn/k085HSagxkvSnXepQpri53I3lTmaTBo3BqdNK7S/KKQQklTmHhn5QFb/cWPHoo5nkWvDccceA0Px+IVYgp/h4/v8QC8OACAV0h2/sUNV/vsO9pDyoNaOO8Qle5IrcVZ/sqfx//e/3wfG699ATG2Y8ApME8H4MT4S1VR6LFy4MHT4dkf5tNa2ZF+B///vo3mhC/aQskI9DjwwDLikX4JZvZXwn3nWT8Jzzz0v+B8d+VDYCgInxS85+cEklLjq7U/6L4AN17kfzk3gYfoHbUxXCb8Wy6fWty79n4ea7j/tAGn/TWC8/ahrHivgF+R4fP7J3HDr4TzhrfQ/HXYfDf/0V57BKXsIWjTM1thDeuBFGHAi/0uGFay/FFigl2HX+o845+jw3oTnpZqHQXFuAQVaP3bF6j9+6LXhpSGDRP51ktlBLJ/jA5cl/3ioaQEONW2AW5KOuQ3mVWL9S+WvKIOTxkn7nzD0RcxKarul9R9/73XhpcGXCn5TSFP8utx9A9q6XCG19v8TZhcnF5bsW0gdFn36abjlUPzgAx9tvA2W/W7E/nG6Aj1rwvi7rwgvxJnmjlBI2x36g6r1F4UUs6l0NEy/9ro8yZ73P2t/QRL7/4uDcUnBUMwIIXwEZtub4/avyCjIqfx//1l6EQLLpWH8xhvhh0UF+SMKabRDetrDbwFm+ePfa8NvCs/fiv4LWF5Bux2uoi3Fv6aOf59hNu1PozE5EPvLi+Nfxb7ApXITT9udcTgMdZoydVqY/QFu/gHtOmBPYX1ctkH1ZB2Y7+rWbR/UGy0U5R/pW9r+5KOVWf/Hnng6PA+b1KT3PvvgRqcunZaJf87cOeGKa26WJtkZyhcPNVXrf1dhJvVDzKjSnfOT08TqSSn/PT5qdBgzFjOIwN+5M2ZI9+tSwD8IS/bzsGRP6wBUaivVv2//y3G46QtMzmAPKWc7M3klqOVh/c/w50v2cVYV+CvJX94w1Q9L9iyyDWxxn3LiMWX0p+UB1pVAYgoL2xjMcXvE4LtxiQTajRM6vY8+TNCk8oc3wF3Y77cZ/gH9sGTP76EjO2SHmvj1jLc3Aao4BakMyBlS+UVORqOTVylsHhZYAjEKg0SivcbPgWCQYgigTnPjid6gV7DFtPj9jl+FqVBLSKMUM/qljXz1764Pdwy+Q6Kuu+7q0GnPjsoHAFZyltP/PSzZ9/zuQUL/3kceFc6VQ01ZhkL7H3TwoWHatGmSeM9dg3FqmzNH+ffQPt3+XQ/I2v8ufIvc1JQVh9mLdHYRy92aG8+k/VOFdCT3X0b+e+KJJ/F9YHrU5jyxrcllwhw/eYUzvjRjZfx3L5bsd8CSfbX679/tQAjaD3C9W/Pw1B+xYV/Kyz4YoXL6n/OLX4UneXAL7pnRT4rAot/4/7VXJ4QTTsIMEHqv7YOthJ+n7FlXDnc9cFPTwP48mcv6wGkGLbOk/1119bVh8JA7BeyXvzgbPySOFr/hlyK+RP8bRjukuKmpBnYG5Rc3Sps44WUhbaX668cJSjyK9Jehm1HLwW8zpCylOW5qOvK6xyv2fyqCI889imBiH5Q3CRn+6Vyyj4eauGTfXQ41AfkK4JcC8dCvxzPhP0lL6H/vKbwt6m0BPm7wc7hCs41lz0pgRDX6j7npojDxwd+DHTB71n9waNUBsw3RVcNvCmnTLbcOx93xrEITOKE3Q89ef354feRgesMeJ1+IA0vYwkG4hP5UsGjonfg7Yoa03ZE/FHg+CDpOTCbhQBAGk6Mwu7gxZ0iT+rP/ccmeJqaYgzY87erO+XNmhMG927OosE0n2Na84MYy/LSvyn2ZH2F/KaYggl6zyhlSBRWeSeg/+spzwptP3Cvpx+EgW9MWW4pfPlYe/DhzSsFJj9yJg1vYq4dvPbDvbdhTDDmUj55h8YL5gfttiZ85OEPaCLO8mhvPBH+qkJ4ycnImfwQ45jDsVgPuoX3k/D4C22r3vcN3B95VwK/kLJe/lfBL2SX0lzgCV8GvKSwfQIRL2p9pK4qfN/NwhpCO99fvv+/eUqc777kf1xn/PTRsuA72j54t6frQGtBfjf+ZtqL4V0T+sbRhuCVp4sQ34YUpQRzG+ebOOy4T/xwomFdghpTtT8P4tjytX49n0v73Dh8Bm95v8bNxLmNPmEzaS/xCV3ngRPllV+OK7M8Ev8yQxlP2Rv9BV2HJHgbl62HJ/mIs2VeqP2c7uYdUjNz/EjOk6H/Lq/+F/Wn2aQmW+c0wfmX6L8DVtf0H4AcaEHPJ/hQs2Wv7sJ2YB3a7MUPKPaTEym0MvQ/HvtqYNm/ex7B5iq1xgKuPOlwI4/3rrL0OQjm+V1+bFP7wECemWDvMkMa9sgIC/sMMKX+mpM4yW7SSRbTY6I1lJWiYX/OpYXwyeUKorHiN46lgOUkogyYCVi7gFCKJYCLhMPApHN44sSZRAh/TpRrwx+9w/EpJXhvKu3T1rvpy+v/057/APcB/FrINgT3LdrtEk0pCRzZcpG9Cf57E7gkFjrK7N/eQQtGTX7vaQJLH6H8/DLRfMuBSFhS+8+0O4eqrr5QN7mx/LnwMGHgZ9tX8QZsNMPkp+5z/xIbnm2rDc+xzz1VsfzMqz60HeiBI68orNY/D7CQdbZheeukAOZVu/MeN6L/69flh1KinBIa5hg69WwzGS0SF+v/g1FPCK+Nfkfo//sjIsCXu6a1Wfy0jhMuvuDLcdfdQoepFOL1+6Pew/BP5n0a+z4It1udgAYD4eVPTw2IYn7mL9Oe2hL1xwQGzdpcl+/5aznL4/7333gs9D9LllcbYS/TA/cNDi802jeXjFclN/B/hMAD303ak4eUS/CIH0P+GwYTUJZdehtT4fcA/8bVXYkGMVfojInEaV9f+z0NN953aVdq/OfZUHi5L9jl+fitPZtOskyiDwLxDt15hn5/hF7m4mjANM6SPnneMyJ+tO8arQ1FEWn8K4SyC/kT+vDb8lvCv2e+J6Z31m+OkrqUn9J8M25lPDTpLMNo+TQkAlnebvzL0GhjD/ynujW+HaJafoxP64w70e07qolmQeNyQMVCwWkc4AFeRf7cd2U6MqTeDYfzjbucMqfWhWBTKYtxHtFZwCmfZecHAJtij+khosqntp6sNbz/zcBg1AKfqxdXglD3tkJ5RwD8OdkhfxpI969/rVppM2hbQVhFtfzu0w2L6xOVu+SbYK7z+gNaCn/ZWjx3yHPZyNyRY/MKaMOnhO8JfrjtfYtgWHU/FHtLDoJByNqVC/cfffVV4YcgVkn9/nELfHrON1epv/PfuC0+Ex/qiTBS57d6HhK6/vC7DT5yvDr8xjL11AL4BdARenrJff0PM8lbAP/SkvXGZwDvYu7o+ZmihkMaSWKfcFfl/6ZJFYegp+4V5708RFD37DcFFAfsAm9GROeFHOy2BQfSp40eHNh1gZWKd+sqSkqrpy5M/+g1F/FKIlI/UpP9Xwr+s8fdvuFTjTsyM8VtPxqxaG8gv1r/vJbQ/ugh7DU2ZWzX4//7uu+EJ3BbV/YB9wzZtWkWqKC6tdwgzcTr82ng6nO3/49NPCZtuupHAkgSV6s8ZT12yh/KF7Vk8ZV+N/3jQ94ZbhkhBa621djjr9JNwRmFDQy9Xmz6EK05JZuLvtAdmSLt2QQiBiJ8zpLznvaZefSikWLIXx3TkiuMvT8wvRv9Zf911w3k41EQ6S3oif1hgyn9c5reDUDxlb/xf2v6cIb0Yp+zZ/m1aY8keCql8XIJ/Ng813QCFFJ9Es4e9YeIqxX+LmL/6p3x5h913DQd/t5tWA09eTXr19TfL/lEbf2XrRqw/AePVoSQTY6u7yhAWa28gpdknBCk3eJiCJwPJGkvl1wTLZwJEBcNESRh08FoaDWNGxjEz/RrAOw9JQB6SGb4ENuJy/EpC0v/Io3qHGVAgj4ABe85+toR9TSqnPHD052eewb7Rh4T+62Hv03N/GS3XRZbSn3fBL8CSMilNxztqzz7nl/AtDQd07RpO7HM8/EiN9N90k03CBuiMxP85TJbsu9/+uJN3gfAtTTodcshB2EvZCIrw6DAKM5hp+8sp+53aory8/bmHVJfs0wNBxfbXQ02w4YmO9DD2kBr/fYaldR5CMv474vDDcRhov7Dd9tuFadOn4jDXTeGFl14o8N/Qe+7Gkv32Wif5jvxrEBl+d8214fY77oRvKbYItAp9Tvh+2HyzzcPa+DVIXt9hh2/A1E/DAv/zBoszz+R+uBoxSH/eeRjkd/1mmIMZ4sF3DglPP/0XpCn/t4TZp0dEIWUdSYccv91lz3J64KDYANwqlaUuh/9vuP6mcMuttwG8NqyHm6p+fNYZMBi9GxTTTcKcOfPC9OnTsAw3GhcZPIp6RVuoJfjlY/C4b9jwMPBS/tCwb6zBDOkrUn9mMfqvzP4/N7nLnng7nPBzxQ/pthC3Un3ywT/1diDEEv9aDdbHcvATYYMtWmftPx0mhniYhLzadPOW4WsdexT4T6tjdUJBcDt27x2abN5aknh7EE9mE/8OBxwZNtvpW1gi3yas1bBRWPjxR+Gd0SNwCOa+rP4dcMq/w3E/zfGP5x7WYwR/y906h61hb3SDllvjUM+mOPk+H8v8Y2Ab82bMznGvW01o3WGf0LPfYJRHOZq7T+fOxo1IHwgMaivvYWd0Rx+rxRL8ZrDBekeB/9Zu1BRKbUuFB8yjvzkJ5qpGifxdb8ONQjsonE1heoi2VV+5DzOfsUyWzSX7dthDmuLXQ03XSXmy/1IONamsZ1bSn9du/g3XbrKs46HMNaIyx1KA/4GzDw8z38DyKWREy907hR26H4vbnvYIn370Aeyz3h8mPHiLwsp3wPbvaVyyh/KYOX4NfxLzXYt2Hx0e7XuC1J8Hi3Y/5iwxdE97pMTfGO2X4ic9F378Ybjt8F2y9m+PduKtUosXLQ7/eO5RbBm4WsrGQ77CLAUwrHhz/HKoCaar1sFtS6fiUNWK8v97Lz+LGfujM/mzy2Enh693OSQ03awlrg79DDdnTQ08APbag7fJjO2JoKOe9C/WX75HeITEx38kr67x9xHsGxyH/YP8hosvOhcWIeqF2dh/eSX2mLL/H3bwgWHX3UBnsmls/5U5/r+BW/yGDhshZW/WfGPs7f9GaAHTU41gHvBz6COTJ78dxmICoRYHr4h/882ahzNOw/YPIWGuf8zCqpcadWdCrdwuJVeBItQaM4ayxA6/uprQDIe0mjRujKCWe+Pvh8iNgUyvj/3Qe377W2HTjTcO72KFcPxrrxfq34lmn3jKPtF/BvHqUCzZ19TUx6EmKqT6HSxPMYSQz3Zy+f3HCQxgUaGPMUv5Ca8fRdDa/2Z8F8e/BhifTvx+LyTk+te6DRpCMcdYDf1rAa8O5Sl7ZFaF9LiIOcc/+8MPMUN6q+DdeaftMGvMJfv4dcAxffp7cmuW4ef1sG1hk3UhDlWNG/dymIdDWzl+7CXui0NNif4nM6RWWZSclZ14JHpZD8uPeopCyrdo4ZGgMq0MbszJm5K6BBPyol6oopWawEoC49VpeRA3LBvRctcxPI4/pz/NLr0DY8EZjUg0uLQtSNHfXXVF2BsG1kn2Uvrv0o63MZRkyoJF+mMNF9eTnov9I0cij2KZ9PpfcXXnD9XkUgl+HvLZd999YZT+EWLQQ01tOUtLjApse0h5y9FYGvmPTktX/DSZNBdGmFu13hIK6YgC/91//wPhkoEDlUdK8LMo2uTcrd0u4U9Pj5b634cl+29kCmlCq8h/82C/9MCeB4kpLdYxoy17Ier/20GD8Ot3v6z+5P8ltUvC9753eJg6fbp8vX67VoQ17dK5c3gZe0tpS5XCT68O1Y/NYIGf99FzyZ6Oh5ou4TWnK8j/NOtx4W/6hVFPPlXW/ooJhcb2b5kppOX1J27e1HTpoMukjoZ/wqtQSFdh/5vz7t8wQ7of0Qt36E/YcvqDIHKopdv5N8E+Zhe0e4RBPrFDihnUjKaxrNL6p/z3vcuGhS1wNSY7xjicLn/lvuuWi5+swus0Dxp4D/aEra1tRPzjsYf11/H0KsJ0OadrgHmJn7OXvW5+Kqy/wSYCox2T0LiY4NfHhffG/xnxlevPMjKH+nM2WK5JjZELPpodHunbR0xUVcK/y+GnhNf+QKUQymBUSFP8PKHOQ03EfzRmSGkyqVT+cg/pW9hDyvboc9/L2XI3y5wDO6g8uEVXCT/rv1PP7wfaQ2VVZMkeypoId8llfBnrj4H9gZ8fEWa8MU7wlda/7SF6l71Sz/Ji+8y15wUu3WfkAoDRn7O3zbD94X1sAWE+nSFtHrFbGYr/3pNo9ukdHGpaD4eaJhfkT8p/pfhZ2Mv4gfOCXJOKQIJfMRgepOEjT8TWh/U25MqGxRfbf1X2v7T9U/yXX3ODGMDfYvPNwxmnniBN9OJLL+OAy5Pynef+9MzQtFljoXGl+jOuEv0tlmmSTxrGSsjrP+ktzPjfh0kI8BnlL/mttP0p/PEfimL9cPaPT8e107rHmB9o+M/ri9lwBKz9y/HbhzBXCPvv0znsvVcn7dvIN+/j+eHm2+4I83iPe1YhAMp31YZdv7lzeHXiJMm7F07ZH4AlezrDzxnSj2GVgMvd/TOF1OoJQBSqty7hlD1mSGmrtLT/X3fzbZiAmlURP+vPT6Hji3hbYnXv1JOOlzBnSPtfij2kSOTEzsl9qJDmsEyYPZsKqcoFHmo6GgqpyX/r/8/ipP0TT2EsNRfrT/wbbUzlF6s0uACG+Gkii+/4WWijkiV7TUxBjGAxjtoev7iK4x5Sq6x68rLEh4d8X/wIxmUO5fJz8AQODDcxg1QUv4bl97fgRxpqJ3isAASE4CjM8SvpSIh77hkaHnv8ifDXv75p5CzQf7fddwtn/PA0zNZh+bAK/dvu8i1QdSn20mj7SNtUpD+HEezVhBmoo7CUrw0hjSj3q193401Y6n45zJo9G3cYbxj2+M63w7E4aPQU9lbedvsdgv/BPwwL22CLQdr+R/WCYfy33gyN8YtX7oEnb5Tg5yGr93HYqs3W24SHHrhf6mr4l2Kw4gn632LZ/DMofCn/7bzTzriT/eLwOPaCXn+jmvi4b+idmOXccZn8x6WVxx97HLeDPBCmTJkideXsFOt/OUwx7Y9ZWMOvniCn3H/2s7PDG1gOJ48Kn4I8XaG89u93UTgMPx54YIz1H/Fg3MaAeqb8zyvoOnVh2dhDCoV0QP9+2n1QGKK0jRFDqmcIxJNVJzyFWdDf/vZy7IOdjbIjnMBr+/bsgb2V3bqFTh07SqEpfhEXoP+w4ZghHXip5o+4XoeNWCtuWfhT+gsc89NV4T/Dz7vC78HSKHlDhCDzxAJ4urkZ9g02atFKbh7afv/DMWu5LtLtixT0fdgKHfHLo0AR/svn2FhUAb/sHGNUbTh40LCwFWbvmGPejKnh7T8/BJuXD2d7RDUvYGP780R9+xPOCdvtdyhOsNdnwQLCL1n0r4/D5GdG4t71x0TRwfAZU+nJ5V97zKy2PeSk0LBxk0L7G/1H8jpJ7Ie1+rMQwy/I+CDaWH/dL3ur8ghhkbQEe8ZexKGhqS89rXUB/lbt9wk74EaktRs2DiOpOKP+XX48KOx0YG/kyfv/2Ntx7SZP2aNScso+nlA3avP9zLW/Cm9A2SO2k4a/Hho03bCAf+akF8PTV50DO6ToP3Sx/k032wqG8AdihntdmIbC0jsYhjcf7XroyfCj5Ar9nxWqxW00UzDrO/Gh22Gh4K+YYZyf1b/twbgJ6Yz+BfykwRe4CvbZ6y7Q/acJ/WlWrOuvbggTHrgJCuvdgFwaThk+KTRoskFF/MN+1D3Mefv1sBYOU53GGVKpDx4l/Cd9NNKf+AUOb5q44kUEM9+MqwwJ/7H+W+3aMWzbuWfYfv8jYI2gAb5hzRj/eNMebXCS/vvu1THsu3dnesM9wx4Mb+Ag6npYKTr/3J8hRutarf4CkNA/lf/W/1P+S+vPA6bjX5kQXsfExywoTBldxUMK04ODVe13k4NMtNbCmAxOUkM476IB0lzg8pgKCHywsBzicvyMjwppZ8hIOgXFjOwiOUn/9jtTYGvzU2n/LXBdd4dv7RYawBarKM6ApcmnLlBKrf1ZBE/ZcwaRd8BffNF5GcHS+v9mwOW4DXORzP7+GjOkwl4J/mtu/H2YNQtyPcYtj/+43eyHJx1PaFkF7TfwSlSlNrRp0zqcjNuitP6suepftIN9+TU3SX13abtTOPJQnCWhi/U3yr35t7fD6GfHhJkzPxAj+LSBuvXWrcNB3bqG62GGkeateHirfzRvpWUADzp4QhMrDsmZN/NInjQkDYUPkbiYIGafBNIeAEBl9IulfoCPX08Q5ouOhNBuhohYnsWxFE7zCwTS4EVF9S2swo+BniL5Ynn6cvyk/yf45fXPGe+Hj3gyGoNkk6aNQovmzeUKMiOX0VrCq5D+ZMbGwM/lHLbXry+4MDz6KA6oIDBu7BjcUEFFAl+BZPsmtuK/2/4LcTJ8Gq5u4x7JdXFKcfvttsWNGg2t+hmuVVl/3kLDK9b+8e4U/EpvIif1dX9vXtdViV8GBCFsrSztcDvGLOyvatq0SWi+6SZh88230P3Gq4D+ES2alg1LBHDxRa+1Nf2rov0N7crCP3/uh7iH/APcsjQ7LIVyt/6mLUKjTbbEjObGGE+piNKRcyvLv0UwDj1/9ozw6dwPwufzPw7rNdsI+bfA32boomtLVqPJyuD/ZdX/CxzgWWudBrD+ALxwvNb06St5EKUWs7xDQ6vd9vq3+18l/EtxQOOTmdPCxzOnY7l7XWxfQJ+E4rq6259t8NHUt2TwbAHbtQ3Wb7pa6U+as62/wAEhXhTw8ftT8YOqoRwEa9J8K3wPZvR8/AOF0HshM6qN/599thAzlPOg2H0iq01NINc23KAJDpFuABuhuvd2ZfX/5ekftJyyNvoUJjyldcfghP8fcdKfCuYxvQ/FtrDt/qPl3/Lqz1pTLeNWANpNtf5/Ae2iLvkCbdJMbu8iHB35v0QhzeSAAHCsoCCs7DS1FKZcIWUZ1K/JBvzjU/Fg6wA6GQIibRWLlBfDTFPmQx5J4AcbnERIWaKHJmUoRP50/Gsu/RfBDETX7j3EhuiGG2wYRuMEOoUNG9bb3/nf+z94gIrIapZ/Tw78UZg8GvvL0RWPHTwmNKOVADSGy18dV6gYgSA+/oAKPv5GPYYsUcGZ/nH7ENxlP2Wa8MxZZ5wcNsNZi/81/Yezt9fEw2XbYSXwhOOxpzXR3TKFVLtXBWqCfLkayZxwGXDm0Xg8F3y+GE+buoyY5GVYUZoIWOYVVsabHVuxsHCDRAIcU7hYnM8yYIeuKC08pa1lpTnod/xKoEgXeRmNVj/9x4wdKz2Wd6hzf4y1P38p3nLrrbgbF9ez4d8P+pyAgzY/8vYXrifv0zn/e/9f+fKPd8fPemtC2AbXp66zHvfT5fL3n7gp6iHcFEW3KcxrHQ57rzwTICMH3y5/ffwBH/j4W9Q/eJJ/yrvTw6677CR3zau2CT0HtHrrrXfCXfcOR+epDRvg6tKzf4pDgji8xPB/m/7z3PNjQ0vcgtVqK1ru0PqTFjQPdusdd8kyPhfmex15mNgyTesPhRQb7EQFQF46pU/qkehKjwxUElWkLRSFFClJoqib/CkAqYYDsdKZ8w+NgBR09BJOpkVYBiPzr2Ny6mLOGAX8UHS5gVwKShIdP2jzFdJ/EA75DEVn3HDjjWRfIq9s43LGSy+PhzH6CWgvnDzHvp5Rf3w0NMZpYG9/MC/7gPO/9G2VAtKrY1/XV9LFEeH9/8vIv78/+3B44pIfgmy14Wudv4sT6V+XG5t4PevfccLc+O+wq0aEzXfkHnKnP/ktdc5/lNzmvP+Nf3ViGDHyjyBIbWiNMY4n/evVrx9mzpgR3p36z0z/ORGzgl/fprUST5c+op9ZQdH/cP2HpqM+w9XajWDJpU2blmGjZk1xWGt+eOudv4cFn30u+l8LWEPgLHFc+snqn82QqrgpsBeYjWEwWvQhUHTFHilpahhfy2cEy+ByPedCOcdZD8RmebpRN+3iaWFUIbmJVnMVBK1+Eos2mUkf/liq1qJYkuP/quk/AAop7VZK+6OdpP3RWmxlOt6uNHBAf+ynxEEicd7+zv/e/1el/HvnL4+FURefGvsbX6nUhMks2NPcG4eZtoMZJJe/kFXy4xA0skEGFMt/M/r44+NvbXgFCukDIx8r6Unas6jJ4BdfOKj7fqFDB1itAT/Z+MekYv/7zx7/+kMhXYC9vOYoWTL9D9ThQapeRxwWmjWlySxzKn9EIaWSzn17BdVT0wVavckzSRNCSlgKCAtg9yvvtUhgRxYbULnCaJ9gb2kcyc5BCP/ot1V3ADFnvajOUKmhIKBxYml5PhjWCihqwGsk0xz/V03/D+d8GF7C6fqJEyaGGbNmweblnNAY9tu22Xpruaq0x4E9QoMG66AZvf2d/73/rw7598WCT8P7r78AM0kvho+m/wN2XOdI/9uo1fY4WPS1sG2Xg2HPtIWIVpe/Pv74+KvTKcvSPz6H4ffJuD7znSlTYR5pdpiPK3KpfzTHbGCL5puG9jAU3wyHrErdf5v+MwMn6ydjNnTatOk4ODs/fLpggZjZag4afK1N6/DNtjbxpJQo1L94yj4hlSh5SVi1vhgRVdcyGNghhUkCm9uw2WhVDqEjU5MURVPzp6VTh5RfnBKJQQmZ+ctc8zIyRab5RSeVnx6SSUDS3xaOH3QhCYV2Tn/nP+9/Ln8gEiBodXogyk2+XP76+APxwFGWzODjr+sfX4X+VbZkX1T7En1GFBvhVjwSKPFqmE+zQ6oCTgUf9Ur7ZZHnNAnIOSHGkgFgXxBaJHVMTmwytp544GMYBUlHYQr9hIsFM0QvHeP5UFikwO/4SQ+lqdBHCUSiwkdKO/2d/7z/ufxx+evjjwwLPv5iVHT9A9oCZ/b4Wg36lyikVEdESck8iKCTD1H1JUvKPAqSPWO8mn2ySjAvE/iCn7coCKYIjBdtHOuxKssj0Pr4UvhV8aQKLDiyvI5fiOn0d/7z/qeyIZMRLn9c/vr44+MvNQbXP0zxVOULz0yHUi2O2pyJzgzGPJzYIgkNIMv75fSvfIY0K8Aw6Duqd4ammBhDBsPPWYB7gG3WLX5Krh9GQFZM0/iU36OIgN9mPaVchZIsrKgmx1k+TdO5vYwEWqpQxVKkIMdv9BNiCjmc/sIaJIjzn/RG738uf1z+ZtMlJiV9/JFu4eOv6x+icOoq6yrUvyruIY2KS1TnVHvkN5S5UsAQPotXhwqofrfmMj/fmCitxQbQerVYIoyqUS4JAMDB0dZNmI7/Uc/Ub8kKR0EUopz9k3L0RD1D4iyaAfPz7fid/s5/3v9c/kBqUobDmXykx+Wvjz8+/qIfxE7h+sdq07/yGVIKJep+aAM2gziblrRw6ZuyLAKrtxaHmhZn7cjyRJGURAYo66ICyY31xMU0KQY7GYEvxS97QLmmZEJTASVItPw8xc9dkNymzz88JVGzOX6jk9OfvOL85/1PfsC6/HH56+OPj7+uf1CrUr1pDdC/VCHNFDv5NnkUo5JQ4s2hc59dHao6oaiHok5aWLRJgEvYyqIGmZlx0rIsSUIyTwwYZrJtqFKAwtozjVK/41dVPdJbqa4kxTNT6J3+zn/e/0w0Sf9w+aMyQ4UFqGEzBS5/lTDpYCNEMhmrAR9/2J18/PXxV9dgrD+YkJWwCdlE/yjOkMaOpZmYJXGWOYkSr8TniQsWwg4pl9GhOZppEUu1N/OJfGNEdPrB1qmNlS0V8YA1MwQGK6koqAaHNQyXar+O3+mf84Txnb3JN85/2qesh1mf0rf3Px1KjTouf1z++vjj469KR5OVIh1c/1i5+hevDjXDpCRwOmibOLY4e6dwaRzjbYaUfhXq9pMaYS6TsQGRxnzqNE5s5yPCTAswjXB8SgmS1+Ly75ShUwrMS5RskpO/Txy/Uc3p7/zn/c/lj8tfH3/y0dLHX8pE1z+0T3zV+lcyQxpVS3lFv2h2aTwj0jQBKDwW2F32jDXJJ28NMLfsCoWHs1T14iZPdAvNIK/oZ5YYT4s1+gtNb/Nh2bLkrLkApeXnSLOEGKXpLNnxK+2c/s5/3v9UkLj8cfkrA4WPPyCDj7/CC1QZXP8QRWp16V+JQkri5y6yZCGCCoy0EWKpDFKXpFNYfcoMKb38ySEGzijqdVZCgPkAw/NgAcG0RPVJiGUiLV9wZaxkCUtRpuQCeD6rq+XX47I9P5DO8Tv9nf+8/7n8EcHp8tfHnzgy6vjo46/rH2uq/mVmn8rUxlTjVDYuPMvgY6ou2VME0qRTslzOdCqSoihATnIJXjRH7SpZedZzMJjUQOOVWVF8C6NztZV+mI2S2dVivH6G43f6O/95/3P5oz/449Plr48/Pv7KwWjXP9ZM/auGW0hF21NNTp5U/EwvpCkmKoZ0abxEJA9LE4WU4BgLaLGJei1LU4UzyWBxMaPOfQpwjgfl4PtE8eTkp+5/y5VT0Uc1i+TJDEQ5fqe/85/3P5c/Ln99/PHx13SNVP2wONc/RNlbU/SvkiX72DpZw6Xh1B8BKkQt+HwREtXgPX+FhKWoKgcGZoFWKaoptVT+UsOLuqPuDUVAtFfCqAIrAIQQIJagaYxnSB5Mi07zcVbE8csPAKe/85/3P5c/Ln/jeBFHFh9/fPx1/UP0pzVN/xKFNJ0FVS2PGl7U9EQPVGVQlMA8JeqDmsYczJsaxpfKshxRNAHHKU3+hzeb52SyzYIKTk5tsSwmQIAgL291wgN5iAspTGcU3vWYLhkobKiMcplf0/WFp+OPBAEt+N/pH3kGhCB7OP/pKgSJIUsbeAlhvP+5/HH56+MPBwwff13/AB9wZOAwQZbAe2XrXzpDSjzUUjAIZV6EZHziewUc89EtxNWhmUZoa+ixAgohdRGvJiORCqMoncSvg6Agl28CKEDselD9SpYhkYKLxfMQFB39jp9UIE31JURR8pA6kVKWDFinv/Of9z+RGy5/XP7yR4iPPxgXfPyV8dL1j9Wnf9WoFVKluz5jZ5SAaTFUWhCRv7IMGp0nLlgEhVRBM72QfL0UA149qNSENOWXHT8acUJcVIwILFOcBBRoZsjxA061cqZbNOFyGMYj5PiFCKAFyOP0d/7z/ufyRySqKBqqeLr8BR1kwOD4Aer4+BMHThJFuAVv0ia+fPx1/QP9xDhD2cKYQ3kEzzrrX9AJsV6J7FJkLJcFpq5KdAqS+VPD+IxkZ9eFdAWR/s5YepgYf40aftFLBZSCAhVHBEG4YEB4AdeiNLuUEYuK8emLyY5f6UO6OP0pW8EVzn+x00jPy/q/9z8de0kclz8uf3388fHX9Y/VqH+Z2ScdkVJVLvGzReJIxclLKnnVXHbKnuMcnA53qhayc1MPKHVMFUXTlpgTAE2rhF9SipCqbcWBVpMcvw6tVMud/s5/3v8SkRG9Ln9c/vr4g87g46/9Gs2EhOsflA2rT/+qsGQf20I+gn42SblTRa88XhRSJsJxjoEaqOzLwtPy1IriiDREqIIrzS6obMBUImgp9tRidebCZj1jToLkzvELLZz+zn/e/1z+uPzVMcPHHx3NffyNikd8yThJZUSHCxk7Xf9QeijHRL7JtIrcwvXK17/ikr22Ap7EkDh8VhIVQxZp7wSeCqndmc5k/ugy5TGrFrVQ+TUGCFNOWUahPLAJ0nRDARPpKFqxeG/KcgFeIfh0/BiEQWOnv/Of9z+XPy5/bQyLw6ePPz7+uv4BdWrN07/yGVJT7uyd63dlPgWpDEiFVH6RZ1OdzF4Km4ft13sF7UkUYU1nCcyjTnPjKVsAZKeXJpi8QU6xgcpYyaY5FMgiVfN2/Dp74PQHXxS1N+c/6T42fyAdSbqQ9iY8vf/h97TLn0w2u/yV8cbHPx9/Xf+I44W8dMSQwSMZQegt1b/U7FMOKSD6ezIWGIfluLauCp7qcqLDRG+WTw3jcxBLBHVWvsaJTVr52R4/NAoygilEEkH8VG5h4Jte+Q6c2JcogY/p1PYVIMY6/mygAEXUOf1JE+c/dCPvfypXRL6gd0Rx5/KHPUQEbSYzXP76+OPjr+sfq0X/woq9aneCLcqgCi9T94pJFmtv2CGl2ScEuSrC3QC8dpRCfml2oIkJEHoMU+4RBgpmLQzvSkbGMbOMEPbOQ0iITjLDbzB4R1yOX0no9Hf+8/7n8sflr48/Pv5CDlBNob7g+scaq3/JDGmuTqK9skDmYSsu0xkkJympkPKtN3OpsijLWuAGUx1ZWOq3/IIEASqq/J2uUAmsJDBeXSwdxEXZiJa77uFx/E5/5z/2odhDuKzs/a8gc1z+qKinJM0lrQZc/pImOVUyXvHxB4Tx8Ve1D9NLomx1/WOl6F9lS/baDfPOmAusGEeGZMes4uRQE9IIrSNAXpb48OAEKEvIOjph6VAuDyzxF312AbUomJzlUBPOeqAJs6k2wLJQOpbJstXr+CNNVICQ0pE2pBFphTD/jHxMd/o7/3n/c/nj8hdSsQZjjAwmnODw8cfHX9c/ZK1J9L9Vp3+VKKTSA0U3yTS73CPxCYToOvprGv03JixctFiUSi2ET6o98ZwnFSHAycyNZEAS80VHQaizOoiI5VmcKE9UWAmBNOJdimIVP6fjERlX/a08fTt+p7/zn/RD738ufyAmXf7GjsABguNMdDbWSJDxBNMRR3+8+/ij1ABtfPx1/WNV6F8lCmmmB6Z9MnbX0pf22Nhvs8TPv1gMRZGxudPflxSD/ONT8cTrs6XjS2SMJ7MzLDN5eHMfHPVNjia5HisRkk300JgHUGXO8fP3rdPf+c/7n8sfl78cOfjn44+Osapt67Apo6qPv65/gBG+Cv0rU0iFEctUOUborKWKMXKqRKkSKd06xmlKWLykNnyxGAebqFWyRoSRV/QjrAomMdqUJkvXwZLwBqlFMqUe4vJZLp74k+K5jC/KapqDfps6jfHyMhjH7/QHv8kvHOc/6Z/oXd7/XP5QWXf56+OPjZQ+/pICrn+sTv0LCmnR9DzoX1XZVAbNnxmoROmQxvx20l7kmxSHNCqnOGlCczNUJmUgFM6PpVgvyNRyxItCGz9HczBj5srwo2AeoJKyk0QZbh2/09/5z/ufyx+Xvz7+6Bjp4y9UBdc/RMNaQ/SvbIZUlDjTIIVd8xkD82WaoHkSpc+i+P78iyVYtueMJquqy8Wci2JMPay5szzdKM4CzKWFUYXkJmLNpXewR4oZ4ZCNy/eqs2qkJRVLcvxcrnf6O/95/3P54/LXxx8ff13/WFP1L1FI+SNBl8AT1TPR6tSbPJO0fDYS6mCMZ3kyS8qIODPJXyKmMJoKam8hjmTXk2zyLXEmg0UyZz1VZ+Up+0hlAxBLIA68tALUgBnQeMfv9Hf+k5lx738uf0wqUkKmzuVvsgUMY4ePPxg2fPzNVArXP1aj/oW9dFTnyp0oeWl0GqG/MkUxFAWwCMcGXLpkaViEmVJVEJkXc3TMIIyu+dNchJMZT4nk0jtgKBlE22RkOX7RSTn1Zw4g6dyq1Ey+z/E7/Z3/vP+5/HH5izECA43+PLGBA28ff3z8hXigpkBmcP3jq9G/ypbs2SCiw+Gd+TMPG4suiRCvhvmks/xLliwJixbz4JEul5rCqel4SgQaX8ojAephIkeXlzmxxfLqiQc+hlGQMApT6Ee6XYHIEJck6RjPh8IiBX6mOf605YRAJCpIRUo7/Z3/vP+5/HH5yzkOH390rPDxF+MkZ7b4cv1jletfopBSHQG9lQPFwwCcNIRGVIVRyAp5kYCsizFT+sVizJSyh9eIWsiCNZHtjN6vx6qQHhveivxy+FXx5G9fQZx9O8Nwjt/p7/yHjsD+bH3E+5/LH5e/Pv5QKvj46/oHFTIqS9FlOlQ2YiQeAzLYlaN/5TOkCfIUVRy6bAhLkzK/wVT7WiqJi75YKsv4rLANiQovv0fhJTGkWwgug5Kyra8wLyJsNxihWXYBP6dD46wf48VZ/giIoOTRp+MXOjj9nf+8/yWySaWEiAyTH3i7/KG0UNq4/PXxx8df1z9Wqv5VcQ9pjkEVutKwxka1jsIpd1VBAcLlsCX8wzL+Ukj2GtgT1eZEoso49VA5snUTqo74H/VM8Ss2ZpANqRgkLLOeqM++yKKZwfx8I1stNqDWq8USJQuns3R6HL/T3/kP/SB2Cu9/Ln8oFjMZaQLT5a9MomSE8fFHL2CRETUZU5PxlTzk46/rH1X0r3yGlDxE3Q8MQ54RR8WMmmA1R10uJqs3iWAeC8qbD0bhd3WMt2RJ0ETH7/Q3lgKzgEOc/7LuUeZJOpB6k4jYn4SYEs2H9z+XPy5/ffyBIMA4UyItJMLH/0yl8fHnKxh/VSEt48xSZk0AEq+McP/Ow8qyd1JWMSoJJd4EvG5eK8veSSnFqCSUeBPwunmtLHsnpRSjklDiTcDr5rWy7J2UUoxKQok3Aa+b18qyd1JKMSoJJd4EvG5eK8veSSnFqCSUeBPwunmtLHsnpRSjklDiTcDr5rWy7J2UUoxKQok3Aa+b18qyd1JKMSoJJd4EvG5eK8veSSnFqCSUeBPwunmtLHsnpRSjklDiTcDr5rWy7J2UUoxKQok3Aa+b18qyd1JKMSoJJd4EvG5eK8veSSnFqCSUeBPwunmtLHsnpRSjklDiTcDr5rWy7J2UUoxKQok3Aa+b18qyd1JKMSoJJd4EvG5eK8veSSnFqCSUeBPwunmtLHsnpRSjklDiTcDr5rWy7J2UUoxKQok3Aa+b18qyN0opzpBmxSYQFlchSpIkPknMvJkn+yWWx5QqvIbE3ilkjKsQ5fhBAaFLQpzMm3mc/iATJ/JzihT9wkeFRwoZEypESYrEJ4mZN/NkePMYx5/SokD6nKjF6GoZJD5JzLyZx+kPSjr/F/tczh1FNtNQhdQKUQIr8Uli5s08zn/Of97/wAN5jyj6tc/pEwrpUmztxDIOJRZcmklj8rg0zfz2NtjydwqR+g0Suzgdv9Pf+U86ROUeUl2hqARvPUvfKUTqNyjvfy5/XP77+FcuLXIJ4fKn2g+6ShLV6FZO0UrQLn9T+ZvMkEZiySslXBpPEqdpRdKvSCjLDU9hv4qVKwAZVI4vi8o8K4KuDCbLDY/jV0GjRIqUkVdGJad/gS9JqZQ2Srkv88xyw+P85/wXf4flfCUMknFJSTw5LU1j+Mu5LDc8zn/Of85/1n9iz5BX1kuQmMYTNk2zvCv+znLD4/2vvP8lCmmRqBnhLLqEgOl+V4VNcphX3jzHjl/gVo68DaAQWQiUQSAibUDHj8aMRFVaJRQzr7yd/s5/3v9c/qTi1QREGlf0l0EgwuVvPoD6+OPjj4+/KjNUViQSw7zy/nL6R6aQlmVLe1xRVkmoDL4AU/iiPKUs2iL4u6NEbXD8eY/PKZj5yuiVpdBjdLV3TLSgvTM4p38ZPZ3/nP9sxCn0LQ2U8UsBxjqYvb3/CQWMHPZ2+QOy6E+lMn5y+ePy539Q/tRwC2nJ9GUiJqCoMDkSJpMjBeGrgbK0koiSYC6fKiSkUY7f6e/8Z4OWDV/lHTDtM3nnyuHK0pEkcRUS0ijvf97/vP95/6MkSeVCLlnUV5ZWElESlEwSVyEhjXL5878lf7IZ0spsVWANgBQXvipzqObJnuk6jyKhllvl10+Kj8BpOPXHgipEWR5NwtPxlzWb0x98UfHXZylDpeHU7/wnFKhAEu9/SpTs6fLH5U/JsOnyF73D5W8cRNJXqUBNw6n/v3f8EYU0/RWiAworHHuR0EGJwSed9a88thijUMlTMuJRkQmBMZmFdfwlVBYiy0PUc6e/81+xtylvaG9L/d7/MgqQLOw9Ln8ykqQel7/5LJSPP9JZwB4+/ksfEZEqDx9/o9BYleOPzpCWEF1usiBywxw/ZFmvAhsXAuW5ypIdP2gtRNA54TICldOwNKaQpRAohSwTuRrh+EEoXmUbm4Jkc/4nFVbIFViuECjPXpacEd3pn5GCZHP+K2eeKjEFnioEyjOUJWdEd/7LSEGyOf+VM0+VmAJPFQLlGcqSM6I7/9WoFdKUaEKdGJGQLkanqQTScJVEKxbJtVB48rO+VkrZVu6sRM1KODr0jCooNLpKomaWvI7f6e/8ZyNM7C/oVClXaHexNIbop/P+5/KnwAbCFXwot0SeSVkng1Agl79pTzNCef9LqaIsY7RhiH46lz//K/IHM6RL0eqJZm5jlnKCPFMWSaJX2FvIn/CYFqCp8iwA5sVXic4BluMr5GeALqunpsqzAKhgfFaJzgGW4yvkZ4DO8Ssd0iGtQKiYjFeV6BxgOb5Cfqe/Usv5L3KNcoc8C4ySM1WV6BxgOb5CfgbonP5KB+//wuS4eVIAAAA1SURBVAzCIwVGieTBq0p0DrAcXyE/A3TOf0oH5z9hBuGRAqNE8uBVJToHWI6vkJ8Buir89/+BveLsL1lTAQAAAABJRU5ErkJggg==;" vertex="1" parent="1">
          <mxGeometry x="-240" y="350" width="262.89" height="140" as="geometry" />
        </mxCell>
      </root>
    </mxGraphModel>
  </diagram>
</mxfile>
